<mxfile host="app.diagrams.net" agent="Mozilla/5.0 (Macintosh; Intel Mac OS X 10_15_7) AppleWebKit/537.36 (KHTML, like Gecko) Chrome/132.0.0.0 Safari/537.36" version="26.0.10">
  <diagram name="Сторінка-1" id="an3dJR63AWUCDGij2A7-">
    <mxGraphModel grid="1" page="1" gridSize="10" guides="1" tooltips="1" connect="1" arrows="1" fold="1" pageScale="1" pageWidth="827" pageHeight="1169" math="0" shadow="0">
      <root>
        <mxCell id="0" />
        <mxCell id="1" parent="0" />
        <mxCell id="yh0qmV7Q8T8gITBxbPLc-189" value="" style="rounded=0;whiteSpace=wrap;html=1;" vertex="1" parent="1">
          <mxGeometry x="6005" y="20" width="615" height="330" as="geometry" />
        </mxCell>
        <mxCell id="d8mZoJdHlw85jdswwhyd-1" value="" style="html=1;whiteSpace=wrap;" vertex="1" parent="1">
          <mxGeometry x="6330" y="1020" width="1760" height="1180" as="geometry" />
        </mxCell>
        <mxCell id="yh0qmV7Q8T8gITBxbPLc-58" value="" style="rounded=0;whiteSpace=wrap;html=1;fillColor=none;strokeColor=#FFE599;strokeWidth=3;dashed=1;dashPattern=12 12;" vertex="1" parent="1">
          <mxGeometry x="6660" y="1394" width="1130" height="696" as="geometry" />
        </mxCell>
        <mxCell id="W-QrEEKh5oDHu_YkBTrK-31" value="Віддавати результати анкетування&lt;br&gt;АПІ з нашого боку" style="html=1;whiteSpace=wrap;" vertex="1" parent="1">
          <mxGeometry x="1115" y="880" width="810" height="780" as="geometry" />
        </mxCell>
        <mxCell id="W-QrEEKh5oDHu_YkBTrK-119" value="" style="rounded=1;whiteSpace=wrap;html=1;fillColor=none;strokeColor=#87FFA3;strokeWidth=3;" vertex="1" parent="1">
          <mxGeometry x="1440" y="1260" width="190" height="160" as="geometry" />
        </mxCell>
        <mxCell id="W-QrEEKh5oDHu_YkBTrK-91" value="" style="html=1;whiteSpace=wrap;" vertex="1" parent="1">
          <mxGeometry x="2035" y="860" width="1015" height="1000" as="geometry" />
        </mxCell>
        <mxCell id="W-QrEEKh5oDHu_YkBTrK-120" value="" style="rounded=1;whiteSpace=wrap;html=1;fillColor=none;strokeColor=#87FFA3;strokeWidth=3;dashed=1;dashPattern=12 12;" vertex="1" parent="1">
          <mxGeometry x="2124.41" y="1220" width="635.59" height="600" as="geometry" />
        </mxCell>
        <mxCell id="W-QrEEKh5oDHu_YkBTrK-205" value="" style="html=1;whiteSpace=wrap;" vertex="1" parent="1">
          <mxGeometry x="2750" y="1920" width="1410" height="720" as="geometry" />
        </mxCell>
        <mxCell id="W-QrEEKh5oDHu_YkBTrK-249" value="" style="rounded=1;whiteSpace=wrap;html=1;fillColor=none;strokeColor=#FFE599;strokeWidth=3;dashed=1;dashPattern=12 12;" vertex="1" parent="1">
          <mxGeometry x="3010" y="2230" width="717.5" height="380" as="geometry" />
        </mxCell>
        <mxCell id="W-QrEEKh5oDHu_YkBTrK-248" value="" style="rounded=1;whiteSpace=wrap;html=1;fillColor=none;strokeColor=#FFE599;strokeWidth=3;" vertex="1" parent="1">
          <mxGeometry x="2485" y="1430" width="205" height="160" as="geometry" />
        </mxCell>
        <mxCell id="W-QrEEKh5oDHu_YkBTrK-48" value="" style="html=1;whiteSpace=wrap;" vertex="1" parent="1">
          <mxGeometry x="2035" y="-110" width="905" height="910" as="geometry" />
        </mxCell>
        <mxCell id="W-QrEEKh5oDHu_YkBTrK-189" value="" style="rounded=1;whiteSpace=wrap;html=1;fillColor=none;strokeColor=#FFE599;strokeWidth=3;" vertex="1" parent="1">
          <mxGeometry x="2430" y="410" width="200" height="140" as="geometry" />
        </mxCell>
        <mxCell id="W-QrEEKh5oDHu_YkBTrK-153" value="" style="html=1;whiteSpace=wrap;" vertex="1" parent="1">
          <mxGeometry x="3020" y="-110" width="1210" height="720" as="geometry" />
        </mxCell>
        <mxCell id="W-QrEEKh5oDHu_YkBTrK-190" value="" style="rounded=1;whiteSpace=wrap;html=1;fillColor=none;strokeColor=#FFE599;strokeWidth=3;dashed=1;dashPattern=12 12;" vertex="1" parent="1">
          <mxGeometry x="3260" y="210" width="530" height="350" as="geometry" />
        </mxCell>
        <mxCell id="W-QrEEKh5oDHu_YkBTrK-82" value="" style="rounded=1;whiteSpace=wrap;html=1;fillColor=none;strokeColor=#87FFA3;strokeWidth=3;dashed=1;dashPattern=12 12;" vertex="1" parent="1">
          <mxGeometry x="2065" y="220" width="600" height="340" as="geometry" />
        </mxCell>
        <mxCell id="W-QrEEKh5oDHu_YkBTrK-1" value="Legend" style="swimlane;" vertex="1" parent="1">
          <mxGeometry x="840" y="10" width="210" height="450" as="geometry" />
        </mxCell>
        <mxCell id="W-QrEEKh5oDHu_YkBTrK-2" value="" style="shape=actor;whiteSpace=wrap;html=1;fillColor=#cdeb8b;strokeColor=#36393d;" vertex="1" parent="W-QrEEKh5oDHu_YkBTrK-1">
          <mxGeometry x="10" y="30" width="40" height="50" as="geometry" />
        </mxCell>
        <mxCell id="W-QrEEKh5oDHu_YkBTrK-3" value="Person, actor, stakeholder" style="text;html=1;align=center;verticalAlign=middle;resizable=0;points=[];autosize=1;strokeColor=none;fillColor=none;" vertex="1" parent="W-QrEEKh5oDHu_YkBTrK-1">
          <mxGeometry x="50" y="40" width="160" height="30" as="geometry" />
        </mxCell>
        <mxCell id="W-QrEEKh5oDHu_YkBTrK-4" value="&lt;div&gt;&lt;br&gt;&lt;/div&gt;" style="html=1;whiteSpace=wrap;fillColor=#d5e8d4;strokeColor=#82b366;" vertex="1" parent="W-QrEEKh5oDHu_YkBTrK-1">
          <mxGeometry x="10" y="100" width="40" height="30" as="geometry" />
        </mxCell>
        <mxCell id="W-QrEEKh5oDHu_YkBTrK-5" value="Sotfware system" style="text;html=1;align=center;verticalAlign=middle;resizable=0;points=[];autosize=1;strokeColor=none;fillColor=none;" vertex="1" parent="W-QrEEKh5oDHu_YkBTrK-1">
          <mxGeometry x="60" y="100" width="110" height="30" as="geometry" />
        </mxCell>
        <mxCell id="W-QrEEKh5oDHu_YkBTrK-6" value="&lt;div&gt;&lt;br&gt;&lt;/div&gt;" style="html=1;whiteSpace=wrap;fillColor=#f5f5f5;strokeColor=#666666;fontColor=#333333;" vertex="1" parent="W-QrEEKh5oDHu_YkBTrK-1">
          <mxGeometry x="10" y="255" width="40" height="30" as="geometry" />
        </mxCell>
        <mxCell id="W-QrEEKh5oDHu_YkBTrK-7" value="Sotfware system, &lt;br&gt;Existing system" style="text;html=1;align=center;verticalAlign=middle;resizable=0;points=[];autosize=1;strokeColor=none;fillColor=none;" vertex="1" parent="W-QrEEKh5oDHu_YkBTrK-1">
          <mxGeometry x="55" y="250" width="120" height="40" as="geometry" />
        </mxCell>
        <mxCell id="W-QrEEKh5oDHu_YkBTrK-8" value="" style="endArrow=block;endFill=1;html=1;edgeStyle=orthogonalEdgeStyle;align=left;verticalAlign=top;rounded=0;dashed=1;" edge="1" parent="W-QrEEKh5oDHu_YkBTrK-1">
          <mxGeometry x="-1" relative="1" as="geometry">
            <mxPoint x="10" y="315" as="sourcePoint" />
            <mxPoint x="60" y="315" as="targetPoint" />
          </mxGeometry>
        </mxCell>
        <mxCell id="W-QrEEKh5oDHu_YkBTrK-9" value="Relationship" style="text;html=1;align=center;verticalAlign=middle;resizable=0;points=[];autosize=1;strokeColor=none;fillColor=none;" vertex="1" parent="W-QrEEKh5oDHu_YkBTrK-1">
          <mxGeometry x="70" y="295" width="90" height="30" as="geometry" />
        </mxCell>
        <mxCell id="W-QrEEKh5oDHu_YkBTrK-10" value="" style="rounded=1;whiteSpace=wrap;html=1;fillColor=#b0e3e6;strokeColor=#0e8088;" vertex="1" parent="W-QrEEKh5oDHu_YkBTrK-1">
          <mxGeometry x="10" y="335" width="40" height="30" as="geometry" />
        </mxCell>
        <mxCell id="W-QrEEKh5oDHu_YkBTrK-11" value="Container, Web browser" style="text;html=1;align=center;verticalAlign=middle;resizable=0;points=[];autosize=1;strokeColor=none;fillColor=none;" vertex="1" parent="W-QrEEKh5oDHu_YkBTrK-1">
          <mxGeometry x="55" y="335" width="150" height="30" as="geometry" />
        </mxCell>
        <mxCell id="W-QrEEKh5oDHu_YkBTrK-12" value="" style="shape=cylinder3;whiteSpace=wrap;html=1;boundedLbl=1;backgroundOutline=1;size=15;fillColor=#d5e8d4;strokeColor=#82b366;" vertex="1" parent="W-QrEEKh5oDHu_YkBTrK-1">
          <mxGeometry x="10" y="385" width="40" height="50" as="geometry" />
        </mxCell>
        <mxCell id="W-QrEEKh5oDHu_YkBTrK-13" value="Container, Database" style="text;html=1;align=center;verticalAlign=middle;resizable=0;points=[];autosize=1;strokeColor=none;fillColor=none;" vertex="1" parent="W-QrEEKh5oDHu_YkBTrK-1">
          <mxGeometry x="60" y="395" width="130" height="30" as="geometry" />
        </mxCell>
        <mxCell id="W-QrEEKh5oDHu_YkBTrK-77" value="&lt;div&gt;&lt;br&gt;&lt;/div&gt;" style="html=1;whiteSpace=wrap;fillColor=#dae8fc;strokeColor=#6c8ebf;" vertex="1" parent="W-QrEEKh5oDHu_YkBTrK-1">
          <mxGeometry x="10" y="150" width="40" height="30" as="geometry" />
        </mxCell>
        <mxCell id="W-QrEEKh5oDHu_YkBTrK-78" value="&amp;nbsp; &amp;nbsp;Container, Backend app" style="text;html=1;align=center;verticalAlign=middle;resizable=0;points=[];autosize=1;strokeColor=none;fillColor=none;" vertex="1" parent="W-QrEEKh5oDHu_YkBTrK-1">
          <mxGeometry x="35" y="150" width="160" height="30" as="geometry" />
        </mxCell>
        <mxCell id="W-QrEEKh5oDHu_YkBTrK-79" value="&lt;div&gt;&lt;br&gt;&lt;/div&gt;" style="html=1;whiteSpace=wrap;fillColor=#cce5ff;strokeColor=#36393d;" vertex="1" parent="W-QrEEKh5oDHu_YkBTrK-1">
          <mxGeometry x="10" y="200" width="40" height="30" as="geometry" />
        </mxCell>
        <mxCell id="W-QrEEKh5oDHu_YkBTrK-80" value="&amp;nbsp; &amp;nbsp;Component" style="text;html=1;align=center;verticalAlign=middle;resizable=0;points=[];autosize=1;strokeColor=none;fillColor=none;" vertex="1" parent="W-QrEEKh5oDHu_YkBTrK-1">
          <mxGeometry x="65" y="200" width="100" height="30" as="geometry" />
        </mxCell>
        <mxCell id="W-QrEEKh5oDHu_YkBTrK-14" value="" style="html=1;whiteSpace=wrap;" vertex="1" parent="1">
          <mxGeometry x="1120" y="-110" width="810" height="780" as="geometry" />
        </mxCell>
        <mxCell id="W-QrEEKh5oDHu_YkBTrK-15" style="edgeStyle=orthogonalEdgeStyle;rounded=0;orthogonalLoop=1;jettySize=auto;html=1;curved=1;entryX=0.25;entryY=0;entryDx=0;entryDy=0;dashed=1;dashPattern=12 12;" edge="1" parent="1" source="W-QrEEKh5oDHu_YkBTrK-17" target="W-QrEEKh5oDHu_YkBTrK-24">
          <mxGeometry relative="1" as="geometry" />
        </mxCell>
        <mxCell id="W-QrEEKh5oDHu_YkBTrK-16" value="&lt;font style=&quot;font-size: 12px;&quot;&gt;Вивантаження&lt;/font&gt;&lt;div&gt;&lt;font style=&quot;font-size: 12px;&quot;&gt;результатів опитувань&lt;/font&gt;&lt;/div&gt;" style="edgeLabel;html=1;align=center;verticalAlign=middle;resizable=0;points=[];" connectable="0" vertex="1" parent="W-QrEEKh5oDHu_YkBTrK-15">
          <mxGeometry x="-0.1414" y="5" relative="1" as="geometry">
            <mxPoint x="-1" as="offset" />
          </mxGeometry>
        </mxCell>
        <mxCell id="W-QrEEKh5oDHu_YkBTrK-17" value="&lt;div&gt;&lt;br&gt;&lt;/div&gt;&lt;div&gt;&lt;br&gt;&lt;/div&gt;&lt;div&gt;&lt;br&gt;&lt;/div&gt;&lt;div&gt;&lt;br&gt;&lt;/div&gt;&lt;div&gt;&lt;br&gt;&lt;/div&gt;&lt;b&gt;System Administrator&lt;/b&gt;&lt;br&gt;&lt;div&gt;[Person]&lt;/div&gt;" style="shape=actor;whiteSpace=wrap;html=1;fillColor=#cdeb8b;strokeColor=#36393d;" vertex="1" parent="1">
          <mxGeometry x="1280" y="-20" width="170" height="190" as="geometry" />
        </mxCell>
        <mxCell id="W-QrEEKh5oDHu_YkBTrK-18" style="edgeStyle=orthogonalEdgeStyle;rounded=0;orthogonalLoop=1;jettySize=auto;html=1;entryX=0.75;entryY=0;entryDx=0;entryDy=0;curved=1;dashed=1;dashPattern=12 12;" edge="1" parent="1" source="W-QrEEKh5oDHu_YkBTrK-20" target="W-QrEEKh5oDHu_YkBTrK-24">
          <mxGeometry relative="1" as="geometry" />
        </mxCell>
        <mxCell id="W-QrEEKh5oDHu_YkBTrK-19" value="&lt;font style=&quot;font-size: 12px;&quot;&gt;Проходження опитувань&lt;/font&gt;" style="edgeLabel;html=1;align=center;verticalAlign=middle;resizable=0;points=[];" connectable="0" vertex="1" parent="W-QrEEKh5oDHu_YkBTrK-18">
          <mxGeometry x="0.1051" y="3" relative="1" as="geometry">
            <mxPoint as="offset" />
          </mxGeometry>
        </mxCell>
        <mxCell id="W-QrEEKh5oDHu_YkBTrK-20" value="&lt;div&gt;&lt;br&gt;&lt;/div&gt;&lt;div&gt;&lt;br&gt;&lt;/div&gt;&lt;div&gt;&lt;br&gt;&lt;/div&gt;&lt;div&gt;&lt;br&gt;&lt;/div&gt;&lt;div&gt;&lt;br&gt;&lt;/div&gt;&lt;b&gt;End-User&lt;/b&gt;&lt;br&gt;&lt;div&gt;[Person]&lt;/div&gt;" style="shape=actor;whiteSpace=wrap;html=1;fillColor=#cdeb8b;strokeColor=#36393d;" vertex="1" parent="1">
          <mxGeometry x="1620" y="-20" width="170" height="190" as="geometry" />
        </mxCell>
        <mxCell id="W-QrEEKh5oDHu_YkBTrK-21" style="edgeStyle=orthogonalEdgeStyle;rounded=0;orthogonalLoop=1;jettySize=auto;html=1;exitX=0.75;exitY=1;exitDx=0;exitDy=0;entryX=0.75;entryY=0;entryDx=0;entryDy=0;dashed=1;dashPattern=12 12;" edge="1" parent="1" source="W-QrEEKh5oDHu_YkBTrK-24" target="W-QrEEKh5oDHu_YkBTrK-29">
          <mxGeometry relative="1" as="geometry" />
        </mxCell>
        <mxCell id="W-QrEEKh5oDHu_YkBTrK-22" style="edgeStyle=orthogonalEdgeStyle;rounded=0;orthogonalLoop=1;jettySize=auto;html=1;exitX=0;exitY=0.25;exitDx=0;exitDy=0;entryX=1;entryY=0.25;entryDx=0;entryDy=0;dashed=1;dashPattern=12 12;" edge="1" parent="1" source="W-QrEEKh5oDHu_YkBTrK-24" target="W-QrEEKh5oDHu_YkBTrK-26">
          <mxGeometry relative="1" as="geometry" />
        </mxCell>
        <mxCell id="W-QrEEKh5oDHu_YkBTrK-23" value="&lt;font style=&quot;font-size: 12px;&quot;&gt;Data&amp;nbsp;encryption&lt;/font&gt;" style="edgeLabel;html=1;align=center;verticalAlign=middle;resizable=0;points=[];" connectable="0" vertex="1" parent="W-QrEEKh5oDHu_YkBTrK-22">
          <mxGeometry x="0.0714" y="2" relative="1" as="geometry">
            <mxPoint y="28" as="offset" />
          </mxGeometry>
        </mxCell>
        <mxCell id="W-QrEEKh5oDHu_YkBTrK-24" value="&lt;div&gt;&lt;b&gt;&lt;br&gt;&lt;/b&gt;&lt;/div&gt;&lt;b&gt;&lt;div&gt;&lt;b style=&quot;background-color: transparent; color: light-dark(rgb(0, 0, 0), rgb(255, 255, 255));&quot;&gt;User Profile System&lt;/b&gt;&lt;/div&gt;&lt;/b&gt;&lt;div&gt;[Software System]&lt;/div&gt;&lt;div&gt;&lt;br&gt;&lt;/div&gt;" style="html=1;whiteSpace=wrap;fillColor=#d5e8d4;strokeColor=#82b366;" vertex="1" parent="1">
          <mxGeometry x="1450" y="290" width="170" height="120" as="geometry" />
        </mxCell>
        <mxCell id="W-QrEEKh5oDHu_YkBTrK-25" style="edgeStyle=orthogonalEdgeStyle;rounded=0;orthogonalLoop=1;jettySize=auto;html=1;exitX=1;exitY=0.75;exitDx=0;exitDy=0;entryX=0;entryY=0.75;entryDx=0;entryDy=0;dashed=1;dashPattern=12 12;" edge="1" parent="1" source="W-QrEEKh5oDHu_YkBTrK-26" target="W-QrEEKh5oDHu_YkBTrK-24">
          <mxGeometry relative="1" as="geometry" />
        </mxCell>
        <mxCell id="W-QrEEKh5oDHu_YkBTrK-26" value="&lt;div&gt;&lt;b&gt;&lt;br&gt;&lt;/b&gt;&lt;/div&gt;&lt;b&gt;&lt;div&gt;ID.GOV.UA&lt;/div&gt;&lt;/b&gt;&lt;div&gt;[Software System]&lt;/div&gt;&lt;div&gt;&lt;br&gt;&lt;/div&gt;" style="html=1;whiteSpace=wrap;fillColor=#eeeeee;strokeColor=#36393d;" vertex="1" parent="1">
          <mxGeometry x="1140" y="290" width="170" height="120" as="geometry" />
        </mxCell>
        <mxCell id="W-QrEEKh5oDHu_YkBTrK-27" style="edgeStyle=orthogonalEdgeStyle;rounded=0;orthogonalLoop=1;jettySize=auto;html=1;exitX=0.25;exitY=0;exitDx=0;exitDy=0;entryX=0.25;entryY=1;entryDx=0;entryDy=0;dashed=1;dashPattern=12 12;" edge="1" parent="1" source="W-QrEEKh5oDHu_YkBTrK-29" target="W-QrEEKh5oDHu_YkBTrK-24">
          <mxGeometry relative="1" as="geometry" />
        </mxCell>
        <mxCell id="W-QrEEKh5oDHu_YkBTrK-28" value="&lt;span style=&quot;font-size: 12px;&quot;&gt;Авторизація,&amp;nbsp;&lt;/span&gt;&lt;br style=&quot;font-size: 12px;&quot;&gt;&lt;span style=&quot;font-size: 12px;&quot;&gt;повернення даних про користувача,&lt;/span&gt;&lt;br style=&quot;font-size: 12px;&quot;&gt;&lt;span style=&quot;font-size: 12px;&quot;&gt;data decryption,&lt;/span&gt;&lt;br style=&quot;font-size: 12px;&quot;&gt;&lt;span style=&quot;font-size: 12px;&quot;&gt;збереження даних в БД&lt;/span&gt;" style="edgeLabel;html=1;align=center;verticalAlign=middle;resizable=0;points=[];" connectable="0" vertex="1" parent="W-QrEEKh5oDHu_YkBTrK-27">
          <mxGeometry x="0.1471" y="-2" relative="1" as="geometry">
            <mxPoint x="41" y="3" as="offset" />
          </mxGeometry>
        </mxCell>
        <mxCell id="W-QrEEKh5oDHu_YkBTrK-29" value="&lt;div&gt;&lt;b&gt;&lt;br&gt;&lt;/b&gt;&lt;/div&gt;&lt;b&gt;ДАР&lt;br&gt;&lt;/b&gt;&lt;div&gt;[Software System]&lt;/div&gt;&lt;div&gt;&lt;br&gt;&lt;/div&gt;" style="html=1;whiteSpace=wrap;fillColor=#eeeeee;strokeColor=#36393d;" vertex="1" parent="1">
          <mxGeometry x="1450" y="520" width="170" height="120" as="geometry" />
        </mxCell>
        <mxCell id="W-QrEEKh5oDHu_YkBTrK-30" value="&lt;font style=&quot;font-size: 48px;&quot;&gt;Version #1 System Contect Diagram&lt;/font&gt;" style="text;html=1;align=center;verticalAlign=middle;resizable=0;points=[];autosize=1;strokeColor=none;fillColor=none;" vertex="1" parent="1">
          <mxGeometry x="1125" y="-110" width="800" height="70" as="geometry" />
        </mxCell>
        <mxCell id="W-QrEEKh5oDHu_YkBTrK-32" style="edgeStyle=orthogonalEdgeStyle;rounded=0;orthogonalLoop=1;jettySize=auto;html=1;curved=1;entryX=0.25;entryY=0;entryDx=0;entryDy=0;dashed=1;dashPattern=12 12;" edge="1" parent="1" source="W-QrEEKh5oDHu_YkBTrK-34" target="W-QrEEKh5oDHu_YkBTrK-41">
          <mxGeometry relative="1" as="geometry" />
        </mxCell>
        <mxCell id="W-QrEEKh5oDHu_YkBTrK-33" value="&lt;font style=&quot;font-size: 12px;&quot;&gt;Вивантаження&lt;/font&gt;&lt;div&gt;&lt;font style=&quot;font-size: 12px;&quot;&gt;результатів опитувань&lt;/font&gt;&lt;/div&gt;" style="edgeLabel;html=1;align=center;verticalAlign=middle;resizable=0;points=[];" connectable="0" vertex="1" parent="W-QrEEKh5oDHu_YkBTrK-32">
          <mxGeometry x="-0.1414" y="5" relative="1" as="geometry">
            <mxPoint x="-1" as="offset" />
          </mxGeometry>
        </mxCell>
        <mxCell id="W-QrEEKh5oDHu_YkBTrK-34" value="&lt;div&gt;&lt;br&gt;&lt;/div&gt;&lt;div&gt;&lt;br&gt;&lt;/div&gt;&lt;div&gt;&lt;br&gt;&lt;/div&gt;&lt;div&gt;&lt;br&gt;&lt;/div&gt;&lt;div&gt;&lt;br&gt;&lt;/div&gt;&lt;b&gt;System Administrator&lt;/b&gt;&lt;br&gt;&lt;div&gt;[Person]&lt;/div&gt;" style="shape=actor;whiteSpace=wrap;html=1;fillColor=#cdeb8b;strokeColor=#36393d;" vertex="1" parent="1">
          <mxGeometry x="1280" y="970" width="170" height="190" as="geometry" />
        </mxCell>
        <mxCell id="W-QrEEKh5oDHu_YkBTrK-35" style="edgeStyle=orthogonalEdgeStyle;rounded=0;orthogonalLoop=1;jettySize=auto;html=1;entryX=0.75;entryY=0;entryDx=0;entryDy=0;curved=1;dashed=1;dashPattern=12 12;" edge="1" parent="1" source="W-QrEEKh5oDHu_YkBTrK-37" target="W-QrEEKh5oDHu_YkBTrK-41">
          <mxGeometry relative="1" as="geometry" />
        </mxCell>
        <mxCell id="W-QrEEKh5oDHu_YkBTrK-36" value="&lt;font style=&quot;font-size: 12px;&quot;&gt;Проходження опитувань&lt;/font&gt;" style="edgeLabel;html=1;align=center;verticalAlign=middle;resizable=0;points=[];" connectable="0" vertex="1" parent="W-QrEEKh5oDHu_YkBTrK-35">
          <mxGeometry x="0.1051" y="3" relative="1" as="geometry">
            <mxPoint as="offset" />
          </mxGeometry>
        </mxCell>
        <mxCell id="W-QrEEKh5oDHu_YkBTrK-37" value="&lt;div&gt;&lt;br&gt;&lt;/div&gt;&lt;div&gt;&lt;br&gt;&lt;/div&gt;&lt;div&gt;&lt;br&gt;&lt;/div&gt;&lt;div&gt;&lt;br&gt;&lt;/div&gt;&lt;div&gt;&lt;br&gt;&lt;/div&gt;&lt;b&gt;End-User&lt;/b&gt;&lt;br&gt;&lt;div&gt;[Person]&lt;/div&gt;" style="shape=actor;whiteSpace=wrap;html=1;fillColor=#cdeb8b;strokeColor=#36393d;" vertex="1" parent="1">
          <mxGeometry x="1620" y="970" width="170" height="190" as="geometry" />
        </mxCell>
        <mxCell id="W-QrEEKh5oDHu_YkBTrK-38" style="edgeStyle=orthogonalEdgeStyle;rounded=0;orthogonalLoop=1;jettySize=auto;html=1;exitX=0.75;exitY=1;exitDx=0;exitDy=0;entryX=0.75;entryY=0;entryDx=0;entryDy=0;dashed=1;dashPattern=12 12;" edge="1" parent="1" source="W-QrEEKh5oDHu_YkBTrK-41" target="W-QrEEKh5oDHu_YkBTrK-46">
          <mxGeometry relative="1" as="geometry" />
        </mxCell>
        <mxCell id="W-QrEEKh5oDHu_YkBTrK-39" style="edgeStyle=orthogonalEdgeStyle;rounded=0;orthogonalLoop=1;jettySize=auto;html=1;exitX=0;exitY=0.25;exitDx=0;exitDy=0;entryX=1;entryY=0.25;entryDx=0;entryDy=0;dashed=1;dashPattern=12 12;" edge="1" parent="1" source="W-QrEEKh5oDHu_YkBTrK-41" target="W-QrEEKh5oDHu_YkBTrK-43">
          <mxGeometry relative="1" as="geometry" />
        </mxCell>
        <mxCell id="W-QrEEKh5oDHu_YkBTrK-40" value="&lt;font style=&quot;font-size: 12px;&quot;&gt;Data&amp;nbsp;&lt;br&gt;encryption &amp;amp;&amp;nbsp;&lt;/font&gt;&lt;span style=&quot;font-size: 12px;&quot;&gt;decryption&lt;/span&gt;" style="edgeLabel;html=1;align=center;verticalAlign=middle;resizable=0;points=[];" connectable="0" vertex="1" parent="W-QrEEKh5oDHu_YkBTrK-39">
          <mxGeometry x="0.0714" y="2" relative="1" as="geometry">
            <mxPoint x="5" y="28" as="offset" />
          </mxGeometry>
        </mxCell>
        <mxCell id="W-QrEEKh5oDHu_YkBTrK-41" value="&lt;div&gt;&lt;b&gt;&lt;br&gt;&lt;/b&gt;&lt;/div&gt;&lt;b&gt;&lt;div&gt;&lt;b style=&quot;background-color: transparent; color: light-dark(rgb(0, 0, 0), rgb(255, 255, 255));&quot;&gt;User Profile System&lt;/b&gt;&lt;/div&gt;&lt;/b&gt;&lt;div&gt;[Software System]&lt;/div&gt;&lt;div&gt;&lt;br&gt;&lt;/div&gt;" style="html=1;whiteSpace=wrap;fillColor=#d5e8d4;strokeColor=#82b366;" vertex="1" parent="1">
          <mxGeometry x="1450" y="1280" width="170" height="120" as="geometry" />
        </mxCell>
        <mxCell id="W-QrEEKh5oDHu_YkBTrK-42" style="edgeStyle=orthogonalEdgeStyle;rounded=0;orthogonalLoop=1;jettySize=auto;html=1;exitX=1;exitY=0.75;exitDx=0;exitDy=0;entryX=0;entryY=0.75;entryDx=0;entryDy=0;dashed=1;dashPattern=12 12;" edge="1" parent="1" source="W-QrEEKh5oDHu_YkBTrK-43" target="W-QrEEKh5oDHu_YkBTrK-41">
          <mxGeometry relative="1" as="geometry" />
        </mxCell>
        <mxCell id="W-QrEEKh5oDHu_YkBTrK-43" value="&lt;div&gt;&lt;b&gt;&lt;br&gt;&lt;/b&gt;&lt;/div&gt;&lt;b&gt;&lt;div&gt;ID.GOV.UA&lt;/div&gt;&lt;/b&gt;&lt;div&gt;[Software System]&lt;/div&gt;&lt;div&gt;&lt;br&gt;&lt;/div&gt;" style="html=1;whiteSpace=wrap;fillColor=#eeeeee;strokeColor=#36393d;" vertex="1" parent="1">
          <mxGeometry x="1140" y="1280" width="170" height="120" as="geometry" />
        </mxCell>
        <mxCell id="W-QrEEKh5oDHu_YkBTrK-44" style="edgeStyle=orthogonalEdgeStyle;rounded=0;orthogonalLoop=1;jettySize=auto;html=1;exitX=0.25;exitY=0;exitDx=0;exitDy=0;entryX=0.25;entryY=1;entryDx=0;entryDy=0;dashed=1;dashPattern=12 12;" edge="1" parent="1" source="W-QrEEKh5oDHu_YkBTrK-46" target="W-QrEEKh5oDHu_YkBTrK-41">
          <mxGeometry relative="1" as="geometry" />
        </mxCell>
        <mxCell id="W-QrEEKh5oDHu_YkBTrK-45" value="&lt;span style=&quot;font-size: 12px;&quot;&gt;Авторизація,&amp;nbsp;&lt;/span&gt;&lt;br style=&quot;font-size: 12px;&quot;&gt;&lt;span style=&quot;font-size: 12px;&quot;&gt;повернення даних про користувача&lt;/span&gt;" style="edgeLabel;html=1;align=center;verticalAlign=middle;resizable=0;points=[];" connectable="0" vertex="1" parent="W-QrEEKh5oDHu_YkBTrK-44">
          <mxGeometry x="0.1471" y="-2" relative="1" as="geometry">
            <mxPoint x="41" y="3" as="offset" />
          </mxGeometry>
        </mxCell>
        <mxCell id="W-QrEEKh5oDHu_YkBTrK-46" value="&lt;div&gt;&lt;b&gt;&lt;br&gt;&lt;/b&gt;&lt;/div&gt;&lt;b&gt;ДАР&lt;br&gt;&lt;/b&gt;&lt;div&gt;[Software System]&lt;/div&gt;&lt;div&gt;&lt;br&gt;&lt;/div&gt;" style="html=1;whiteSpace=wrap;fillColor=#eeeeee;strokeColor=#36393d;" vertex="1" parent="1">
          <mxGeometry x="1450" y="1510" width="170" height="120" as="geometry" />
        </mxCell>
        <mxCell id="W-QrEEKh5oDHu_YkBTrK-47" value="&lt;font style=&quot;font-size: 48px;&quot;&gt;Version #2 System Contect Diagram&lt;/font&gt;" style="text;html=1;align=center;verticalAlign=middle;resizable=0;points=[];autosize=1;strokeColor=none;fillColor=none;" vertex="1" parent="1">
          <mxGeometry x="1125" y="880" width="800" height="70" as="geometry" />
        </mxCell>
        <mxCell id="W-QrEEKh5oDHu_YkBTrK-49" style="edgeStyle=orthogonalEdgeStyle;rounded=0;orthogonalLoop=1;jettySize=auto;html=1;curved=1;dashed=1;dashPattern=8 8;" edge="1" parent="1" source="W-QrEEKh5oDHu_YkBTrK-51" target="W-QrEEKh5oDHu_YkBTrK-67">
          <mxGeometry relative="1" as="geometry" />
        </mxCell>
        <mxCell id="W-QrEEKh5oDHu_YkBTrK-50" value="&lt;font style=&quot;font-size: 12px;&quot;&gt;Вивантаження&lt;/font&gt;&lt;div&gt;&lt;font style=&quot;font-size: 12px;&quot;&gt;результатів опитувань&lt;/font&gt;&lt;/div&gt;" style="edgeLabel;html=1;align=center;verticalAlign=middle;resizable=0;points=[];" connectable="0" vertex="1" parent="W-QrEEKh5oDHu_YkBTrK-49">
          <mxGeometry x="-0.1414" y="5" relative="1" as="geometry">
            <mxPoint y="-1" as="offset" />
          </mxGeometry>
        </mxCell>
        <mxCell id="W-QrEEKh5oDHu_YkBTrK-51" value="&lt;div&gt;&lt;br&gt;&lt;/div&gt;&lt;div&gt;&lt;br&gt;&lt;/div&gt;&lt;div&gt;&lt;br&gt;&lt;/div&gt;&lt;div&gt;&lt;br&gt;&lt;/div&gt;&lt;div&gt;&lt;br&gt;&lt;/div&gt;&lt;b&gt;System Administrator&lt;/b&gt;&lt;br&gt;&lt;div&gt;[Person]&lt;/div&gt;" style="shape=actor;whiteSpace=wrap;html=1;fillColor=#cdeb8b;strokeColor=#36393d;" vertex="1" parent="1">
          <mxGeometry x="2105" y="-20" width="170" height="190" as="geometry" />
        </mxCell>
        <mxCell id="W-QrEEKh5oDHu_YkBTrK-52" style="edgeStyle=orthogonalEdgeStyle;rounded=0;orthogonalLoop=1;jettySize=auto;html=1;curved=1;dashed=1;dashPattern=8 8;" edge="1" parent="1" source="W-QrEEKh5oDHu_YkBTrK-54" target="W-QrEEKh5oDHu_YkBTrK-66">
          <mxGeometry relative="1" as="geometry" />
        </mxCell>
        <mxCell id="W-QrEEKh5oDHu_YkBTrK-53" value="&lt;font style=&quot;font-size: 12px;&quot;&gt;Проходження опитувань&lt;/font&gt;" style="edgeLabel;html=1;align=center;verticalAlign=middle;resizable=0;points=[];" connectable="0" vertex="1" parent="W-QrEEKh5oDHu_YkBTrK-52">
          <mxGeometry x="0.1051" y="3" relative="1" as="geometry">
            <mxPoint as="offset" />
          </mxGeometry>
        </mxCell>
        <mxCell id="W-QrEEKh5oDHu_YkBTrK-54" value="&lt;div&gt;&lt;br&gt;&lt;/div&gt;&lt;div&gt;&lt;br&gt;&lt;/div&gt;&lt;div&gt;&lt;br&gt;&lt;/div&gt;&lt;div&gt;&lt;br&gt;&lt;/div&gt;&lt;div&gt;&lt;br&gt;&lt;/div&gt;&lt;b&gt;End-User&lt;/b&gt;&lt;br&gt;&lt;div&gt;[Person]&lt;/div&gt;" style="shape=actor;whiteSpace=wrap;html=1;fillColor=#cdeb8b;strokeColor=#36393d;" vertex="1" parent="1">
          <mxGeometry x="2445" y="-20" width="170" height="190" as="geometry" />
        </mxCell>
        <mxCell id="W-QrEEKh5oDHu_YkBTrK-55" style="edgeStyle=orthogonalEdgeStyle;rounded=0;orthogonalLoop=1;jettySize=auto;html=1;entryX=0.25;entryY=0;entryDx=0;entryDy=0;exitX=0.25;exitY=1;exitDx=0;exitDy=0;curved=1;dashed=1;dashPattern=12 12;" edge="1" parent="1" source="W-QrEEKh5oDHu_YkBTrK-58" target="W-QrEEKh5oDHu_YkBTrK-63">
          <mxGeometry relative="1" as="geometry">
            <mxPoint x="2572" y="550" as="sourcePoint" />
          </mxGeometry>
        </mxCell>
        <mxCell id="W-QrEEKh5oDHu_YkBTrK-58" value="&lt;div&gt;&lt;b&gt;&lt;br&gt;&lt;/b&gt;&lt;/div&gt;&lt;b&gt;&lt;div&gt;&lt;b style=&quot;background-color: transparent; color: light-dark(rgb(0, 0, 0), rgb(255, 255, 255));&quot;&gt;API Application&lt;/b&gt;&lt;/div&gt;&lt;/b&gt;&lt;div&gt;[Software System: Node, NestJS, TS]&lt;/div&gt;&lt;div&gt;Виступає в ролі проксі між заповненням акети, збереження в системі ДАР, та вивантаженням в PDF&lt;/div&gt;" style="html=1;whiteSpace=wrap;fillColor=#dae8fc;strokeColor=#6c8ebf;" vertex="1" parent="1">
          <mxGeometry x="2445" y="420" width="170" height="120" as="geometry" />
        </mxCell>
        <mxCell id="W-QrEEKh5oDHu_YkBTrK-194" style="edgeStyle=orthogonalEdgeStyle;rounded=0;orthogonalLoop=1;jettySize=auto;html=1;exitX=0;exitY=0.75;exitDx=0;exitDy=0;entryX=1;entryY=0.75;entryDx=0;entryDy=0;curved=1;dashed=1;dashPattern=12 12;" edge="1" parent="1" source="W-QrEEKh5oDHu_YkBTrK-60" target="W-QrEEKh5oDHu_YkBTrK-66">
          <mxGeometry relative="1" as="geometry" />
        </mxCell>
        <mxCell id="W-QrEEKh5oDHu_YkBTrK-60" value="&lt;div&gt;&lt;b&gt;&lt;br&gt;&lt;/b&gt;&lt;/div&gt;&lt;b&gt;&lt;div&gt;ID.GOV.UA&lt;/div&gt;&lt;/b&gt;&lt;div&gt;[Software System]&lt;/div&gt;&lt;div&gt;&lt;br&gt;&lt;/div&gt;" style="html=1;whiteSpace=wrap;fillColor=#eeeeee;strokeColor=#36393d;" vertex="1" parent="1">
          <mxGeometry x="2740" y="190" width="170" height="120" as="geometry" />
        </mxCell>
        <mxCell id="W-QrEEKh5oDHu_YkBTrK-61" style="edgeStyle=orthogonalEdgeStyle;rounded=0;orthogonalLoop=1;jettySize=auto;html=1;exitX=0.75;exitY=0;exitDx=0;exitDy=0;entryX=0.75;entryY=1;entryDx=0;entryDy=0;curved=1;dashed=1;dashPattern=12 12;" edge="1" parent="1" source="W-QrEEKh5oDHu_YkBTrK-63" target="W-QrEEKh5oDHu_YkBTrK-58">
          <mxGeometry relative="1" as="geometry">
            <mxPoint x="2485" y="540" as="targetPoint" />
          </mxGeometry>
        </mxCell>
        <mxCell id="W-QrEEKh5oDHu_YkBTrK-62" value="&lt;span style=&quot;font-size: 12px;&quot;&gt;Авторизація,&amp;nbsp;&lt;/span&gt;&lt;br style=&quot;font-size: 12px;&quot;&gt;&lt;span style=&quot;font-size: 12px;&quot;&gt;повернення даних про користувача,&lt;/span&gt;&lt;br style=&quot;font-size: 12px;&quot;&gt;&lt;span style=&quot;font-size: 12px;&quot;&gt;data decryption,&lt;/span&gt;&lt;br style=&quot;font-size: 12px;&quot;&gt;&lt;span style=&quot;font-size: 12px;&quot;&gt;збереження даних в БД&lt;/span&gt;" style="edgeLabel;html=1;align=center;verticalAlign=middle;resizable=0;points=[];" connectable="0" vertex="1" parent="W-QrEEKh5oDHu_YkBTrK-61">
          <mxGeometry x="0.1471" y="-2" relative="1" as="geometry">
            <mxPoint x="-44" y="14" as="offset" />
          </mxGeometry>
        </mxCell>
        <mxCell id="W-QrEEKh5oDHu_YkBTrK-63" value="&lt;div&gt;&lt;b&gt;&lt;br&gt;&lt;/b&gt;&lt;/div&gt;&lt;b&gt;ДАР&lt;br&gt;&lt;/b&gt;&lt;div&gt;[Software System]&lt;/div&gt;&lt;div&gt;&lt;br&gt;&lt;/div&gt;" style="html=1;whiteSpace=wrap;fillColor=#eeeeee;strokeColor=#36393d;" vertex="1" parent="1">
          <mxGeometry x="2445" y="650" width="170" height="120" as="geometry" />
        </mxCell>
        <mxCell id="W-QrEEKh5oDHu_YkBTrK-64" value="&lt;font style=&quot;font-size: 48px;&quot;&gt;Version #1 Container Diagram&lt;/font&gt;" style="text;html=1;align=center;verticalAlign=middle;resizable=0;points=[];autosize=1;strokeColor=none;fillColor=none;" vertex="1" parent="1">
          <mxGeometry x="2130" y="-110" width="670" height="70" as="geometry" />
        </mxCell>
        <mxCell id="W-QrEEKh5oDHu_YkBTrK-66" value="&lt;b&gt;Questionnaire App&lt;/b&gt;&lt;br&gt;&lt;div&gt;&lt;font style=&quot;font-size: 11px;&quot;&gt;[Container: Angular &amp;amp; TS]&lt;/font&gt;&lt;/div&gt;&lt;div&gt;&lt;font style=&quot;font-size: 11px;&quot;&gt;Створює форму анкетування, та відправляє заповнені дані&lt;/font&gt;&lt;/div&gt;" style="rounded=1;whiteSpace=wrap;html=1;fillColor=#b0e3e6;strokeColor=#0e8088;" vertex="1" parent="1">
          <mxGeometry x="2430" y="240" width="200" height="100" as="geometry" />
        </mxCell>
        <mxCell id="W-QrEEKh5oDHu_YkBTrK-69" style="edgeStyle=orthogonalEdgeStyle;rounded=0;orthogonalLoop=1;jettySize=auto;html=1;exitX=0.5;exitY=1;exitDx=0;exitDy=0;curved=1;dashed=1;dashPattern=12 12;" edge="1" parent="1" source="W-QrEEKh5oDHu_YkBTrK-67" target="W-QrEEKh5oDHu_YkBTrK-68">
          <mxGeometry relative="1" as="geometry" />
        </mxCell>
        <mxCell id="W-QrEEKh5oDHu_YkBTrK-70" value="Передача даних анкети" style="edgeLabel;html=1;align=center;verticalAlign=middle;resizable=0;points=[];" connectable="0" vertex="1" parent="W-QrEEKh5oDHu_YkBTrK-69">
          <mxGeometry x="-0.1156" relative="1" as="geometry">
            <mxPoint as="offset" />
          </mxGeometry>
        </mxCell>
        <mxCell id="W-QrEEKh5oDHu_YkBTrK-67" value="&lt;b&gt;Admin Panel App&lt;/b&gt;&lt;div&gt;&lt;font style=&quot;font-size: 11px;&quot;&gt;[Container: Angular &amp;amp; TS]&lt;/font&gt;&lt;/div&gt;&lt;div&gt;&lt;font style=&quot;font-size: 11px;&quot;&gt;Надає змогу вивантажити анкету в форматі PDF&lt;/font&gt;&lt;/div&gt;" style="rounded=1;whiteSpace=wrap;html=1;fillColor=#b0e3e6;strokeColor=#0e8088;" vertex="1" parent="1">
          <mxGeometry x="2090" y="240" width="200" height="100" as="geometry" />
        </mxCell>
        <mxCell id="W-QrEEKh5oDHu_YkBTrK-68" value="&lt;b&gt;PDF Generate Servise&lt;/b&gt;&lt;div&gt;&lt;font style=&quot;font-size: 11px;&quot;&gt;[Container: TS]&lt;/font&gt;&lt;/div&gt;&lt;div&gt;Відповадає за перетворення збережених даних анкети в довідку формату PDF&lt;/div&gt;" style="rounded=1;whiteSpace=wrap;html=1;fillColor=#b0e3e6;strokeColor=#0e8088;" vertex="1" parent="1">
          <mxGeometry x="2090" y="420" width="200" height="100" as="geometry" />
        </mxCell>
        <mxCell id="W-QrEEKh5oDHu_YkBTrK-71" style="edgeStyle=orthogonalEdgeStyle;rounded=0;orthogonalLoop=1;jettySize=auto;html=1;entryX=0;entryY=0.25;entryDx=0;entryDy=0;curved=1;dashed=1;dashPattern=12 12;exitX=1;exitY=0.5;exitDx=0;exitDy=0;" edge="1" parent="1" source="W-QrEEKh5oDHu_YkBTrK-67" target="W-QrEEKh5oDHu_YkBTrK-58">
          <mxGeometry relative="1" as="geometry">
            <mxPoint x="2346.5299999999997" y="380" as="sourcePoint" />
            <mxPoint x="2429.5299999999997" y="460" as="targetPoint" />
          </mxGeometry>
        </mxCell>
        <mxCell id="W-QrEEKh5oDHu_YkBTrK-72" value="&lt;span style=&quot;font-size: 12px;&quot;&gt;Makes API calls to&lt;/span&gt;&lt;br style=&quot;font-size: 12px;&quot;&gt;&lt;span style=&quot;font-size: 12px;&quot;&gt;[JSON/HTTPS]&lt;/span&gt;" style="edgeLabel;html=1;align=center;verticalAlign=middle;resizable=0;points=[];" connectable="0" vertex="1" parent="W-QrEEKh5oDHu_YkBTrK-71">
          <mxGeometry x="0.0661" y="1" relative="1" as="geometry">
            <mxPoint as="offset" />
          </mxGeometry>
        </mxCell>
        <mxCell id="W-QrEEKh5oDHu_YkBTrK-75" style="edgeStyle=orthogonalEdgeStyle;rounded=0;orthogonalLoop=1;jettySize=auto;html=1;curved=1;dashed=1;dashPattern=12 12;exitX=0.5;exitY=1;exitDx=0;exitDy=0;" edge="1" parent="1" source="W-QrEEKh5oDHu_YkBTrK-66" target="W-QrEEKh5oDHu_YkBTrK-58">
          <mxGeometry relative="1" as="geometry">
            <mxPoint x="2666" y="380" as="sourcePoint" />
            <mxPoint x="2749" y="460" as="targetPoint" />
          </mxGeometry>
        </mxCell>
        <mxCell id="W-QrEEKh5oDHu_YkBTrK-76" value="&lt;span style=&quot;font-size: 12px;&quot;&gt;Makes API calls to&lt;/span&gt;&lt;br style=&quot;font-size: 12px;&quot;&gt;&lt;span style=&quot;font-size: 12px;&quot;&gt;[JSON/HTTPS]&lt;/span&gt;" style="edgeLabel;html=1;align=center;verticalAlign=middle;resizable=0;points=[];" connectable="0" vertex="1" parent="W-QrEEKh5oDHu_YkBTrK-75">
          <mxGeometry x="0.0661" y="1" relative="1" as="geometry">
            <mxPoint x="-1" y="-2" as="offset" />
          </mxGeometry>
        </mxCell>
        <mxCell id="W-QrEEKh5oDHu_YkBTrK-83" style="edgeStyle=orthogonalEdgeStyle;rounded=0;orthogonalLoop=1;jettySize=auto;html=1;exitX=1;exitY=0.5;exitDx=0;exitDy=0;entryX=0.007;entryY=0.393;entryDx=0;entryDy=0;curved=1;strokeWidth=3;strokeColor=#87FFA3;entryPerimeter=0;" edge="1" parent="1" source="W-QrEEKh5oDHu_YkBTrK-81" target="W-QrEEKh5oDHu_YkBTrK-82">
          <mxGeometry relative="1" as="geometry" />
        </mxCell>
        <mxCell id="W-QrEEKh5oDHu_YkBTrK-81" value="" style="rounded=1;whiteSpace=wrap;html=1;fillColor=none;strokeColor=#87FFA3;strokeWidth=3;" vertex="1" parent="1">
          <mxGeometry x="1440" y="270" width="190" height="160" as="geometry" />
        </mxCell>
        <mxCell id="W-QrEEKh5oDHu_YkBTrK-92" value="&lt;font style=&quot;font-size: 48px;&quot;&gt;Version #2 Container Diagram&lt;/font&gt;" style="text;html=1;align=center;verticalAlign=middle;resizable=0;points=[];autosize=1;strokeColor=none;fillColor=none;" vertex="1" parent="1">
          <mxGeometry x="2207.5" y="860" width="670" height="70" as="geometry" />
        </mxCell>
        <mxCell id="W-QrEEKh5oDHu_YkBTrK-203" style="edgeStyle=orthogonalEdgeStyle;rounded=0;orthogonalLoop=1;jettySize=auto;html=1;exitX=1;exitY=0.5;exitDx=0;exitDy=0;entryX=0;entryY=0.25;entryDx=0;entryDy=0;curved=1;dashed=1;dashPattern=12 12;" edge="1" parent="1" source="W-QrEEKh5oDHu_YkBTrK-93" target="W-QrEEKh5oDHu_YkBTrK-131">
          <mxGeometry relative="1" as="geometry">
            <Array as="points">
              <mxPoint x="2780" y="1290" />
              <mxPoint x="2780" y="1330" />
            </Array>
          </mxGeometry>
        </mxCell>
        <mxCell id="W-QrEEKh5oDHu_YkBTrK-204" value="&lt;span style=&quot;font-size: 12px;&quot;&gt;Data&amp;nbsp;&lt;/span&gt;&lt;br style=&quot;font-size: 12px;&quot;&gt;&lt;span style=&quot;font-size: 12px;&quot;&gt;encryption&lt;/span&gt;" style="edgeLabel;html=1;align=center;verticalAlign=middle;resizable=0;points=[];" connectable="0" vertex="1" parent="W-QrEEKh5oDHu_YkBTrK-203">
          <mxGeometry x="0.0979" y="6" relative="1" as="geometry">
            <mxPoint x="-16" as="offset" />
          </mxGeometry>
        </mxCell>
        <mxCell id="W-QrEEKh5oDHu_YkBTrK-93" value="&lt;b&gt;Questionnaire App&lt;/b&gt;&lt;br&gt;&lt;div&gt;&lt;font style=&quot;font-size: 11px;&quot;&gt;[Container: Angular &amp;amp; TS]&lt;/font&gt;&lt;/div&gt;&lt;div&gt;&lt;font style=&quot;font-size: 11px;&quot;&gt;Створює форму анкетування, та відправляє заповнені дані&lt;/font&gt;&lt;/div&gt;" style="rounded=1;whiteSpace=wrap;html=1;fillColor=#b0e3e6;strokeColor=#0e8088;" vertex="1" parent="1">
          <mxGeometry x="2510" y="1240" width="200" height="100" as="geometry" />
        </mxCell>
        <mxCell id="W-QrEEKh5oDHu_YkBTrK-151" style="edgeStyle=orthogonalEdgeStyle;rounded=0;orthogonalLoop=1;jettySize=auto;html=1;exitX=0.5;exitY=1;exitDx=0;exitDy=0;dashed=1;dashPattern=12 12;" edge="1" parent="1" source="W-QrEEKh5oDHu_YkBTrK-94" target="W-QrEEKh5oDHu_YkBTrK-95">
          <mxGeometry relative="1" as="geometry" />
        </mxCell>
        <mxCell id="W-QrEEKh5oDHu_YkBTrK-152" value="&lt;font style=&quot;font-size: 12px;&quot;&gt;Передача даних анкети&lt;/font&gt;" style="edgeLabel;html=1;align=center;verticalAlign=middle;resizable=0;points=[];" connectable="0" vertex="1" parent="W-QrEEKh5oDHu_YkBTrK-151">
          <mxGeometry x="-0.0129" y="-1" relative="1" as="geometry">
            <mxPoint as="offset" />
          </mxGeometry>
        </mxCell>
        <mxCell id="W-QrEEKh5oDHu_YkBTrK-94" value="&lt;b&gt;Admin Panel App&lt;/b&gt;&lt;div&gt;&lt;font style=&quot;font-size: 11px;&quot;&gt;[Container: Angular &amp;amp; TS]&lt;/font&gt;&lt;/div&gt;&lt;div&gt;&lt;font style=&quot;font-size: 11px;&quot;&gt;Надає змогу вивантажити анкету в форматі PDF&lt;/font&gt;&lt;/div&gt;" style="rounded=1;whiteSpace=wrap;html=1;fillColor=#b0e3e6;strokeColor=#0e8088;" vertex="1" parent="1">
          <mxGeometry x="2170" y="1240" width="200" height="100" as="geometry" />
        </mxCell>
        <mxCell id="W-QrEEKh5oDHu_YkBTrK-95" value="&lt;b&gt;PDF Generate Servise&lt;/b&gt;&lt;div&gt;&lt;font style=&quot;font-size: 11px;&quot;&gt;[Container: TS]&lt;/font&gt;&lt;/div&gt;&lt;div&gt;Відповадає за перетворення збережених даних анкети в довідку формату PDF&lt;/div&gt;" style="rounded=1;whiteSpace=wrap;html=1;fillColor=#b0e3e6;strokeColor=#0e8088;" vertex="1" parent="1">
          <mxGeometry x="2170" y="1440" width="200" height="100" as="geometry" />
        </mxCell>
        <mxCell id="W-QrEEKh5oDHu_YkBTrK-96" style="edgeStyle=orthogonalEdgeStyle;rounded=0;orthogonalLoop=1;jettySize=auto;html=1;curved=1;dashed=1;dashPattern=12 12;exitX=0.5;exitY=1;exitDx=0;exitDy=0;" edge="1" parent="1" source="W-QrEEKh5oDHu_YkBTrK-98" target="W-QrEEKh5oDHu_YkBTrK-94">
          <mxGeometry relative="1" as="geometry">
            <mxPoint x="2398" y="1280" as="targetPoint" />
          </mxGeometry>
        </mxCell>
        <mxCell id="W-QrEEKh5oDHu_YkBTrK-97" value="&lt;font style=&quot;font-size: 12px;&quot;&gt;Вивантаження&lt;/font&gt;&lt;div&gt;&lt;font style=&quot;font-size: 12px;&quot;&gt;результатів опитувань&lt;/font&gt;&lt;/div&gt;" style="edgeLabel;html=1;align=center;verticalAlign=middle;resizable=0;points=[];" connectable="0" vertex="1" parent="W-QrEEKh5oDHu_YkBTrK-96">
          <mxGeometry x="-0.1414" y="5" relative="1" as="geometry">
            <mxPoint x="-1" as="offset" />
          </mxGeometry>
        </mxCell>
        <mxCell id="W-QrEEKh5oDHu_YkBTrK-98" value="&lt;div&gt;&lt;br&gt;&lt;/div&gt;&lt;div&gt;&lt;br&gt;&lt;/div&gt;&lt;div&gt;&lt;br&gt;&lt;/div&gt;&lt;div&gt;&lt;br&gt;&lt;/div&gt;&lt;div&gt;&lt;br&gt;&lt;/div&gt;&lt;b&gt;System Administrator&lt;/b&gt;&lt;br&gt;&lt;div&gt;[Person]&lt;/div&gt;" style="shape=actor;whiteSpace=wrap;html=1;fillColor=#cdeb8b;strokeColor=#36393d;" vertex="1" parent="1">
          <mxGeometry x="2185" y="970" width="170" height="190" as="geometry" />
        </mxCell>
        <mxCell id="W-QrEEKh5oDHu_YkBTrK-99" style="edgeStyle=orthogonalEdgeStyle;rounded=0;orthogonalLoop=1;jettySize=auto;html=1;entryX=0.5;entryY=0;entryDx=0;entryDy=0;curved=1;dashed=1;dashPattern=12 12;exitX=0.5;exitY=1;exitDx=0;exitDy=0;" edge="1" parent="1" source="W-QrEEKh5oDHu_YkBTrK-101" target="W-QrEEKh5oDHu_YkBTrK-93">
          <mxGeometry relative="1" as="geometry">
            <mxPoint x="2483" y="1280" as="targetPoint" />
          </mxGeometry>
        </mxCell>
        <mxCell id="W-QrEEKh5oDHu_YkBTrK-100" value="&lt;font style=&quot;font-size: 12px;&quot;&gt;Проходження опитувань&lt;/font&gt;" style="edgeLabel;html=1;align=center;verticalAlign=middle;resizable=0;points=[];" connectable="0" vertex="1" parent="W-QrEEKh5oDHu_YkBTrK-99">
          <mxGeometry x="0.1051" y="3" relative="1" as="geometry">
            <mxPoint as="offset" />
          </mxGeometry>
        </mxCell>
        <mxCell id="W-QrEEKh5oDHu_YkBTrK-101" value="&lt;div&gt;&lt;br&gt;&lt;/div&gt;&lt;div&gt;&lt;br&gt;&lt;/div&gt;&lt;div&gt;&lt;br&gt;&lt;/div&gt;&lt;div&gt;&lt;br&gt;&lt;/div&gt;&lt;div&gt;&lt;br&gt;&lt;/div&gt;&lt;b&gt;End-User&lt;/b&gt;&lt;br&gt;&lt;div&gt;[Person]&lt;/div&gt;" style="shape=actor;whiteSpace=wrap;html=1;fillColor=#cdeb8b;strokeColor=#36393d;" vertex="1" parent="1">
          <mxGeometry x="2525" y="970" width="170" height="190" as="geometry" />
        </mxCell>
        <mxCell id="W-QrEEKh5oDHu_YkBTrK-201" style="edgeStyle=orthogonalEdgeStyle;rounded=0;orthogonalLoop=1;jettySize=auto;html=1;exitX=1;exitY=0.25;exitDx=0;exitDy=0;entryX=0.5;entryY=1;entryDx=0;entryDy=0;curved=1;dashed=1;dashPattern=12 12;" edge="1" parent="1" source="W-QrEEKh5oDHu_YkBTrK-104" target="W-QrEEKh5oDHu_YkBTrK-131">
          <mxGeometry relative="1" as="geometry" />
        </mxCell>
        <mxCell id="W-QrEEKh5oDHu_YkBTrK-202" value="&lt;font style=&quot;font-size: 12px;&quot;&gt;Data&amp;nbsp;&lt;br&gt;&lt;/font&gt;&lt;span style=&quot;font-size: 12px;&quot;&gt;decryption&lt;/span&gt;" style="edgeLabel;html=1;align=center;verticalAlign=middle;resizable=0;points=[];" connectable="0" vertex="1" parent="W-QrEEKh5oDHu_YkBTrK-201">
          <mxGeometry x="-0.0243" y="11" relative="1" as="geometry">
            <mxPoint as="offset" />
          </mxGeometry>
        </mxCell>
        <mxCell id="W-QrEEKh5oDHu_YkBTrK-104" value="&lt;div&gt;&lt;b&gt;&lt;br&gt;&lt;/b&gt;&lt;/div&gt;&lt;b&gt;&lt;div&gt;&lt;b style=&quot;background-color: transparent; color: light-dark(rgb(0, 0, 0), rgb(255, 255, 255));&quot;&gt;API Application&lt;/b&gt;&lt;/div&gt;&lt;/b&gt;&lt;div&gt;[Software System:&lt;span style=&quot;background-color: transparent; color: light-dark(rgb(0, 0, 0), rgb(255, 255, 255));&quot;&gt;&amp;nbsp;Node, NestJS, TS&lt;/span&gt;&lt;span style=&quot;background-color: transparent; color: light-dark(rgb(0, 0, 0), rgb(255, 255, 255));&quot;&gt;]&lt;/span&gt;&lt;/div&gt;&lt;div&gt;Система менеджменту анкетувань&lt;/div&gt;" style="html=1;whiteSpace=wrap;fillColor=#dae8fc;strokeColor=#6c8ebf;" vertex="1" parent="1">
          <mxGeometry x="2502.5" y="1450" width="170" height="120" as="geometry" />
        </mxCell>
        <mxCell id="W-QrEEKh5oDHu_YkBTrK-105" style="edgeStyle=orthogonalEdgeStyle;rounded=0;orthogonalLoop=1;jettySize=auto;html=1;curved=1;dashed=1;dashPattern=12 12;exitX=0.5;exitY=1;exitDx=0;exitDy=0;entryX=0.75;entryY=0;entryDx=0;entryDy=0;" edge="1" parent="1" source="W-QrEEKh5oDHu_YkBTrK-93" target="W-QrEEKh5oDHu_YkBTrK-104">
          <mxGeometry relative="1" as="geometry">
            <mxPoint x="2488.27" y="1360" as="sourcePoint" />
            <mxPoint x="2571.27" y="1440" as="targetPoint" />
          </mxGeometry>
        </mxCell>
        <mxCell id="W-QrEEKh5oDHu_YkBTrK-106" value="&lt;span style=&quot;font-size: 12px;&quot;&gt;Makes API calls to&lt;/span&gt;&lt;br style=&quot;font-size: 12px;&quot;&gt;&lt;span style=&quot;font-size: 12px;&quot;&gt;[JSON/HTTPS]&lt;/span&gt;" style="edgeLabel;html=1;align=center;verticalAlign=middle;resizable=0;points=[];" connectable="0" vertex="1" parent="W-QrEEKh5oDHu_YkBTrK-105">
          <mxGeometry x="0.0661" y="1" relative="1" as="geometry">
            <mxPoint as="offset" />
          </mxGeometry>
        </mxCell>
        <mxCell id="W-QrEEKh5oDHu_YkBTrK-107" style="edgeStyle=orthogonalEdgeStyle;rounded=0;orthogonalLoop=1;jettySize=auto;html=1;entryX=0.25;entryY=0;entryDx=0;entryDy=0;curved=1;dashed=1;dashPattern=12 12;exitX=1;exitY=0.5;exitDx=0;exitDy=0;" edge="1" parent="1" source="W-QrEEKh5oDHu_YkBTrK-94" target="W-QrEEKh5oDHu_YkBTrK-104">
          <mxGeometry relative="1" as="geometry">
            <mxPoint x="2370" y="1420" as="sourcePoint" />
            <mxPoint x="2453" y="1500" as="targetPoint" />
            <Array as="points">
              <mxPoint x="2400" y="1290" />
              <mxPoint x="2400" y="1370" />
              <mxPoint x="2545" y="1370" />
            </Array>
          </mxGeometry>
        </mxCell>
        <mxCell id="W-QrEEKh5oDHu_YkBTrK-108" value="&lt;span style=&quot;font-size: 12px;&quot;&gt;Makes API calls to&lt;/span&gt;&lt;br style=&quot;font-size: 12px;&quot;&gt;&lt;span style=&quot;font-size: 12px;&quot;&gt;[JSON/HTTPS]&lt;/span&gt;" style="edgeLabel;html=1;align=center;verticalAlign=middle;resizable=0;points=[];" connectable="0" vertex="1" parent="W-QrEEKh5oDHu_YkBTrK-107">
          <mxGeometry x="0.0661" y="1" relative="1" as="geometry">
            <mxPoint x="-6" y="1" as="offset" />
          </mxGeometry>
        </mxCell>
        <mxCell id="W-QrEEKh5oDHu_YkBTrK-109" value="&lt;b&gt;Database&lt;/b&gt;&lt;div&gt;[Container: MongeDB]&lt;br&gt;Stores questionnaires&lt;/div&gt;" style="shape=cylinder3;whiteSpace=wrap;html=1;boundedLbl=1;backgroundOutline=1;size=15;fillColor=#d5e8d4;strokeColor=#82b366;" vertex="1" parent="1">
          <mxGeometry x="2190" y="1660" width="160" height="140" as="geometry" />
        </mxCell>
        <mxCell id="W-QrEEKh5oDHu_YkBTrK-110" value="&lt;b&gt;Database&lt;/b&gt;&lt;div&gt;[Container: Redis]&lt;br&gt;Stores temporary &lt;br&gt;information, user session&lt;/div&gt;" style="shape=cylinder3;whiteSpace=wrap;html=1;boundedLbl=1;backgroundOutline=1;size=15;fillColor=#d5e8d4;strokeColor=#82b366;" vertex="1" parent="1">
          <mxGeometry x="2465" y="1660" width="160" height="140" as="geometry" />
        </mxCell>
        <mxCell id="W-QrEEKh5oDHu_YkBTrK-115" style="edgeStyle=orthogonalEdgeStyle;rounded=0;orthogonalLoop=1;jettySize=auto;html=1;dashed=1;dashPattern=12 12;curved=1;exitX=0.25;exitY=1;exitDx=0;exitDy=0;entryX=0.5;entryY=0;entryDx=0;entryDy=0;entryPerimeter=0;" edge="1" parent="1" source="W-QrEEKh5oDHu_YkBTrK-104" target="W-QrEEKh5oDHu_YkBTrK-110">
          <mxGeometry relative="1" as="geometry">
            <mxPoint x="2690" y="1560" as="sourcePoint" />
            <mxPoint x="2725" y="1710" as="targetPoint" />
          </mxGeometry>
        </mxCell>
        <mxCell id="W-QrEEKh5oDHu_YkBTrK-116" value="Reads from and&lt;br&gt;writes to" style="edgeLabel;html=1;align=center;verticalAlign=middle;resizable=0;points=[];" connectable="0" vertex="1" parent="W-QrEEKh5oDHu_YkBTrK-115">
          <mxGeometry x="-0.1144" y="4" relative="1" as="geometry">
            <mxPoint as="offset" />
          </mxGeometry>
        </mxCell>
        <mxCell id="W-QrEEKh5oDHu_YkBTrK-117" style="edgeStyle=orthogonalEdgeStyle;rounded=0;orthogonalLoop=1;jettySize=auto;html=1;dashed=1;dashPattern=12 12;curved=1;exitX=0;exitY=1;exitDx=0;exitDy=0;" edge="1" parent="1" source="W-QrEEKh5oDHu_YkBTrK-104" target="W-QrEEKh5oDHu_YkBTrK-109">
          <mxGeometry relative="1" as="geometry">
            <mxPoint x="2370" y="1580" as="sourcePoint" />
            <mxPoint x="2405" y="1730" as="targetPoint" />
            <Array as="points">
              <mxPoint x="2503" y="1600" />
              <mxPoint x="2270" y="1600" />
            </Array>
          </mxGeometry>
        </mxCell>
        <mxCell id="W-QrEEKh5oDHu_YkBTrK-118" value="Reads from and&lt;br&gt;writes to" style="edgeLabel;html=1;align=center;verticalAlign=middle;resizable=0;points=[];" connectable="0" vertex="1" parent="W-QrEEKh5oDHu_YkBTrK-117">
          <mxGeometry x="-0.1144" y="4" relative="1" as="geometry">
            <mxPoint as="offset" />
          </mxGeometry>
        </mxCell>
        <mxCell id="W-QrEEKh5oDHu_YkBTrK-123" style="edgeStyle=orthogonalEdgeStyle;rounded=0;orthogonalLoop=1;jettySize=auto;html=1;exitX=1;exitY=0.5;exitDx=0;exitDy=0;entryX=0;entryY=0.25;entryDx=0;entryDy=0;curved=1;dashed=1;dashPattern=12 12;strokeWidth=3;strokeColor=#87FFA3;" edge="1" parent="1" source="W-QrEEKh5oDHu_YkBTrK-119" target="W-QrEEKh5oDHu_YkBTrK-120">
          <mxGeometry relative="1" as="geometry" />
        </mxCell>
        <mxCell id="W-QrEEKh5oDHu_YkBTrK-131" value="&lt;div&gt;&lt;b&gt;&lt;br&gt;&lt;/b&gt;&lt;/div&gt;&lt;b&gt;&lt;div&gt;ID.GOV.UA&lt;/div&gt;&lt;/b&gt;&lt;div&gt;[Software System]&lt;/div&gt;&lt;div&gt;&lt;br&gt;&lt;/div&gt;" style="html=1;whiteSpace=wrap;fillColor=#eeeeee;strokeColor=#36393d;" vertex="1" parent="1">
          <mxGeometry x="2830" y="1300" width="170" height="120" as="geometry" />
        </mxCell>
        <mxCell id="W-QrEEKh5oDHu_YkBTrK-143" style="edgeStyle=orthogonalEdgeStyle;rounded=0;orthogonalLoop=1;jettySize=auto;html=1;exitX=1;exitY=0.75;exitDx=0;exitDy=0;entryX=0;entryY=0.5;entryDx=0;entryDy=0;dashed=1;dashPattern=12 12;curved=1;" edge="1" parent="1" source="W-QrEEKh5oDHu_YkBTrK-104" target="W-QrEEKh5oDHu_YkBTrK-146">
          <mxGeometry relative="1" as="geometry">
            <mxPoint x="2918" y="1155" as="sourcePoint" />
            <Array as="points">
              <mxPoint x="2730" y="1540" />
              <mxPoint x="2730" y="1740" />
            </Array>
          </mxGeometry>
        </mxCell>
        <mxCell id="W-QrEEKh5oDHu_YkBTrK-144" style="edgeStyle=orthogonalEdgeStyle;rounded=0;orthogonalLoop=1;jettySize=auto;html=1;exitX=0;exitY=0.25;exitDx=0;exitDy=0;entryX=1;entryY=0.5;entryDx=0;entryDy=0;dashed=1;dashPattern=12 12;curved=1;" edge="1" parent="1" source="W-QrEEKh5oDHu_YkBTrK-146" target="W-QrEEKh5oDHu_YkBTrK-104">
          <mxGeometry relative="1" as="geometry">
            <mxPoint x="2833" y="1155" as="targetPoint" />
            <Array as="points">
              <mxPoint x="2760" y="1710" />
              <mxPoint x="2760" y="1510" />
            </Array>
          </mxGeometry>
        </mxCell>
        <mxCell id="W-QrEEKh5oDHu_YkBTrK-145" value="&lt;span style=&quot;font-size: 12px;&quot;&gt;Авторизація,&amp;nbsp;&lt;/span&gt;&lt;br style=&quot;font-size: 12px;&quot;&gt;&lt;span style=&quot;font-size: 12px;&quot;&gt;повернення даних &lt;br&gt;про користувача&lt;/span&gt;" style="edgeLabel;html=1;align=center;verticalAlign=middle;resizable=0;points=[];" connectable="0" vertex="1" parent="W-QrEEKh5oDHu_YkBTrK-144">
          <mxGeometry x="0.1471" y="-2" relative="1" as="geometry">
            <mxPoint x="-2" y="59" as="offset" />
          </mxGeometry>
        </mxCell>
        <mxCell id="W-QrEEKh5oDHu_YkBTrK-146" value="&lt;div&gt;&lt;b&gt;&lt;br&gt;&lt;/b&gt;&lt;/div&gt;&lt;b&gt;ДАР&lt;br&gt;&lt;/b&gt;&lt;div&gt;[Software System]&lt;/div&gt;&lt;div&gt;&lt;br&gt;&lt;/div&gt;" style="html=1;whiteSpace=wrap;fillColor=#eeeeee;strokeColor=#36393d;" vertex="1" parent="1">
          <mxGeometry x="2820" y="1680" width="170" height="120" as="geometry" />
        </mxCell>
        <mxCell id="W-QrEEKh5oDHu_YkBTrK-161" style="edgeStyle=orthogonalEdgeStyle;rounded=0;orthogonalLoop=1;jettySize=auto;html=1;entryX=0;entryY=0.25;entryDx=0;entryDy=0;curved=1;dashed=1;dashPattern=12 12;exitX=1;exitY=0.25;exitDx=0;exitDy=0;" edge="1" parent="1" source="W-QrEEKh5oDHu_YkBTrK-163" target="W-QrEEKh5oDHu_YkBTrK-168">
          <mxGeometry relative="1" as="geometry">
            <mxPoint x="3905" y="479.97" as="sourcePoint" />
          </mxGeometry>
        </mxCell>
        <mxCell id="W-QrEEKh5oDHu_YkBTrK-197" value="&lt;font style=&quot;font-size: 12px;&quot;&gt;Авторизація,&lt;br&gt;&amp;nbsp;отримання даних&lt;br&gt;&amp;nbsp;про користувача&lt;/font&gt;" style="edgeLabel;html=1;align=center;verticalAlign=middle;resizable=0;points=[];" connectable="0" vertex="1" parent="W-QrEEKh5oDHu_YkBTrK-161">
          <mxGeometry x="0.0193" y="6" relative="1" as="geometry">
            <mxPoint x="-8" y="-7" as="offset" />
          </mxGeometry>
        </mxCell>
        <mxCell id="W-QrEEKh5oDHu_YkBTrK-162" style="edgeStyle=orthogonalEdgeStyle;rounded=0;orthogonalLoop=1;jettySize=auto;html=1;entryX=0;entryY=0.25;entryDx=0;entryDy=0;curved=1;dashed=1;dashPattern=8 8;exitX=1;exitY=0.25;exitDx=0;exitDy=0;" edge="1" parent="1" source="W-QrEEKh5oDHu_YkBTrK-170" target="W-QrEEKh5oDHu_YkBTrK-165">
          <mxGeometry relative="1" as="geometry">
            <mxPoint x="4148" y="-30" as="sourcePoint" />
          </mxGeometry>
        </mxCell>
        <mxCell id="W-QrEEKh5oDHu_YkBTrK-163" value="&lt;div&gt;&lt;b&gt;&lt;br&gt;&lt;/b&gt;&lt;/div&gt;&lt;b&gt;&lt;div&gt;&lt;b style=&quot;background-color: transparent; color: light-dark(rgb(0, 0, 0), rgb(255, 255, 255));&quot;&gt;User session Controller&lt;/b&gt;&lt;/div&gt;&lt;/b&gt;&lt;div&gt;[Container]&lt;/div&gt;&lt;div&gt;Обробка сесій &lt;br&gt;користувача&lt;/div&gt;" style="html=1;whiteSpace=wrap;fillColor=#cce5ff;strokeColor=#36393d;" vertex="1" parent="1">
          <mxGeometry x="3560" y="230" width="170" height="120" as="geometry" />
        </mxCell>
        <mxCell id="W-QrEEKh5oDHu_YkBTrK-164" style="edgeStyle=orthogonalEdgeStyle;rounded=0;orthogonalLoop=1;jettySize=auto;html=1;exitX=0.006;exitY=0.658;exitDx=0;exitDy=0;curved=1;dashed=1;dashPattern=8 8;entryX=1;entryY=0.75;entryDx=0;entryDy=0;exitPerimeter=0;" edge="1" parent="1" source="W-QrEEKh5oDHu_YkBTrK-165" target="W-QrEEKh5oDHu_YkBTrK-170">
          <mxGeometry relative="1" as="geometry">
            <mxPoint x="4063" y="-30" as="targetPoint" />
          </mxGeometry>
        </mxCell>
        <mxCell id="W-QrEEKh5oDHu_YkBTrK-165" value="&lt;div&gt;&lt;b&gt;&lt;br&gt;&lt;/b&gt;&lt;/div&gt;&lt;b&gt;&lt;div&gt;ID.GOV.UA&lt;/div&gt;&lt;/b&gt;&lt;div&gt;[Software System]&lt;/div&gt;&lt;div&gt;&lt;br&gt;&lt;/div&gt;" style="html=1;whiteSpace=wrap;fillColor=#eeeeee;strokeColor=#36393d;" vertex="1" parent="1">
          <mxGeometry x="4020" y="20" width="170" height="120" as="geometry" />
        </mxCell>
        <mxCell id="W-QrEEKh5oDHu_YkBTrK-168" value="&lt;div&gt;&lt;b&gt;&lt;br&gt;&lt;/b&gt;&lt;/div&gt;&lt;b&gt;ДАР&lt;br&gt;&lt;/b&gt;&lt;div&gt;[Software System]&lt;/div&gt;&lt;div&gt;&lt;br&gt;&lt;/div&gt;" style="html=1;whiteSpace=wrap;fillColor=#eeeeee;strokeColor=#36393d;" vertex="1" parent="1">
          <mxGeometry x="3965" y="259.97" width="170" height="120" as="geometry" />
        </mxCell>
        <mxCell id="W-QrEEKh5oDHu_YkBTrK-169" value="&lt;font style=&quot;font-size: 48px;&quot;&gt;Version #1 Component Diagram&lt;/font&gt;" style="text;html=1;align=center;verticalAlign=middle;resizable=0;points=[];autosize=1;strokeColor=none;fillColor=none;" vertex="1" parent="1">
          <mxGeometry x="3270" y="-110" width="710" height="70" as="geometry" />
        </mxCell>
        <mxCell id="W-QrEEKh5oDHu_YkBTrK-170" value="&lt;b&gt;Questionnaire App&lt;/b&gt;&lt;br&gt;&lt;div&gt;&lt;font style=&quot;font-size: 11px;&quot;&gt;[Container: Angular &amp;amp; TS]&lt;/font&gt;&lt;/div&gt;&lt;div&gt;&lt;font style=&quot;font-size: 11px;&quot;&gt;Створює форму анкетування, та відправляє заповнені дані&lt;/font&gt;&lt;/div&gt;" style="rounded=1;whiteSpace=wrap;html=1;fillColor=#b0e3e6;strokeColor=#0e8088;" vertex="1" parent="1">
          <mxGeometry x="3722" y="25" width="200" height="100" as="geometry" />
        </mxCell>
        <mxCell id="W-QrEEKh5oDHu_YkBTrK-171" style="edgeStyle=orthogonalEdgeStyle;rounded=0;orthogonalLoop=1;jettySize=auto;html=1;exitX=0;exitY=0.5;exitDx=0;exitDy=0;curved=1;dashed=1;dashPattern=12 12;" edge="1" parent="1" source="W-QrEEKh5oDHu_YkBTrK-173" target="W-QrEEKh5oDHu_YkBTrK-174">
          <mxGeometry relative="1" as="geometry" />
        </mxCell>
        <mxCell id="W-QrEEKh5oDHu_YkBTrK-172" value="Передача &lt;br&gt;даних анкети" style="edgeLabel;html=1;align=center;verticalAlign=middle;resizable=0;points=[];" connectable="0" vertex="1" parent="W-QrEEKh5oDHu_YkBTrK-171">
          <mxGeometry x="-0.1156" relative="1" as="geometry">
            <mxPoint as="offset" />
          </mxGeometry>
        </mxCell>
        <mxCell id="W-QrEEKh5oDHu_YkBTrK-173" value="&lt;b&gt;Admin Panel App&lt;/b&gt;&lt;div&gt;&lt;font style=&quot;font-size: 11px;&quot;&gt;[Container: Angular &amp;amp; TS]&lt;/font&gt;&lt;/div&gt;&lt;div&gt;&lt;font style=&quot;font-size: 11px;&quot;&gt;Надає змогу вивантажити анкету в форматі PDF&lt;/font&gt;&lt;/div&gt;" style="rounded=1;whiteSpace=wrap;html=1;fillColor=#b0e3e6;strokeColor=#0e8088;" vertex="1" parent="1">
          <mxGeometry x="3370" y="25" width="200" height="100" as="geometry" />
        </mxCell>
        <mxCell id="W-QrEEKh5oDHu_YkBTrK-174" value="&lt;b&gt;PDF Generate Servise&lt;/b&gt;&lt;div&gt;&lt;font style=&quot;font-size: 11px;&quot;&gt;[Container: TS]&lt;/font&gt;&lt;/div&gt;&lt;div&gt;Відповадає за перетворення збережених даних анкети в довідку формату PDF&lt;/div&gt;" style="rounded=1;whiteSpace=wrap;html=1;fillColor=#b0e3e6;strokeColor=#0e8088;" vertex="1" parent="1">
          <mxGeometry x="3050" y="25" width="200" height="100" as="geometry" />
        </mxCell>
        <mxCell id="W-QrEEKh5oDHu_YkBTrK-179" value="&lt;span style=&quot;color: rgb(0, 0, 0); font-family: Helvetica; font-size: 12px; font-style: normal; font-variant-ligatures: normal; font-variant-caps: normal; font-weight: 400; letter-spacing: normal; orphans: 2; text-align: center; text-indent: 0px; text-transform: none; widows: 2; word-spacing: 0px; -webkit-text-stroke-width: 0px; white-space: nowrap; background-color: rgb(255, 255, 255); text-decoration-thickness: initial; text-decoration-style: initial; text-decoration-color: initial; display: inline !important; float: none;&quot;&gt;Data&amp;nbsp;encryption&lt;/span&gt;" style="text;whiteSpace=wrap;html=1;" vertex="1" parent="1">
          <mxGeometry x="3930" y="60" width="120" height="40" as="geometry" />
        </mxCell>
        <mxCell id="W-QrEEKh5oDHu_YkBTrK-182" style="edgeStyle=orthogonalEdgeStyle;rounded=0;orthogonalLoop=1;jettySize=auto;html=1;entryX=0.75;entryY=0;entryDx=0;entryDy=0;curved=1;dashed=1;dashPattern=12 12;exitX=0.25;exitY=1;exitDx=0;exitDy=0;" edge="1" parent="1" source="W-QrEEKh5oDHu_YkBTrK-170" target="W-QrEEKh5oDHu_YkBTrK-190">
          <mxGeometry relative="1" as="geometry">
            <mxPoint x="3746.44" y="240" as="sourcePoint" />
            <mxPoint x="3829.44" y="320" as="targetPoint" />
          </mxGeometry>
        </mxCell>
        <mxCell id="W-QrEEKh5oDHu_YkBTrK-196" value="&lt;span style=&quot;font-size: 12px;&quot;&gt;Отримання даних передзаповнених &lt;br&gt;полів анкети та сесії користувача,&lt;br&gt;збереження підписаних даних&lt;/span&gt;" style="edgeLabel;html=1;align=center;verticalAlign=middle;resizable=0;points=[];" connectable="0" vertex="1" parent="W-QrEEKh5oDHu_YkBTrK-182">
          <mxGeometry x="0.0777" y="3" relative="1" as="geometry">
            <mxPoint x="24" y="-10" as="offset" />
          </mxGeometry>
        </mxCell>
        <mxCell id="W-QrEEKh5oDHu_YkBTrK-184" style="edgeStyle=orthogonalEdgeStyle;rounded=0;orthogonalLoop=1;jettySize=auto;html=1;curved=1;dashed=1;dashPattern=12 12;exitX=0.75;exitY=1;exitDx=0;exitDy=0;" edge="1" parent="1" source="W-QrEEKh5oDHu_YkBTrK-173" target="W-QrEEKh5oDHu_YkBTrK-190">
          <mxGeometry relative="1" as="geometry">
            <mxPoint x="3460" y="210" as="sourcePoint" />
            <mxPoint x="3543" y="290" as="targetPoint" />
          </mxGeometry>
        </mxCell>
        <mxCell id="W-QrEEKh5oDHu_YkBTrK-185" value="&lt;span style=&quot;font-size: 12px;&quot;&gt;Отримання даних &lt;br&gt;заповненої анкети&lt;br&gt;&lt;/span&gt;" style="edgeLabel;html=1;align=center;verticalAlign=middle;resizable=0;points=[];" connectable="0" vertex="1" parent="W-QrEEKh5oDHu_YkBTrK-184">
          <mxGeometry x="0.0661" y="1" relative="1" as="geometry">
            <mxPoint x="-1" y="-13" as="offset" />
          </mxGeometry>
        </mxCell>
        <mxCell id="W-QrEEKh5oDHu_YkBTrK-188" style="edgeStyle=orthogonalEdgeStyle;rounded=0;orthogonalLoop=1;jettySize=auto;html=1;entryX=0.5;entryY=0;entryDx=0;entryDy=0;dashed=1;dashPattern=12 12;curved=1;" edge="1" parent="1" source="W-QrEEKh5oDHu_YkBTrK-186" target="W-QrEEKh5oDHu_YkBTrK-187">
          <mxGeometry relative="1" as="geometry" />
        </mxCell>
        <mxCell id="W-QrEEKh5oDHu_YkBTrK-198" style="edgeStyle=orthogonalEdgeStyle;rounded=0;orthogonalLoop=1;jettySize=auto;html=1;exitX=1;exitY=1;exitDx=0;exitDy=0;entryX=0;entryY=0.75;entryDx=0;entryDy=0;curved=1;dashed=1;dashPattern=12 12;" edge="1" parent="1" source="W-QrEEKh5oDHu_YkBTrK-186" target="W-QrEEKh5oDHu_YkBTrK-168">
          <mxGeometry relative="1" as="geometry">
            <Array as="points">
              <mxPoint x="3490" y="410" />
              <mxPoint x="3930" y="410" />
              <mxPoint x="3930" y="350" />
            </Array>
          </mxGeometry>
        </mxCell>
        <mxCell id="W-QrEEKh5oDHu_YkBTrK-199" value="&lt;span style=&quot;font-size: 12px;&quot;&gt;data decryption,&lt;/span&gt;&lt;br style=&quot;font-size: 12px;&quot;&gt;&lt;span style=&quot;font-size: 12px;&quot;&gt;збереження даних в БД&lt;/span&gt;" style="edgeLabel;html=1;align=center;verticalAlign=middle;resizable=0;points=[];" connectable="0" vertex="1" parent="W-QrEEKh5oDHu_YkBTrK-198">
          <mxGeometry x="-0.0152" y="2" relative="1" as="geometry">
            <mxPoint as="offset" />
          </mxGeometry>
        </mxCell>
        <mxCell id="W-QrEEKh5oDHu_YkBTrK-186" value="&lt;div&gt;&lt;b&gt;&lt;br&gt;&lt;/b&gt;&lt;/div&gt;&lt;b&gt;Questionnaire Service&lt;br&gt;&lt;/b&gt;&lt;div&gt;[Container]&lt;/div&gt;&lt;div&gt;Заповнення даних з ДАР,&lt;br&gt;відправка і отримання анкет в ДАР&lt;/div&gt;" style="html=1;whiteSpace=wrap;fillColor=#cce5ff;strokeColor=#36393d;" vertex="1" parent="1">
          <mxGeometry x="3320" y="230" width="170" height="120" as="geometry" />
        </mxCell>
        <mxCell id="W-QrEEKh5oDHu_YkBTrK-187" value="&lt;div&gt;&lt;b&gt;&lt;br&gt;&lt;/b&gt;&lt;/div&gt;&lt;b&gt;Validation Service&lt;br&gt;&lt;/b&gt;&lt;div&gt;[Container]&lt;/div&gt;&lt;div&gt;Валідація даних анкети&lt;/div&gt;" style="html=1;whiteSpace=wrap;fillColor=#cce5ff;strokeColor=#36393d;" vertex="1" parent="1">
          <mxGeometry x="3320" y="410" width="170" height="120" as="geometry" />
        </mxCell>
        <mxCell id="W-QrEEKh5oDHu_YkBTrK-191" style="edgeStyle=orthogonalEdgeStyle;rounded=0;orthogonalLoop=1;jettySize=auto;html=1;exitX=1;exitY=0.75;exitDx=0;exitDy=0;entryX=0;entryY=0.5;entryDx=0;entryDy=0;curved=1;strokeWidth=3;strokeColor=#FFE599;" edge="1" parent="1" source="W-QrEEKh5oDHu_YkBTrK-189" target="W-QrEEKh5oDHu_YkBTrK-190">
          <mxGeometry relative="1" as="geometry" />
        </mxCell>
        <mxCell id="W-QrEEKh5oDHu_YkBTrK-192" style="edgeStyle=orthogonalEdgeStyle;rounded=0;orthogonalLoop=1;jettySize=auto;html=1;exitX=1;exitY=0.25;exitDx=0;exitDy=0;entryX=0.006;entryY=0.308;entryDx=0;entryDy=0;entryPerimeter=0;curved=1;dashed=1;dashPattern=12 12;" edge="1" parent="1" source="W-QrEEKh5oDHu_YkBTrK-66" target="W-QrEEKh5oDHu_YkBTrK-60">
          <mxGeometry relative="1" as="geometry" />
        </mxCell>
        <mxCell id="W-QrEEKh5oDHu_YkBTrK-195" value="&lt;span style=&quot;font-size: 12px;&quot;&gt;Data&amp;nbsp;encryption&lt;/span&gt;" style="edgeLabel;html=1;align=center;verticalAlign=middle;resizable=0;points=[];" connectable="0" vertex="1" parent="W-QrEEKh5oDHu_YkBTrK-192">
          <mxGeometry x="0.0118" y="-1" relative="1" as="geometry">
            <mxPoint x="3" y="27" as="offset" />
          </mxGeometry>
        </mxCell>
        <mxCell id="W-QrEEKh5oDHu_YkBTrK-207" value="&lt;font style=&quot;font-size: 48px;&quot;&gt;Version #2 Component Diagram&lt;/font&gt;" style="text;html=1;align=center;verticalAlign=middle;resizable=0;points=[];autosize=1;strokeColor=none;fillColor=none;" vertex="1" parent="1">
          <mxGeometry x="3100" y="1930" width="710" height="70" as="geometry" />
        </mxCell>
        <mxCell id="W-QrEEKh5oDHu_YkBTrK-208" style="edgeStyle=orthogonalEdgeStyle;rounded=0;orthogonalLoop=1;jettySize=auto;html=1;exitX=1;exitY=0.5;exitDx=0;exitDy=0;curved=1;dashed=1;dashPattern=12 12;" edge="1" parent="1" source="W-QrEEKh5oDHu_YkBTrK-210" target="W-QrEEKh5oDHu_YkBTrK-234">
          <mxGeometry relative="1" as="geometry">
            <Array as="points">
              <mxPoint x="3880" y="2100" />
              <mxPoint x="3880" y="2140" />
              <mxPoint x="4055" y="2140" />
            </Array>
          </mxGeometry>
        </mxCell>
        <mxCell id="W-QrEEKh5oDHu_YkBTrK-209" value="&lt;span style=&quot;font-size: 12px;&quot;&gt;Data&amp;nbsp;&lt;/span&gt;&lt;br style=&quot;font-size: 12px;&quot;&gt;&lt;span style=&quot;font-size: 12px;&quot;&gt;encryption&lt;/span&gt;" style="edgeLabel;html=1;align=center;verticalAlign=middle;resizable=0;points=[];" connectable="0" vertex="1" parent="W-QrEEKh5oDHu_YkBTrK-208">
          <mxGeometry x="0.0979" y="6" relative="1" as="geometry">
            <mxPoint x="-19" y="1" as="offset" />
          </mxGeometry>
        </mxCell>
        <mxCell id="W-QrEEKh5oDHu_YkBTrK-210" value="&lt;b&gt;Questionnaire App&lt;/b&gt;&lt;br&gt;&lt;div&gt;&lt;font style=&quot;font-size: 11px;&quot;&gt;[Container: Angular &amp;amp; TS]&lt;/font&gt;&lt;/div&gt;&lt;div&gt;&lt;font style=&quot;font-size: 11px;&quot;&gt;Створює форму анкетування, та відправляє заповнені дані&lt;/font&gt;&lt;/div&gt;" style="rounded=1;whiteSpace=wrap;html=1;fillColor=#b0e3e6;strokeColor=#0e8088;" vertex="1" parent="1">
          <mxGeometry x="3480" y="2050" width="200" height="100" as="geometry" />
        </mxCell>
        <mxCell id="W-QrEEKh5oDHu_YkBTrK-211" style="edgeStyle=orthogonalEdgeStyle;rounded=0;orthogonalLoop=1;jettySize=auto;html=1;exitX=0;exitY=0.5;exitDx=0;exitDy=0;dashed=1;dashPattern=12 12;" edge="1" parent="1" source="W-QrEEKh5oDHu_YkBTrK-213" target="W-QrEEKh5oDHu_YkBTrK-214">
          <mxGeometry relative="1" as="geometry" />
        </mxCell>
        <mxCell id="W-QrEEKh5oDHu_YkBTrK-212" value="&lt;font style=&quot;font-size: 12px;&quot;&gt;Передача &lt;br&gt;даних анкети&lt;/font&gt;" style="edgeLabel;html=1;align=center;verticalAlign=middle;resizable=0;points=[];" connectable="0" vertex="1" parent="W-QrEEKh5oDHu_YkBTrK-211">
          <mxGeometry x="-0.0129" y="-1" relative="1" as="geometry">
            <mxPoint as="offset" />
          </mxGeometry>
        </mxCell>
        <mxCell id="W-QrEEKh5oDHu_YkBTrK-213" value="&lt;b&gt;Admin Panel App&lt;/b&gt;&lt;div&gt;&lt;font style=&quot;font-size: 11px;&quot;&gt;[Container: Angular &amp;amp; TS]&lt;/font&gt;&lt;/div&gt;&lt;div&gt;&lt;font style=&quot;font-size: 11px;&quot;&gt;Надає змогу вивантажити анкету в форматі PDF&lt;/font&gt;&lt;/div&gt;" style="rounded=1;whiteSpace=wrap;html=1;fillColor=#b0e3e6;strokeColor=#0e8088;" vertex="1" parent="1">
          <mxGeometry x="3200" y="2050" width="200" height="100" as="geometry" />
        </mxCell>
        <mxCell id="W-QrEEKh5oDHu_YkBTrK-214" value="&lt;b&gt;PDF Generate Servise&lt;/b&gt;&lt;div&gt;&lt;font style=&quot;font-size: 11px;&quot;&gt;[Container: TS]&lt;/font&gt;&lt;/div&gt;&lt;div&gt;Відповадає за перетворення збережених даних анкети в довідку формату PDF&lt;/div&gt;" style="rounded=1;whiteSpace=wrap;html=1;fillColor=#b0e3e6;strokeColor=#0e8088;" vertex="1" parent="1">
          <mxGeometry x="2877.5" y="2050" width="200" height="100" as="geometry" />
        </mxCell>
        <mxCell id="W-QrEEKh5oDHu_YkBTrK-221" style="edgeStyle=orthogonalEdgeStyle;rounded=0;orthogonalLoop=1;jettySize=auto;html=1;entryX=0.5;entryY=1;entryDx=0;entryDy=0;curved=1;dashed=1;dashPattern=12 12;exitX=1;exitY=0.75;exitDx=0;exitDy=0;" edge="1" parent="1" source="W-QrEEKh5oDHu_YkBTrK-242" target="W-QrEEKh5oDHu_YkBTrK-234">
          <mxGeometry relative="1" as="geometry">
            <mxPoint x="3718" y="2290" as="sourcePoint" />
          </mxGeometry>
        </mxCell>
        <mxCell id="W-QrEEKh5oDHu_YkBTrK-222" value="&lt;font style=&quot;font-size: 12px;&quot;&gt;Data&amp;nbsp;&lt;br&gt;&lt;/font&gt;&lt;span style=&quot;font-size: 12px;&quot;&gt;decryption&lt;/span&gt;" style="edgeLabel;html=1;align=center;verticalAlign=middle;resizable=0;points=[];" connectable="0" vertex="1" parent="W-QrEEKh5oDHu_YkBTrK-221">
          <mxGeometry x="-0.0243" y="11" relative="1" as="geometry">
            <mxPoint x="-30" y="-9" as="offset" />
          </mxGeometry>
        </mxCell>
        <mxCell id="W-QrEEKh5oDHu_YkBTrK-228" value="&lt;b&gt;Database&lt;/b&gt;&lt;div&gt;[Container: MongeDB]&lt;br&gt;Stores questionnaires&lt;/div&gt;" style="shape=cylinder3;whiteSpace=wrap;html=1;boundedLbl=1;backgroundOutline=1;size=15;fillColor=#d5e8d4;strokeColor=#82b366;" vertex="1" parent="1">
          <mxGeometry x="3760" y="2240" width="160" height="140" as="geometry" />
        </mxCell>
        <mxCell id="W-QrEEKh5oDHu_YkBTrK-229" value="&lt;b&gt;Database&lt;/b&gt;&lt;div&gt;[Container: Redis]&lt;br&gt;Stores temporary &lt;br&gt;information, user session&lt;/div&gt;" style="shape=cylinder3;whiteSpace=wrap;html=1;boundedLbl=1;backgroundOutline=1;size=15;fillColor=#d5e8d4;strokeColor=#82b366;" vertex="1" parent="1">
          <mxGeometry x="2790" y="2250" width="160" height="140" as="geometry" />
        </mxCell>
        <mxCell id="W-QrEEKh5oDHu_YkBTrK-230" style="edgeStyle=orthogonalEdgeStyle;rounded=0;orthogonalLoop=1;jettySize=auto;html=1;dashed=1;dashPattern=12 12;curved=1;entryX=1;entryY=0.5;entryDx=0;entryDy=0;entryPerimeter=0;exitX=0;exitY=0.5;exitDx=0;exitDy=0;" edge="1" parent="1" source="W-QrEEKh5oDHu_YkBTrK-243" target="W-QrEEKh5oDHu_YkBTrK-229">
          <mxGeometry relative="1" as="geometry">
            <mxPoint x="3332.5" y="2970" as="sourcePoint" />
            <mxPoint x="3512" y="3080" as="targetPoint" />
          </mxGeometry>
        </mxCell>
        <mxCell id="W-QrEEKh5oDHu_YkBTrK-231" value="Reads from and&lt;br&gt;writes to" style="edgeLabel;html=1;align=center;verticalAlign=middle;resizable=0;points=[];" connectable="0" vertex="1" parent="W-QrEEKh5oDHu_YkBTrK-230">
          <mxGeometry x="-0.1144" y="4" relative="1" as="geometry">
            <mxPoint as="offset" />
          </mxGeometry>
        </mxCell>
        <mxCell id="W-QrEEKh5oDHu_YkBTrK-234" value="&lt;div&gt;&lt;b&gt;&lt;br&gt;&lt;/b&gt;&lt;/div&gt;&lt;b&gt;&lt;div&gt;ID.GOV.UA&lt;/div&gt;&lt;/b&gt;&lt;div&gt;[Software System]&lt;/div&gt;&lt;div&gt;&lt;br&gt;&lt;/div&gt;" style="html=1;whiteSpace=wrap;fillColor=#eeeeee;strokeColor=#36393d;" vertex="1" parent="1">
          <mxGeometry x="3960" y="2280" width="170" height="120" as="geometry" />
        </mxCell>
        <mxCell id="W-QrEEKh5oDHu_YkBTrK-265" style="edgeStyle=orthogonalEdgeStyle;rounded=0;orthogonalLoop=1;jettySize=auto;html=1;exitX=1;exitY=0.25;exitDx=0;exitDy=0;entryX=0.25;entryY=1;entryDx=0;entryDy=0;curved=1;dashed=1;dashPattern=12 12;" edge="1" parent="1" source="W-QrEEKh5oDHu_YkBTrK-238" target="W-QrEEKh5oDHu_YkBTrK-243">
          <mxGeometry relative="1" as="geometry" />
        </mxCell>
        <mxCell id="W-QrEEKh5oDHu_YkBTrK-266" value="&lt;span style=&quot;font-size: 12px;&quot;&gt;Авторизація,&amp;nbsp;&lt;/span&gt;&lt;br style=&quot;font-size: 12px;&quot;&gt;&lt;span style=&quot;font-size: 12px;&quot;&gt;повернення даних&lt;br&gt;про користувача&lt;/span&gt;" style="edgeLabel;html=1;align=center;verticalAlign=middle;resizable=0;points=[];" connectable="0" vertex="1" parent="W-QrEEKh5oDHu_YkBTrK-265">
          <mxGeometry x="-0.1736" y="31" relative="1" as="geometry">
            <mxPoint x="-23" y="-29" as="offset" />
          </mxGeometry>
        </mxCell>
        <mxCell id="W-QrEEKh5oDHu_YkBTrK-238" value="&lt;div&gt;&lt;b&gt;&lt;br&gt;&lt;/b&gt;&lt;/div&gt;&lt;b&gt;ДАР&lt;br&gt;&lt;/b&gt;&lt;div&gt;[Software System]&lt;/div&gt;&lt;div&gt;&lt;br&gt;&lt;/div&gt;" style="html=1;whiteSpace=wrap;fillColor=#eeeeee;strokeColor=#36393d;" vertex="1" parent="1">
          <mxGeometry x="2780" y="2480" width="170" height="120" as="geometry" />
        </mxCell>
        <mxCell id="W-QrEEKh5oDHu_YkBTrK-242" value="&lt;div&gt;&lt;b&gt;&lt;br&gt;&lt;/b&gt;&lt;/div&gt;&lt;b&gt;&lt;div&gt;&lt;b style=&quot;background-color: transparent; color: light-dark(rgb(0, 0, 0), rgb(255, 255, 255));&quot;&gt;Sign Service&lt;/b&gt;&lt;/div&gt;&lt;/b&gt;&lt;div&gt;[Container]&lt;/div&gt;&lt;div&gt;&lt;br&gt;&lt;/div&gt;" style="html=1;whiteSpace=wrap;fillColor=#cce5ff;strokeColor=#36393d;" vertex="1" parent="1">
          <mxGeometry x="3400" y="2420" width="170" height="120" as="geometry" />
        </mxCell>
        <mxCell id="W-QrEEKh5oDHu_YkBTrK-263" style="edgeStyle=orthogonalEdgeStyle;rounded=0;orthogonalLoop=1;jettySize=auto;html=1;exitX=0;exitY=1;exitDx=0;exitDy=0;entryX=1;entryY=0;entryDx=0;entryDy=0;curved=1;dashed=1;dashPattern=12 12;" edge="1" parent="1" source="W-QrEEKh5oDHu_YkBTrK-243" target="W-QrEEKh5oDHu_YkBTrK-238">
          <mxGeometry relative="1" as="geometry" />
        </mxCell>
        <mxCell id="W-QrEEKh5oDHu_YkBTrK-243" value="&lt;div&gt;&lt;b&gt;&lt;br&gt;&lt;/b&gt;&lt;/div&gt;&lt;b&gt;&lt;div&gt;&lt;b style=&quot;background-color: transparent; color: light-dark(rgb(0, 0, 0), rgb(255, 255, 255));&quot;&gt;User session Controller&lt;/b&gt;&lt;/div&gt;&lt;/b&gt;&lt;div&gt;[Container]&lt;/div&gt;&lt;div&gt;Обробка сесій &lt;br&gt;користувача&lt;/div&gt;" style="html=1;whiteSpace=wrap;fillColor=#cce5ff;strokeColor=#36393d;" vertex="1" parent="1">
          <mxGeometry x="3075" y="2260" width="170" height="120" as="geometry" />
        </mxCell>
        <mxCell id="W-QrEEKh5oDHu_YkBTrK-245" style="edgeStyle=orthogonalEdgeStyle;rounded=0;orthogonalLoop=1;jettySize=auto;html=1;dashed=1;dashPattern=12 12;curved=1;exitX=0;exitY=0.75;exitDx=0;exitDy=0;entryX=1;entryY=0.25;entryDx=0;entryDy=0;" edge="1" parent="1" source="W-QrEEKh5oDHu_YkBTrK-246" target="W-QrEEKh5oDHu_YkBTrK-247">
          <mxGeometry relative="1" as="geometry">
            <Array as="points">
              <mxPoint x="3370" y="2350" />
              <mxPoint x="3370" y="2450" />
            </Array>
          </mxGeometry>
        </mxCell>
        <mxCell id="W-QrEEKh5oDHu_YkBTrK-255" style="edgeStyle=orthogonalEdgeStyle;rounded=0;orthogonalLoop=1;jettySize=auto;html=1;exitX=0.25;exitY=1;exitDx=0;exitDy=0;entryX=0.5;entryY=0;entryDx=0;entryDy=0;curved=1;dashed=1;dashPattern=12 12;" edge="1" parent="1" source="W-QrEEKh5oDHu_YkBTrK-246" target="W-QrEEKh5oDHu_YkBTrK-242">
          <mxGeometry relative="1" as="geometry" />
        </mxCell>
        <mxCell id="W-QrEEKh5oDHu_YkBTrK-256" style="edgeStyle=orthogonalEdgeStyle;rounded=0;orthogonalLoop=1;jettySize=auto;html=1;exitX=0;exitY=0.5;exitDx=0;exitDy=0;entryX=1;entryY=0.5;entryDx=0;entryDy=0;curved=1;dashed=1;dashPattern=12 12;" edge="1" parent="1" source="W-QrEEKh5oDHu_YkBTrK-246" target="W-QrEEKh5oDHu_YkBTrK-243">
          <mxGeometry relative="1" as="geometry" />
        </mxCell>
        <mxCell id="W-QrEEKh5oDHu_YkBTrK-257" value="&lt;font style=&quot;font-size: 12px;&quot;&gt;Отримання даних &lt;br&gt;про користувача&lt;/font&gt;" style="edgeLabel;html=1;align=center;verticalAlign=middle;resizable=0;points=[];" connectable="0" vertex="1" parent="W-QrEEKh5oDHu_YkBTrK-256">
          <mxGeometry x="0.2084" y="-1" relative="1" as="geometry">
            <mxPoint as="offset" />
          </mxGeometry>
        </mxCell>
        <mxCell id="W-QrEEKh5oDHu_YkBTrK-246" value="&lt;div&gt;&lt;b&gt;&lt;br&gt;&lt;/b&gt;&lt;/div&gt;&lt;b&gt;Questionnaire Service&lt;br&gt;&lt;/b&gt;&lt;div&gt;[Container]&lt;/div&gt;&lt;div&gt;Заповнення даних з ДАР,&lt;br&gt;збереження та отримання анкети&lt;/div&gt;" style="html=1;whiteSpace=wrap;fillColor=#cce5ff;strokeColor=#36393d;" vertex="1" parent="1">
          <mxGeometry x="3482.5" y="2260" width="170" height="120" as="geometry" />
        </mxCell>
        <mxCell id="W-QrEEKh5oDHu_YkBTrK-247" value="&lt;div&gt;&lt;b&gt;&lt;br&gt;&lt;/b&gt;&lt;/div&gt;&lt;b&gt;Validation Service&lt;br&gt;&lt;/b&gt;&lt;div&gt;[Container]&lt;/div&gt;&lt;div&gt;Валідація даних анкети&lt;/div&gt;" style="html=1;whiteSpace=wrap;fillColor=#cce5ff;strokeColor=#36393d;" vertex="1" parent="1">
          <mxGeometry x="3150" y="2420" width="170" height="120" as="geometry" />
        </mxCell>
        <mxCell id="W-QrEEKh5oDHu_YkBTrK-250" style="edgeStyle=orthogonalEdgeStyle;rounded=0;orthogonalLoop=1;jettySize=auto;html=1;curved=1;dashed=1;dashPattern=12 12;exitX=0.5;exitY=1;exitDx=0;exitDy=0;entryX=0.25;entryY=0;entryDx=0;entryDy=0;" edge="1" parent="1" source="W-QrEEKh5oDHu_YkBTrK-213" target="W-QrEEKh5oDHu_YkBTrK-249">
          <mxGeometry relative="1" as="geometry">
            <mxPoint x="3289.47" y="2175" as="sourcePoint" />
            <mxPoint x="3294.47" y="2260" as="targetPoint" />
          </mxGeometry>
        </mxCell>
        <mxCell id="W-QrEEKh5oDHu_YkBTrK-251" value="&lt;span style=&quot;font-size: 12px;&quot;&gt;Отримання даних &lt;br&gt;заповненої анкети&lt;br&gt;&lt;/span&gt;" style="edgeLabel;html=1;align=center;verticalAlign=middle;resizable=0;points=[];" connectable="0" vertex="1" parent="W-QrEEKh5oDHu_YkBTrK-250">
          <mxGeometry x="0.0661" y="1" relative="1" as="geometry">
            <mxPoint x="14" y="-1" as="offset" />
          </mxGeometry>
        </mxCell>
        <mxCell id="W-QrEEKh5oDHu_YkBTrK-252" style="edgeStyle=orthogonalEdgeStyle;rounded=0;orthogonalLoop=1;jettySize=auto;html=1;curved=1;dashed=1;dashPattern=12 12;exitX=0.5;exitY=1;exitDx=0;exitDy=0;entryX=0.75;entryY=0;entryDx=0;entryDy=0;" edge="1" parent="1" source="W-QrEEKh5oDHu_YkBTrK-210" target="W-QrEEKh5oDHu_YkBTrK-249">
          <mxGeometry relative="1" as="geometry">
            <mxPoint x="3584" y="2205" as="sourcePoint" />
            <mxPoint x="3470" y="2290" as="targetPoint" />
          </mxGeometry>
        </mxCell>
        <mxCell id="W-QrEEKh5oDHu_YkBTrK-253" value="&lt;span style=&quot;font-size: 12px;&quot;&gt;Отримання даних передзаповнених &lt;br&gt;полів анкети та сесії користувача,&lt;br&gt;збереження підписаних даних&lt;/span&gt;" style="edgeLabel;html=1;align=center;verticalAlign=middle;resizable=0;points=[];" connectable="0" vertex="1" parent="W-QrEEKh5oDHu_YkBTrK-252">
          <mxGeometry x="0.0777" y="3" relative="1" as="geometry">
            <mxPoint x="24" y="-10" as="offset" />
          </mxGeometry>
        </mxCell>
        <mxCell id="W-QrEEKh5oDHu_YkBTrK-258" style="edgeStyle=orthogonalEdgeStyle;rounded=0;orthogonalLoop=1;jettySize=auto;html=1;exitX=1;exitY=0.25;exitDx=0;exitDy=0;entryX=0;entryY=0;entryDx=0;entryDy=42.5;entryPerimeter=0;curved=1;dashed=1;dashPattern=12 12;" edge="1" parent="1" source="W-QrEEKh5oDHu_YkBTrK-246" target="W-QrEEKh5oDHu_YkBTrK-228">
          <mxGeometry relative="1" as="geometry" />
        </mxCell>
        <mxCell id="W-QrEEKh5oDHu_YkBTrK-260" value="Reads from and&lt;br&gt;writes to" style="edgeLabel;html=1;align=center;verticalAlign=middle;resizable=0;points=[];" connectable="0" vertex="1" parent="W-QrEEKh5oDHu_YkBTrK-258">
          <mxGeometry x="-0.1478" y="1" relative="1" as="geometry">
            <mxPoint as="offset" />
          </mxGeometry>
        </mxCell>
        <mxCell id="W-QrEEKh5oDHu_YkBTrK-270" style="edgeStyle=orthogonalEdgeStyle;rounded=0;orthogonalLoop=1;jettySize=auto;html=1;exitX=0.75;exitY=1;exitDx=0;exitDy=0;entryX=0.006;entryY=0.102;entryDx=0;entryDy=0;entryPerimeter=0;curved=1;strokeWidth=3;strokeColor=#FFE599;" edge="1" parent="1" source="W-QrEEKh5oDHu_YkBTrK-248" target="W-QrEEKh5oDHu_YkBTrK-249">
          <mxGeometry relative="1" as="geometry">
            <Array as="points">
              <mxPoint x="2639" y="2180" />
              <mxPoint x="3014" y="2180" />
            </Array>
          </mxGeometry>
        </mxCell>
        <mxCell id="bBTNOjmK9bIKO9hNwhij-1" value="Модуль звіту, якільки анкет, по ключових полях&lt;div&gt;&lt;br&gt;&lt;/div&gt;" style="rounded=1;whiteSpace=wrap;html=1;" vertex="1" parent="1">
          <mxGeometry x="2260" y="190" width="120" height="60" as="geometry" />
        </mxCell>
        <mxCell id="bBTNOjmK9bIKO9hNwhij-2" value="Модуль звіту, якільки анкет, по ключових полях&lt;div&gt;&lt;br&gt;&lt;/div&gt;" style="rounded=1;whiteSpace=wrap;html=1;" vertex="1" parent="1">
          <mxGeometry x="3540" y="440" width="120" height="60" as="geometry" />
        </mxCell>
        <mxCell id="0VvWYCNCZBBOQRTvVWgJ-3" value="&lt;font style=&quot;font-size: 32px; color: rgb(234, 107, 102);&quot;&gt;&lt;b&gt;OLD&lt;/b&gt;&lt;/font&gt;" style="shape=umlFrame;whiteSpace=wrap;html=1;pointerEvents=0;width=100;height=40;fillColor=#f8cecc;strokeColor=#b85450;strokeWidth=3;" vertex="1" parent="1">
          <mxGeometry x="800" y="-190" width="3490" height="2870" as="geometry" />
        </mxCell>
        <mxCell id="0VvWYCNCZBBOQRTvVWgJ-4" value="&lt;span style=&quot;font-size: 32px;&quot;&gt;&lt;b&gt;&lt;font style=&quot;color: rgb(103, 171, 159);&quot;&gt;NEW&lt;/font&gt;&lt;/b&gt;&lt;/span&gt;" style="shape=umlFrame;whiteSpace=wrap;html=1;pointerEvents=0;width=100;height=40;strokeWidth=3;strokeColor=#82b366;fillColor=#d5e8d4;" vertex="1" parent="1">
          <mxGeometry x="4360" y="-190" width="3840" height="2510" as="geometry" />
        </mxCell>
        <mxCell id="d8mZoJdHlw85jdswwhyd-3" value="&lt;font style=&quot;font-size: 48px;&quot;&gt;Component Diagram&lt;/font&gt;" style="text;html=1;align=center;verticalAlign=middle;resizable=0;points=[];autosize=1;strokeColor=none;fillColor=none;" vertex="1" parent="1">
          <mxGeometry x="7010" y="1020" width="470" height="70" as="geometry" />
        </mxCell>
        <mxCell id="vc3mzGpSWYyIXPZZfmV_-1" value="" style="html=1;whiteSpace=wrap;" vertex="1" parent="1">
          <mxGeometry x="4460" y="-110" width="890" height="580" as="geometry" />
        </mxCell>
        <mxCell id="vc3mzGpSWYyIXPZZfmV_-2" value="" style="rounded=1;whiteSpace=wrap;html=1;fillColor=none;strokeColor=#87FFA3;strokeWidth=3;" vertex="1" parent="1">
          <mxGeometry x="4760" y="270" width="200" height="160" as="geometry" />
        </mxCell>
        <mxCell id="vc3mzGpSWYyIXPZZfmV_-3" style="edgeStyle=orthogonalEdgeStyle;rounded=0;orthogonalLoop=1;jettySize=auto;html=1;curved=1;entryX=0.25;entryY=0;entryDx=0;entryDy=0;dashed=1;dashPattern=12 12;" edge="1" parent="1" source="vc3mzGpSWYyIXPZZfmV_-5" target="vc3mzGpSWYyIXPZZfmV_-12">
          <mxGeometry relative="1" as="geometry" />
        </mxCell>
        <mxCell id="vc3mzGpSWYyIXPZZfmV_-4" value="&lt;span style=&quot;font-size: 12px;&quot;&gt;Views admin functionality&lt;/span&gt;" style="edgeLabel;html=1;align=center;verticalAlign=middle;resizable=0;points=[];" connectable="0" vertex="1" parent="vc3mzGpSWYyIXPZZfmV_-3">
          <mxGeometry x="-0.1414" y="5" relative="1" as="geometry">
            <mxPoint x="-1" y="-5" as="offset" />
          </mxGeometry>
        </mxCell>
        <mxCell id="vc3mzGpSWYyIXPZZfmV_-5" value="&lt;div&gt;&lt;br&gt;&lt;/div&gt;&lt;div&gt;&lt;br&gt;&lt;/div&gt;&lt;div&gt;&lt;br&gt;&lt;/div&gt;&lt;div&gt;&lt;br&gt;&lt;/div&gt;&lt;div&gt;&lt;br&gt;&lt;/div&gt;&lt;b&gt;System Administrator&lt;/b&gt;&lt;br&gt;&lt;div&gt;[Person]&lt;/div&gt;" style="shape=actor;whiteSpace=wrap;html=1;fillColor=#cdeb8b;strokeColor=#36393d;" vertex="1" parent="1">
          <mxGeometry x="4605" y="-20" width="170" height="190" as="geometry" />
        </mxCell>
        <mxCell id="vc3mzGpSWYyIXPZZfmV_-6" style="edgeStyle=orthogonalEdgeStyle;rounded=0;orthogonalLoop=1;jettySize=auto;html=1;entryX=0.75;entryY=0;entryDx=0;entryDy=0;curved=1;dashed=1;dashPattern=12 12;" edge="1" parent="1" source="vc3mzGpSWYyIXPZZfmV_-8" target="vc3mzGpSWYyIXPZZfmV_-12">
          <mxGeometry relative="1" as="geometry" />
        </mxCell>
        <mxCell id="vc3mzGpSWYyIXPZZfmV_-7" value="&lt;font style=&quot;font-size: 12px;&quot;&gt;Views questionnaire service&lt;/font&gt;" style="edgeLabel;html=1;align=center;verticalAlign=middle;resizable=0;points=[];" connectable="0" vertex="1" parent="vc3mzGpSWYyIXPZZfmV_-6">
          <mxGeometry x="0.1051" y="3" relative="1" as="geometry">
            <mxPoint x="36" y="-13" as="offset" />
          </mxGeometry>
        </mxCell>
        <mxCell id="vc3mzGpSWYyIXPZZfmV_-8" value="&lt;div&gt;&lt;br&gt;&lt;/div&gt;&lt;div&gt;&lt;br&gt;&lt;/div&gt;&lt;div&gt;&lt;br&gt;&lt;/div&gt;&lt;div&gt;&lt;br&gt;&lt;/div&gt;&lt;div&gt;&lt;br&gt;&lt;/div&gt;&lt;b&gt;End-User&lt;/b&gt;&lt;br&gt;&lt;div&gt;[Person]&lt;/div&gt;" style="shape=actor;whiteSpace=wrap;html=1;fillColor=#cdeb8b;strokeColor=#36393d;" vertex="1" parent="1">
          <mxGeometry x="4945" y="-20" width="170" height="190" as="geometry" />
        </mxCell>
        <mxCell id="vc3mzGpSWYyIXPZZfmV_-10" style="edgeStyle=orthogonalEdgeStyle;rounded=0;orthogonalLoop=1;jettySize=auto;html=1;exitX=0;exitY=0.5;exitDx=0;exitDy=0;entryX=1;entryY=0.5;entryDx=0;entryDy=0;dashed=1;dashPattern=12 12;" edge="1" parent="1" source="vc3mzGpSWYyIXPZZfmV_-12" target="vc3mzGpSWYyIXPZZfmV_-14">
          <mxGeometry relative="1" as="geometry" />
        </mxCell>
        <mxCell id="vc3mzGpSWYyIXPZZfmV_-11" value="&lt;font style=&quot;font-size: 12px;&quot;&gt;Data&amp;nbsp;&lt;br&gt;encryption&lt;/font&gt;" style="edgeLabel;html=1;align=center;verticalAlign=middle;resizable=0;points=[];" connectable="0" vertex="1" parent="vc3mzGpSWYyIXPZZfmV_-10">
          <mxGeometry x="0.0714" y="2" relative="1" as="geometry">
            <mxPoint x="1" y="-22" as="offset" />
          </mxGeometry>
        </mxCell>
        <mxCell id="yh0qmV7Q8T8gITBxbPLc-1" style="edgeStyle=orthogonalEdgeStyle;rounded=0;orthogonalLoop=1;jettySize=auto;html=1;exitX=1;exitY=0.75;exitDx=0;exitDy=0;entryX=0;entryY=0.75;entryDx=0;entryDy=0;dashed=1;dashPattern=12 12;curved=1;" edge="1" parent="1" source="vc3mzGpSWYyIXPZZfmV_-12" target="vc3mzGpSWYyIXPZZfmV_-17">
          <mxGeometry relative="1" as="geometry" />
        </mxCell>
        <mxCell id="yh0qmV7Q8T8gITBxbPLc-2" value="&lt;span style=&quot;font-size: 12px;&quot;&gt;Authorization,&lt;/span&gt;&lt;br style=&quot;font-size: 12px;&quot;&gt;&lt;span style=&quot;font-size: 12px;&quot;&gt;user management,&lt;br&gt;user additional info,&lt;br&gt;data decryption&lt;/span&gt;" style="edgeLabel;html=1;align=center;verticalAlign=middle;resizable=0;points=[];" connectable="0" vertex="1" parent="yh0qmV7Q8T8gITBxbPLc-1">
          <mxGeometry x="0.2061" relative="1" as="geometry">
            <mxPoint x="-22" y="5" as="offset" />
          </mxGeometry>
        </mxCell>
        <mxCell id="vc3mzGpSWYyIXPZZfmV_-12" value="&lt;div&gt;&lt;b&gt;&lt;br&gt;&lt;/b&gt;&lt;/div&gt;&lt;b&gt;&lt;div&gt;&lt;b style=&quot;background-color: transparent; color: light-dark(rgb(0, 0, 0), rgb(255, 255, 255));&quot;&gt;User Profile System&lt;/b&gt;&lt;/div&gt;&lt;/b&gt;&lt;div&gt;[Software System]&lt;/div&gt;&lt;div&gt;&lt;br&gt;&lt;/div&gt;" style="html=1;whiteSpace=wrap;fillColor=#d5e8d4;strokeColor=#82b366;" vertex="1" parent="1">
          <mxGeometry x="4775" y="290" width="170" height="120" as="geometry" />
        </mxCell>
        <mxCell id="vc3mzGpSWYyIXPZZfmV_-14" value="&lt;div&gt;&lt;b&gt;&lt;br&gt;&lt;/b&gt;&lt;/div&gt;&lt;b&gt;&lt;div&gt;ID.GOV.UA&lt;/div&gt;&lt;/b&gt;&lt;div&gt;[Software System]&lt;/div&gt;&lt;div&gt;&lt;br&gt;&lt;/div&gt;" style="html=1;whiteSpace=wrap;fillColor=#eeeeee;strokeColor=#36393d;" vertex="1" parent="1">
          <mxGeometry x="4500" y="290" width="170" height="120" as="geometry" />
        </mxCell>
        <mxCell id="yh0qmV7Q8T8gITBxbPLc-3" style="edgeStyle=orthogonalEdgeStyle;rounded=0;orthogonalLoop=1;jettySize=auto;html=1;exitX=0;exitY=0.25;exitDx=0;exitDy=0;entryX=1;entryY=0.25;entryDx=0;entryDy=0;dashed=1;dashPattern=12 12;curved=1;" edge="1" parent="1" source="vc3mzGpSWYyIXPZZfmV_-17" target="vc3mzGpSWYyIXPZZfmV_-12">
          <mxGeometry relative="1" as="geometry" />
        </mxCell>
        <mxCell id="yh0qmV7Q8T8gITBxbPLc-4" value="API &lt;span style=&quot;font-size: 12px;&quot;&gt;questionnaires export,&lt;br&gt;notification about &lt;br&gt;new q&lt;/span&gt;&lt;span style=&quot;font-size: 12px;&quot;&gt;uestionnaires&lt;/span&gt;" style="edgeLabel;html=1;align=center;verticalAlign=middle;resizable=0;points=[];" connectable="0" vertex="1" parent="yh0qmV7Q8T8gITBxbPLc-3">
          <mxGeometry x="0.223" y="3" relative="1" as="geometry">
            <mxPoint x="29" y="-18" as="offset" />
          </mxGeometry>
        </mxCell>
        <mxCell id="vc3mzGpSWYyIXPZZfmV_-17" value="&lt;div&gt;&lt;b&gt;&lt;br&gt;&lt;/b&gt;&lt;/div&gt;&lt;b&gt;ДАР&lt;br&gt;&lt;/b&gt;&lt;div&gt;[Software System]&lt;/div&gt;&lt;div&gt;&lt;br&gt;&lt;/div&gt;" style="html=1;whiteSpace=wrap;fillColor=#eeeeee;strokeColor=#36393d;" vertex="1" parent="1">
          <mxGeometry x="5140" y="290" width="170" height="120" as="geometry" />
        </mxCell>
        <mxCell id="vc3mzGpSWYyIXPZZfmV_-18" value="&lt;font style=&quot;font-size: 48px;&quot;&gt;System Contect Diagram&lt;/font&gt;" style="text;html=1;align=center;verticalAlign=middle;resizable=0;points=[];autosize=1;strokeColor=none;fillColor=none;" vertex="1" parent="1">
          <mxGeometry x="4625" y="-110" width="560" height="70" as="geometry" />
        </mxCell>
        <mxCell id="yh0qmV7Q8T8gITBxbPLc-5" value="" style="html=1;whiteSpace=wrap;" vertex="1" parent="1">
          <mxGeometry x="5150" y="480" width="990" height="1030" as="geometry" />
        </mxCell>
        <mxCell id="yh0qmV7Q8T8gITBxbPLc-6" value="" style="rounded=0;whiteSpace=wrap;html=1;fillColor=none;strokeColor=#87FFA3;strokeWidth=3;dashed=1;dashPattern=12 12;align=left;glass=0;shadow=0;" vertex="1" parent="1">
          <mxGeometry x="5185" y="840" width="700" height="640" as="geometry" />
        </mxCell>
        <mxCell id="yh0qmV7Q8T8gITBxbPLc-179" style="edgeStyle=orthogonalEdgeStyle;rounded=0;orthogonalLoop=1;jettySize=auto;html=1;exitX=1;exitY=1;exitDx=0;exitDy=0;entryX=0;entryY=0;entryDx=0;entryDy=0;curved=1;strokeWidth=3;strokeColor=#FFE599;" edge="1" parent="1" source="yh0qmV7Q8T8gITBxbPLc-7" target="yh0qmV7Q8T8gITBxbPLc-58">
          <mxGeometry relative="1" as="geometry" />
        </mxCell>
        <mxCell id="yh0qmV7Q8T8gITBxbPLc-7" value="" style="rounded=1;whiteSpace=wrap;html=1;fillColor=none;strokeColor=#FFE599;strokeWidth=3;" vertex="1" parent="1">
          <mxGeometry x="5540" y="1050" width="205" height="160" as="geometry" />
        </mxCell>
        <mxCell id="yh0qmV7Q8T8gITBxbPLc-8" value="&lt;font style=&quot;font-size: 48px;&quot;&gt;Container Diagram&lt;/font&gt;" style="text;html=1;align=center;verticalAlign=middle;resizable=0;points=[];autosize=1;strokeColor=none;fillColor=none;" vertex="1" parent="1">
          <mxGeometry x="5430" y="480" width="430" height="70" as="geometry" />
        </mxCell>
        <mxCell id="yh0qmV7Q8T8gITBxbPLc-40" value="&lt;span style=&quot;font-size: 12px;&quot;&gt;Data&amp;nbsp;&lt;/span&gt;&lt;br style=&quot;font-size: 12px;&quot;&gt;&lt;span style=&quot;font-size: 12px;&quot;&gt;encryption&lt;/span&gt;" style="edgeStyle=orthogonalEdgeStyle;rounded=0;orthogonalLoop=1;jettySize=auto;html=1;exitX=1;exitY=0.5;exitDx=0;exitDy=0;dashed=1;dashPattern=12 12;curved=1;" edge="1" parent="1" source="yh0qmV7Q8T8gITBxbPLc-11" target="yh0qmV7Q8T8gITBxbPLc-35">
          <mxGeometry relative="1" as="geometry" />
        </mxCell>
        <mxCell id="yh0qmV7Q8T8gITBxbPLc-113" style="edgeStyle=orthogonalEdgeStyle;rounded=0;orthogonalLoop=1;jettySize=auto;html=1;exitX=0.5;exitY=1;exitDx=0;exitDy=0;entryX=0.75;entryY=0;entryDx=0;entryDy=0;dashed=1;dashPattern=12 12;curved=1;" edge="1" parent="1" source="yh0qmV7Q8T8gITBxbPLc-11" target="yh0qmV7Q8T8gITBxbPLc-24">
          <mxGeometry relative="1" as="geometry" />
        </mxCell>
        <mxCell id="yh0qmV7Q8T8gITBxbPLc-114" value="&lt;span style=&quot;font-size: 12px;&quot;&gt;Makes API calls to&lt;/span&gt;&lt;br style=&quot;font-size: 12px;&quot;&gt;&lt;span style=&quot;font-size: 12px;&quot;&gt;[JSON/HTTPS]&lt;/span&gt;" style="edgeLabel;html=1;align=center;verticalAlign=middle;resizable=0;points=[];" connectable="0" vertex="1" parent="yh0qmV7Q8T8gITBxbPLc-113">
          <mxGeometry x="-0.2915" y="4" relative="1" as="geometry">
            <mxPoint as="offset" />
          </mxGeometry>
        </mxCell>
        <mxCell id="yh0qmV7Q8T8gITBxbPLc-11" value="&lt;b&gt;Questionnaire App&lt;/b&gt;&lt;br&gt;&lt;div&gt;&lt;font style=&quot;font-size: 11px;&quot;&gt;[Container: Angular &amp;amp; TS]&lt;/font&gt;&lt;/div&gt;&lt;div&gt;&lt;font style=&quot;font-size: 11px;&quot;&gt;Provides questionnaire &lt;br&gt;management service&lt;/font&gt;&lt;/div&gt;" style="rounded=1;whiteSpace=wrap;html=1;fillColor=#b0e3e6;strokeColor=#0e8088;" vertex="1" parent="1">
          <mxGeometry x="5565" y="860" width="200" height="100" as="geometry" />
        </mxCell>
        <mxCell id="yh0qmV7Q8T8gITBxbPLc-12" style="edgeStyle=orthogonalEdgeStyle;rounded=0;orthogonalLoop=1;jettySize=auto;html=1;exitX=0.5;exitY=1;exitDx=0;exitDy=0;dashed=1;dashPattern=12 12;" edge="1" parent="1" source="yh0qmV7Q8T8gITBxbPLc-14" target="yh0qmV7Q8T8gITBxbPLc-15">
          <mxGeometry relative="1" as="geometry" />
        </mxCell>
        <mxCell id="yh0qmV7Q8T8gITBxbPLc-13" value="&lt;font style=&quot;font-size: 12px;&quot;&gt;Generate PDF&lt;/font&gt;" style="edgeLabel;html=1;align=center;verticalAlign=middle;resizable=0;points=[];" connectable="0" vertex="1" parent="yh0qmV7Q8T8gITBxbPLc-12">
          <mxGeometry x="-0.0129" y="-1" relative="1" as="geometry">
            <mxPoint x="1" y="-5" as="offset" />
          </mxGeometry>
        </mxCell>
        <mxCell id="yh0qmV7Q8T8gITBxbPLc-111" style="edgeStyle=orthogonalEdgeStyle;rounded=0;orthogonalLoop=1;jettySize=auto;html=1;exitX=1;exitY=0.5;exitDx=0;exitDy=0;entryX=0.25;entryY=0;entryDx=0;entryDy=0;dashed=1;dashPattern=12 12;curved=1;" edge="1" parent="1" source="yh0qmV7Q8T8gITBxbPLc-14" target="yh0qmV7Q8T8gITBxbPLc-24">
          <mxGeometry relative="1" as="geometry">
            <Array as="points">
              <mxPoint x="5425" y="960" />
              <mxPoint x="5600" y="960" />
            </Array>
          </mxGeometry>
        </mxCell>
        <mxCell id="yh0qmV7Q8T8gITBxbPLc-112" value="&lt;span style=&quot;font-size: 12px;&quot;&gt;Makes API calls to&lt;/span&gt;&lt;br style=&quot;font-size: 12px;&quot;&gt;&lt;span style=&quot;font-size: 12px;&quot;&gt;[JSON/HTTPS]&lt;/span&gt;" style="edgeLabel;html=1;align=center;verticalAlign=middle;resizable=0;points=[];" connectable="0" vertex="1" parent="yh0qmV7Q8T8gITBxbPLc-111">
          <mxGeometry x="-0.6864" y="4" relative="1" as="geometry">
            <mxPoint x="67" y="4" as="offset" />
          </mxGeometry>
        </mxCell>
        <mxCell id="yh0qmV7Q8T8gITBxbPLc-14" value="&lt;b&gt;Admin Panel App&lt;/b&gt;&lt;div&gt;&lt;font style=&quot;font-size: 11px;&quot;&gt;[Container: Angular &amp;amp; TS]&lt;/font&gt;&lt;/div&gt;&lt;div&gt;&lt;font style=&quot;&quot;&gt;&lt;span style=&quot;font-size: 11px;&quot;&gt;Provides reporting &amp;amp; analytics,&lt;/span&gt;&lt;br&gt;&lt;span style=&quot;font-size: 11px;&quot;&gt;user management,&lt;/span&gt;&lt;/font&gt;&lt;/div&gt;&lt;div&gt;&lt;font style=&quot;&quot;&gt;&lt;span style=&quot;font-size: 11px;&quot;&gt;questionnaire view &amp;amp; export service&lt;/span&gt;&lt;/font&gt;&lt;/div&gt;" style="rounded=1;whiteSpace=wrap;html=1;fillColor=#b0e3e6;strokeColor=#0e8088;" vertex="1" parent="1">
          <mxGeometry x="5225" y="860" width="200" height="100" as="geometry" />
        </mxCell>
        <mxCell id="yh0qmV7Q8T8gITBxbPLc-15" value="&lt;b&gt;PDF Generate Servise&lt;/b&gt;&lt;div&gt;&lt;font style=&quot;font-size: 11px;&quot;&gt;[Container: TS]&lt;/font&gt;&lt;/div&gt;&lt;div&gt;Convert q&lt;span style=&quot;font-size: 11px; background-color: transparent; color: light-dark(rgb(0, 0, 0), rgb(255, 255, 255));&quot;&gt;uestionnaire&amp;nbsp;&lt;br&gt;&lt;/span&gt;&lt;span style=&quot;background-color: transparent; color: light-dark(rgb(0, 0, 0), rgb(255, 255, 255));&quot;&gt;JSON to PDF&lt;/span&gt;&lt;/div&gt;" style="rounded=1;whiteSpace=wrap;html=1;fillColor=#b0e3e6;strokeColor=#0e8088;" vertex="1" parent="1">
          <mxGeometry x="5225" y="1020" width="200" height="100" as="geometry" />
        </mxCell>
        <mxCell id="yh0qmV7Q8T8gITBxbPLc-16" style="edgeStyle=orthogonalEdgeStyle;rounded=0;orthogonalLoop=1;jettySize=auto;html=1;curved=1;dashed=1;dashPattern=12 12;exitX=0.5;exitY=1;exitDx=0;exitDy=0;" edge="1" parent="1" source="yh0qmV7Q8T8gITBxbPLc-18" target="yh0qmV7Q8T8gITBxbPLc-14">
          <mxGeometry relative="1" as="geometry">
            <mxPoint x="5453" y="900" as="targetPoint" />
          </mxGeometry>
        </mxCell>
        <mxCell id="yh0qmV7Q8T8gITBxbPLc-17" value="&lt;span style=&quot;font-size: 12px;&quot;&gt;Views admin functionality&lt;/span&gt;" style="edgeLabel;html=1;align=center;verticalAlign=middle;resizable=0;points=[];" connectable="0" vertex="1" parent="yh0qmV7Q8T8gITBxbPLc-16">
          <mxGeometry x="-0.1414" y="5" relative="1" as="geometry">
            <mxPoint x="-5" y="-8" as="offset" />
          </mxGeometry>
        </mxCell>
        <mxCell id="yh0qmV7Q8T8gITBxbPLc-18" value="&lt;div&gt;&lt;br&gt;&lt;/div&gt;&lt;div&gt;&lt;br&gt;&lt;/div&gt;&lt;div&gt;&lt;br&gt;&lt;/div&gt;&lt;div&gt;&lt;br&gt;&lt;/div&gt;&lt;div&gt;&lt;br&gt;&lt;/div&gt;&lt;b&gt;System Administrator&lt;/b&gt;&lt;br&gt;&lt;div&gt;[Person]&lt;/div&gt;" style="shape=actor;whiteSpace=wrap;html=1;fillColor=#cdeb8b;strokeColor=#36393d;" vertex="1" parent="1">
          <mxGeometry x="5240" y="580" width="170" height="190" as="geometry" />
        </mxCell>
        <mxCell id="yh0qmV7Q8T8gITBxbPLc-19" style="edgeStyle=orthogonalEdgeStyle;rounded=0;orthogonalLoop=1;jettySize=auto;html=1;entryX=0.5;entryY=0;entryDx=0;entryDy=0;curved=1;dashed=1;dashPattern=12 12;exitX=0.5;exitY=1;exitDx=0;exitDy=0;" edge="1" parent="1" source="yh0qmV7Q8T8gITBxbPLc-21" target="yh0qmV7Q8T8gITBxbPLc-11">
          <mxGeometry relative="1" as="geometry">
            <mxPoint x="5538" y="900" as="targetPoint" />
          </mxGeometry>
        </mxCell>
        <mxCell id="yh0qmV7Q8T8gITBxbPLc-20" value="&lt;span style=&quot;font-size: 12px;&quot;&gt;Views questionnaire service&lt;/span&gt;" style="edgeLabel;html=1;align=center;verticalAlign=middle;resizable=0;points=[];" connectable="0" vertex="1" parent="yh0qmV7Q8T8gITBxbPLc-19">
          <mxGeometry x="0.1051" y="3" relative="1" as="geometry">
            <mxPoint x="-3" y="-14" as="offset" />
          </mxGeometry>
        </mxCell>
        <mxCell id="yh0qmV7Q8T8gITBxbPLc-21" value="&lt;div&gt;&lt;br&gt;&lt;/div&gt;&lt;div&gt;&lt;br&gt;&lt;/div&gt;&lt;div&gt;&lt;br&gt;&lt;/div&gt;&lt;div&gt;&lt;br&gt;&lt;/div&gt;&lt;div&gt;&lt;br&gt;&lt;/div&gt;&lt;b&gt;End-User&lt;/b&gt;&lt;br&gt;&lt;div&gt;[Person]&lt;/div&gt;" style="shape=actor;whiteSpace=wrap;html=1;fillColor=#cdeb8b;strokeColor=#36393d;" vertex="1" parent="1">
          <mxGeometry x="5580" y="580" width="170" height="190" as="geometry" />
        </mxCell>
        <mxCell id="yh0qmV7Q8T8gITBxbPLc-43" style="edgeStyle=orthogonalEdgeStyle;rounded=0;orthogonalLoop=1;jettySize=auto;html=1;exitX=1;exitY=0.75;exitDx=0;exitDy=0;entryX=0;entryY=0.75;entryDx=0;entryDy=0;dashed=1;dashPattern=12 12;curved=1;" edge="1" parent="1" source="yh0qmV7Q8T8gITBxbPLc-24" target="yh0qmV7Q8T8gITBxbPLc-39">
          <mxGeometry relative="1" as="geometry" />
        </mxCell>
        <mxCell id="yh0qmV7Q8T8gITBxbPLc-44" value="&lt;span style=&quot;font-size: 12px;&quot;&gt;Authorization,&lt;/span&gt;&lt;br style=&quot;font-size: 12px;&quot;&gt;&lt;span style=&quot;font-size: 12px;&quot;&gt;user management,&lt;br&gt;user additional info,&lt;br&gt;data decryption&lt;/span&gt;" style="edgeLabel;html=1;align=center;verticalAlign=middle;resizable=0;points=[];" connectable="0" vertex="1" parent="yh0qmV7Q8T8gITBxbPLc-43">
          <mxGeometry x="-0.1795" y="1" relative="1" as="geometry">
            <mxPoint x="28" y="36" as="offset" />
          </mxGeometry>
        </mxCell>
        <mxCell id="yh0qmV7Q8T8gITBxbPLc-24" value="&lt;div&gt;&lt;b style=&quot;background-color: transparent; color: light-dark(rgb(0, 0, 0), rgb(255, 255, 255));&quot;&gt;API Application&lt;/b&gt;&lt;/div&gt;&lt;div&gt;&lt;font style=&quot;font-size: 11px;&quot;&gt;[Container:&lt;span style=&quot;background-color: transparent; color: light-dark(rgb(0, 0, 0), rgb(255, 255, 255));&quot;&gt;&amp;nbsp;Node &amp;amp; NestJS&lt;/span&gt;&lt;span style=&quot;background-color: transparent; color: light-dark(rgb(0, 0, 0), rgb(255, 255, 255));&quot;&gt;]&lt;/span&gt;&lt;/font&gt;&lt;/div&gt;&lt;div&gt;Provides full questionnaire functionality via &lt;br&gt;JSON/HTTPS API&lt;/div&gt;" style="html=1;whiteSpace=wrap;fillColor=#dae8fc;strokeColor=#6c8ebf;" vertex="1" parent="1">
          <mxGeometry x="5557.5" y="1070" width="170" height="120" as="geometry" />
        </mxCell>
        <mxCell id="yh0qmV7Q8T8gITBxbPLc-29" value="&lt;b&gt;Database&lt;/b&gt;&lt;div&gt;[Container: MongeDB or PostgreSQL or SQLite]&lt;br&gt;Stores questionnaires&lt;/div&gt;" style="shape=cylinder3;whiteSpace=wrap;html=1;boundedLbl=1;backgroundOutline=1;size=15;fillColor=#d5e8d4;strokeColor=#82b366;" vertex="1" parent="1">
          <mxGeometry x="5245" y="1280" width="160" height="140" as="geometry" />
        </mxCell>
        <mxCell id="yh0qmV7Q8T8gITBxbPLc-30" value="&lt;b&gt;Database&lt;/b&gt;&lt;div&gt;[Container: Redis]&lt;br&gt;Stores temporary &lt;br&gt;information, user session&lt;/div&gt;" style="shape=cylinder3;whiteSpace=wrap;html=1;boundedLbl=1;backgroundOutline=1;size=15;fillColor=#d5e8d4;strokeColor=#82b366;" vertex="1" parent="1">
          <mxGeometry x="5455" y="1280" width="160" height="140" as="geometry" />
        </mxCell>
        <mxCell id="yh0qmV7Q8T8gITBxbPLc-35" value="&lt;div&gt;&lt;b&gt;&lt;br&gt;&lt;/b&gt;&lt;/div&gt;&lt;b&gt;&lt;div&gt;ID.GOV.UA&lt;/div&gt;&lt;/b&gt;&lt;div&gt;[Software System]&lt;/div&gt;&lt;div&gt;&lt;br&gt;&lt;/div&gt;" style="html=1;whiteSpace=wrap;fillColor=#eeeeee;strokeColor=#36393d;" vertex="1" parent="1">
          <mxGeometry x="5935" y="850" width="170" height="120" as="geometry" />
        </mxCell>
        <mxCell id="yh0qmV7Q8T8gITBxbPLc-41" style="edgeStyle=orthogonalEdgeStyle;rounded=0;orthogonalLoop=1;jettySize=auto;html=1;exitX=0;exitY=0.25;exitDx=0;exitDy=0;entryX=1;entryY=0.25;entryDx=0;entryDy=0;dashed=1;dashPattern=12 12;curved=1;" edge="1" parent="1" source="yh0qmV7Q8T8gITBxbPLc-39" target="yh0qmV7Q8T8gITBxbPLc-24">
          <mxGeometry relative="1" as="geometry" />
        </mxCell>
        <mxCell id="yh0qmV7Q8T8gITBxbPLc-42" value="API&amp;nbsp;&lt;span style=&quot;font-size: 12px;&quot;&gt;questionnaires export,&lt;br&gt;notification about&lt;br&gt;new q&lt;/span&gt;&lt;span style=&quot;font-size: 12px;&quot;&gt;uestionnaires&lt;/span&gt;" style="edgeLabel;html=1;align=center;verticalAlign=middle;resizable=0;points=[];" connectable="0" vertex="1" parent="yh0qmV7Q8T8gITBxbPLc-41">
          <mxGeometry x="-0.1309" y="-1" relative="1" as="geometry">
            <mxPoint x="-4" y="-29" as="offset" />
          </mxGeometry>
        </mxCell>
        <mxCell id="yh0qmV7Q8T8gITBxbPLc-39" value="&lt;div&gt;&lt;b&gt;&lt;br&gt;&lt;/b&gt;&lt;/div&gt;&lt;b&gt;ДАР&lt;br&gt;&lt;/b&gt;&lt;div&gt;[Software System]&lt;/div&gt;&lt;div&gt;&lt;br&gt;&lt;/div&gt;" style="html=1;whiteSpace=wrap;fillColor=#eeeeee;strokeColor=#36393d;" vertex="1" parent="1">
          <mxGeometry x="5935" y="1070" width="170" height="120" as="geometry" />
        </mxCell>
        <mxCell id="yh0qmV7Q8T8gITBxbPLc-46" value="&lt;b&gt;Object storage&lt;/b&gt;&lt;div&gt;[Container: MinIO]&lt;br&gt;Stores files and PDF&#39;s&lt;/div&gt;" style="shape=cylinder3;whiteSpace=wrap;html=1;boundedLbl=1;backgroundOutline=1;size=15;fillColor=#d5e8d4;strokeColor=#82b366;" vertex="1" parent="1">
          <mxGeometry x="5665" y="1280" width="160" height="140" as="geometry" />
        </mxCell>
        <mxCell id="yh0qmV7Q8T8gITBxbPLc-47" style="edgeStyle=orthogonalEdgeStyle;rounded=0;orthogonalLoop=1;jettySize=auto;html=1;exitX=0;exitY=0.75;exitDx=0;exitDy=0;entryX=0.5;entryY=0;entryDx=0;entryDy=0;entryPerimeter=0;dashed=1;dashPattern=12 12;curved=1;" edge="1" parent="1" source="yh0qmV7Q8T8gITBxbPLc-24" target="yh0qmV7Q8T8gITBxbPLc-29">
          <mxGeometry relative="1" as="geometry" />
        </mxCell>
        <mxCell id="yh0qmV7Q8T8gITBxbPLc-48" value="&lt;span style=&quot;color: rgb(0, 0, 0); background-color: rgb(255, 255, 255); float: none; display: inline !important;&quot;&gt;Reads from and&lt;/span&gt;&lt;br style=&quot;color: rgb(0, 0, 0); background-color: rgb(251, 251, 251);&quot;&gt;&lt;span style=&quot;color: rgb(0, 0, 0); background-color: rgb(255, 255, 255); float: none; display: inline !important;&quot;&gt;writes to&lt;/span&gt;" style="edgeLabel;html=1;align=center;verticalAlign=middle;resizable=0;points=[];" connectable="0" vertex="1" parent="yh0qmV7Q8T8gITBxbPLc-47">
          <mxGeometry x="-0.2223" y="1" relative="1" as="geometry">
            <mxPoint x="-15" y="19" as="offset" />
          </mxGeometry>
        </mxCell>
        <mxCell id="yh0qmV7Q8T8gITBxbPLc-49" style="edgeStyle=orthogonalEdgeStyle;rounded=0;orthogonalLoop=1;jettySize=auto;html=1;exitX=0.25;exitY=1;exitDx=0;exitDy=0;entryX=0.5;entryY=0;entryDx=0;entryDy=0;entryPerimeter=0;dashed=1;dashPattern=12 12;curved=1;" edge="1" parent="1" source="yh0qmV7Q8T8gITBxbPLc-24" target="yh0qmV7Q8T8gITBxbPLc-30">
          <mxGeometry relative="1" as="geometry" />
        </mxCell>
        <mxCell id="yh0qmV7Q8T8gITBxbPLc-50" value="&lt;span style=&quot;color: rgb(0, 0, 0); background-color: rgb(255, 255, 255); float: none; display: inline !important;&quot;&gt;Reads from and&lt;/span&gt;&lt;br style=&quot;color: rgb(0, 0, 0); background-color: rgb(251, 251, 251);&quot;&gt;&lt;span style=&quot;color: rgb(0, 0, 0); background-color: rgb(255, 255, 255); float: none; display: inline !important;&quot;&gt;writes to&lt;/span&gt;" style="edgeLabel;html=1;align=center;verticalAlign=middle;resizable=0;points=[];" connectable="0" vertex="1" parent="yh0qmV7Q8T8gITBxbPLc-49">
          <mxGeometry x="0.1893" y="3" relative="1" as="geometry">
            <mxPoint as="offset" />
          </mxGeometry>
        </mxCell>
        <mxCell id="yh0qmV7Q8T8gITBxbPLc-51" style="edgeStyle=orthogonalEdgeStyle;rounded=0;orthogonalLoop=1;jettySize=auto;html=1;exitX=0.75;exitY=1;exitDx=0;exitDy=0;entryX=0.5;entryY=0;entryDx=0;entryDy=0;entryPerimeter=0;dashed=1;dashPattern=12 12;curved=1;" edge="1" parent="1" source="yh0qmV7Q8T8gITBxbPLc-24" target="yh0qmV7Q8T8gITBxbPLc-46">
          <mxGeometry relative="1" as="geometry" />
        </mxCell>
        <mxCell id="yh0qmV7Q8T8gITBxbPLc-52" value="&lt;span style=&quot;color: rgb(0, 0, 0); background-color: rgb(255, 255, 255); float: none; display: inline !important;&quot;&gt;Reads from and&lt;/span&gt;&lt;br style=&quot;color: rgb(0, 0, 0); background-color: rgb(251, 251, 251);&quot;&gt;&lt;span style=&quot;color: rgb(0, 0, 0); background-color: rgb(255, 255, 255); float: none; display: inline !important;&quot;&gt;writes to&lt;/span&gt;" style="edgeLabel;html=1;align=center;verticalAlign=middle;resizable=0;points=[];" connectable="0" vertex="1" parent="yh0qmV7Q8T8gITBxbPLc-51">
          <mxGeometry x="-0.2451" y="1" relative="1" as="geometry">
            <mxPoint as="offset" />
          </mxGeometry>
        </mxCell>
        <mxCell id="yh0qmV7Q8T8gITBxbPLc-53" style="edgeStyle=orthogonalEdgeStyle;rounded=0;orthogonalLoop=1;jettySize=auto;html=1;exitX=0.75;exitY=1;exitDx=0;exitDy=0;entryX=0;entryY=0.25;entryDx=0;entryDy=0;curved=1;strokeWidth=3;strokeColor=#87FFA3;" edge="1" parent="1" source="vc3mzGpSWYyIXPZZfmV_-2" target="yh0qmV7Q8T8gITBxbPLc-6">
          <mxGeometry relative="1" as="geometry" />
        </mxCell>
        <mxCell id="yh0qmV7Q8T8gITBxbPLc-55" value="&lt;font style=&quot;text-align: left; font-size: 18px; color: rgb(135, 255, 163);&quot;&gt;&lt;b&gt;User Profile System&lt;/b&gt;&lt;/font&gt;&lt;div style=&quot;text-align: left;&quot;&gt;&lt;font style=&quot;font-size: 18px; color: rgb(135, 255, 163);&quot;&gt;&lt;b&gt;[Software System]&lt;/b&gt;&lt;/font&gt;&lt;/div&gt;" style="text;html=1;align=center;verticalAlign=middle;whiteSpace=wrap;rounded=0;" vertex="1" parent="1">
          <mxGeometry x="5200" y="1425" width="185" height="50" as="geometry" />
        </mxCell>
        <mxCell id="yh0qmV7Q8T8gITBxbPLc-60" value="&lt;span style=&quot;font-size: 12px;&quot;&gt;Data&amp;nbsp;&lt;/span&gt;&lt;br style=&quot;font-size: 12px;&quot;&gt;&lt;span style=&quot;font-size: 12px;&quot;&gt;encryption&lt;/span&gt;" style="edgeStyle=orthogonalEdgeStyle;rounded=0;orthogonalLoop=1;jettySize=auto;html=1;exitX=1;exitY=0.5;exitDx=0;exitDy=0;dashed=1;dashPattern=12 12;curved=1;" edge="1" parent="1" source="yh0qmV7Q8T8gITBxbPLc-61" target="yh0qmV7Q8T8gITBxbPLc-81">
          <mxGeometry relative="1" as="geometry" />
        </mxCell>
        <mxCell id="yh0qmV7Q8T8gITBxbPLc-61" value="&lt;b&gt;Questionnaire App&lt;/b&gt;&lt;br&gt;&lt;div&gt;&lt;font style=&quot;font-size: 11px;&quot;&gt;[Container: Angular &amp;amp; TS]&lt;/font&gt;&lt;/div&gt;&lt;div&gt;&lt;font style=&quot;font-size: 11px;&quot;&gt;Provides questionnaire &lt;br&gt;management service&lt;/font&gt;&lt;/div&gt;" style="rounded=1;whiteSpace=wrap;html=1;fillColor=#b0e3e6;strokeColor=#0e8088;" vertex="1" parent="1">
          <mxGeometry x="7252.46" y="1180" width="200" height="100" as="geometry" />
        </mxCell>
        <mxCell id="yh0qmV7Q8T8gITBxbPLc-62" style="edgeStyle=orthogonalEdgeStyle;rounded=0;orthogonalLoop=1;jettySize=auto;html=1;exitX=0;exitY=0.5;exitDx=0;exitDy=0;dashed=1;dashPattern=12 12;" edge="1" parent="1" source="yh0qmV7Q8T8gITBxbPLc-64" target="yh0qmV7Q8T8gITBxbPLc-65">
          <mxGeometry relative="1" as="geometry" />
        </mxCell>
        <mxCell id="yh0qmV7Q8T8gITBxbPLc-63" value="&lt;font style=&quot;font-size: 12px;&quot;&gt;Generate &lt;br&gt;PDF&lt;/font&gt;" style="edgeLabel;html=1;align=center;verticalAlign=middle;resizable=0;points=[];" connectable="0" vertex="1" parent="yh0qmV7Q8T8gITBxbPLc-62">
          <mxGeometry x="-0.0129" y="-1" relative="1" as="geometry">
            <mxPoint x="1" y="1" as="offset" />
          </mxGeometry>
        </mxCell>
        <mxCell id="yh0qmV7Q8T8gITBxbPLc-64" value="&lt;b&gt;Admin Panel App&lt;/b&gt;&lt;div&gt;&lt;font style=&quot;font-size: 11px;&quot;&gt;[Container: Angular &amp;amp; TS]&lt;/font&gt;&lt;/div&gt;&lt;div&gt;&lt;font style=&quot;&quot;&gt;&lt;span style=&quot;font-size: 11px;&quot;&gt;Provides reporting &amp;amp; analytics,&lt;/span&gt;&lt;br&gt;&lt;span style=&quot;font-size: 11px;&quot;&gt;user management,&lt;/span&gt;&lt;/font&gt;&lt;/div&gt;&lt;div&gt;&lt;font style=&quot;&quot;&gt;&lt;span style=&quot;font-size: 11px;&quot;&gt;questionnaire view &amp;amp; export service&lt;/span&gt;&lt;/font&gt;&lt;/div&gt;" style="rounded=1;whiteSpace=wrap;html=1;fillColor=#b0e3e6;strokeColor=#0e8088;" vertex="1" parent="1">
          <mxGeometry x="6945.96" y="1180" width="200" height="100" as="geometry" />
        </mxCell>
        <mxCell id="yh0qmV7Q8T8gITBxbPLc-65" value="&lt;b&gt;PDF Generate Servise&lt;/b&gt;&lt;div&gt;&lt;font style=&quot;font-size: 11px;&quot;&gt;[Container: TS]&lt;/font&gt;&lt;/div&gt;&lt;div&gt;Convert q&lt;span style=&quot;font-size: 11px; background-color: transparent; color: light-dark(rgb(0, 0, 0), rgb(255, 255, 255));&quot;&gt;uestionnaire&amp;nbsp;&lt;br&gt;&lt;/span&gt;&lt;span style=&quot;background-color: transparent; color: light-dark(rgb(0, 0, 0), rgb(255, 255, 255));&quot;&gt;JSON to PDF&lt;/span&gt;&lt;/div&gt;" style="rounded=1;whiteSpace=wrap;html=1;fillColor=#b0e3e6;strokeColor=#0e8088;" vertex="1" parent="1">
          <mxGeometry x="6628.96" y="1180" width="200" height="100" as="geometry" />
        </mxCell>
        <mxCell id="yh0qmV7Q8T8gITBxbPLc-79" value="&lt;b&gt;Database&lt;/b&gt;&lt;div&gt;[Container: MongeDB or PostgreSQL or SQLite]&lt;br&gt;Stores questionnaires&lt;/div&gt;" style="shape=cylinder3;whiteSpace=wrap;html=1;boundedLbl=1;backgroundOutline=1;size=15;fillColor=#d5e8d4;strokeColor=#82b366;" vertex="1" parent="1">
          <mxGeometry x="6468.96" y="1840" width="160" height="140" as="geometry" />
        </mxCell>
        <mxCell id="yh0qmV7Q8T8gITBxbPLc-80" value="&lt;b&gt;Database&lt;/b&gt;&lt;div&gt;[Container: Redis]&lt;br&gt;Stores temporary &lt;br&gt;information, user session&lt;/div&gt;" style="shape=cylinder3;whiteSpace=wrap;html=1;boundedLbl=1;backgroundOutline=1;size=15;fillColor=#d5e8d4;strokeColor=#82b366;" vertex="1" parent="1">
          <mxGeometry x="7877" y="1416.56" width="160" height="140" as="geometry" />
        </mxCell>
        <mxCell id="yh0qmV7Q8T8gITBxbPLc-81" value="&lt;div&gt;&lt;b&gt;&lt;br&gt;&lt;/b&gt;&lt;/div&gt;&lt;b&gt;&lt;div&gt;ID.GOV.UA&lt;/div&gt;&lt;/b&gt;&lt;div&gt;[Software System]&lt;/div&gt;&lt;div&gt;&lt;br&gt;&lt;/div&gt;" style="html=1;whiteSpace=wrap;fillColor=#eeeeee;strokeColor=#36393d;" vertex="1" parent="1">
          <mxGeometry x="7587.46" y="1170" width="170" height="120" as="geometry" />
        </mxCell>
        <mxCell id="yh0qmV7Q8T8gITBxbPLc-152" style="edgeStyle=orthogonalEdgeStyle;rounded=0;orthogonalLoop=1;jettySize=auto;html=1;exitX=0;exitY=0.75;exitDx=0;exitDy=0;entryX=0.5;entryY=1;entryDx=0;entryDy=0;curved=1;dashed=1;dashPattern=12 12;" edge="1" parent="1" source="yh0qmV7Q8T8gITBxbPLc-84" target="yh0qmV7Q8T8gITBxbPLc-121">
          <mxGeometry relative="1" as="geometry">
            <Array as="points">
              <mxPoint x="7049" y="2130" />
            </Array>
          </mxGeometry>
        </mxCell>
        <mxCell id="yh0qmV7Q8T8gITBxbPLc-153" value="API&amp;nbsp;&lt;span style=&quot;font-size: 12px;&quot;&gt;questionnaires&lt;br&gt;export&lt;/span&gt;" style="edgeLabel;html=1;align=center;verticalAlign=middle;resizable=0;points=[];" connectable="0" vertex="1" parent="yh0qmV7Q8T8gITBxbPLc-152">
          <mxGeometry x="-0.1142" y="-8" relative="1" as="geometry">
            <mxPoint x="-86" y="-12" as="offset" />
          </mxGeometry>
        </mxCell>
        <mxCell id="yh0qmV7Q8T8gITBxbPLc-84" value="&lt;div&gt;&lt;b&gt;&lt;br&gt;&lt;/b&gt;&lt;/div&gt;&lt;b&gt;ДАР&lt;br&gt;&lt;/b&gt;&lt;div&gt;[Software System]&lt;/div&gt;&lt;div&gt;&lt;br&gt;&lt;/div&gt;" style="html=1;whiteSpace=wrap;fillColor=#eeeeee;strokeColor=#36393d;" vertex="1" parent="1">
          <mxGeometry x="7880" y="2040" width="170" height="120" as="geometry" />
        </mxCell>
        <mxCell id="yh0qmV7Q8T8gITBxbPLc-85" value="&lt;b&gt;Object storage&lt;/b&gt;&lt;div&gt;[Container: MinIO]&lt;br&gt;Stores files and PDF&#39;s&lt;/div&gt;" style="shape=cylinder3;whiteSpace=wrap;html=1;boundedLbl=1;backgroundOutline=1;size=15;fillColor=#d5e8d4;strokeColor=#82b366;" vertex="1" parent="1">
          <mxGeometry x="6440" y="1394" width="160" height="140" as="geometry" />
        </mxCell>
        <mxCell id="yh0qmV7Q8T8gITBxbPLc-93" value="Legend" style="swimlane;" vertex="1" parent="1">
          <mxGeometry x="5410" y="-110" width="210" height="450" as="geometry" />
        </mxCell>
        <mxCell id="yh0qmV7Q8T8gITBxbPLc-94" value="" style="shape=actor;whiteSpace=wrap;html=1;fillColor=#cdeb8b;strokeColor=#36393d;" vertex="1" parent="yh0qmV7Q8T8gITBxbPLc-93">
          <mxGeometry x="10" y="30" width="40" height="50" as="geometry" />
        </mxCell>
        <mxCell id="yh0qmV7Q8T8gITBxbPLc-95" value="Person, actor, stakeholder" style="text;html=1;align=center;verticalAlign=middle;resizable=0;points=[];autosize=1;strokeColor=none;fillColor=none;" vertex="1" parent="yh0qmV7Q8T8gITBxbPLc-93">
          <mxGeometry x="50" y="40" width="160" height="30" as="geometry" />
        </mxCell>
        <mxCell id="yh0qmV7Q8T8gITBxbPLc-96" value="&lt;div&gt;&lt;br&gt;&lt;/div&gt;" style="html=1;whiteSpace=wrap;fillColor=#d5e8d4;strokeColor=#82b366;" vertex="1" parent="yh0qmV7Q8T8gITBxbPLc-93">
          <mxGeometry x="10" y="100" width="40" height="30" as="geometry" />
        </mxCell>
        <mxCell id="yh0qmV7Q8T8gITBxbPLc-97" value="Sotfware system" style="text;html=1;align=center;verticalAlign=middle;resizable=0;points=[];autosize=1;strokeColor=none;fillColor=none;" vertex="1" parent="yh0qmV7Q8T8gITBxbPLc-93">
          <mxGeometry x="60" y="100" width="110" height="30" as="geometry" />
        </mxCell>
        <mxCell id="yh0qmV7Q8T8gITBxbPLc-98" value="&lt;div&gt;&lt;br&gt;&lt;/div&gt;" style="html=1;whiteSpace=wrap;fillColor=#f5f5f5;strokeColor=#666666;fontColor=#333333;" vertex="1" parent="yh0qmV7Q8T8gITBxbPLc-93">
          <mxGeometry x="10" y="255" width="40" height="30" as="geometry" />
        </mxCell>
        <mxCell id="yh0qmV7Q8T8gITBxbPLc-99" value="Sotfware system, &lt;br&gt;Existing system" style="text;html=1;align=center;verticalAlign=middle;resizable=0;points=[];autosize=1;strokeColor=none;fillColor=none;" vertex="1" parent="yh0qmV7Q8T8gITBxbPLc-93">
          <mxGeometry x="55" y="250" width="120" height="40" as="geometry" />
        </mxCell>
        <mxCell id="yh0qmV7Q8T8gITBxbPLc-100" value="" style="endArrow=block;endFill=1;html=1;edgeStyle=orthogonalEdgeStyle;align=left;verticalAlign=top;rounded=0;dashed=1;" edge="1" parent="yh0qmV7Q8T8gITBxbPLc-93">
          <mxGeometry x="-1" relative="1" as="geometry">
            <mxPoint x="10" y="315" as="sourcePoint" />
            <mxPoint x="60" y="315" as="targetPoint" />
          </mxGeometry>
        </mxCell>
        <mxCell id="yh0qmV7Q8T8gITBxbPLc-101" value="Relationship" style="text;html=1;align=center;verticalAlign=middle;resizable=0;points=[];autosize=1;strokeColor=none;fillColor=none;" vertex="1" parent="yh0qmV7Q8T8gITBxbPLc-93">
          <mxGeometry x="70" y="295" width="90" height="30" as="geometry" />
        </mxCell>
        <mxCell id="yh0qmV7Q8T8gITBxbPLc-102" value="" style="rounded=1;whiteSpace=wrap;html=1;fillColor=#b0e3e6;strokeColor=#0e8088;" vertex="1" parent="yh0qmV7Q8T8gITBxbPLc-93">
          <mxGeometry x="10" y="335" width="40" height="30" as="geometry" />
        </mxCell>
        <mxCell id="yh0qmV7Q8T8gITBxbPLc-103" value="Container, Web browser" style="text;html=1;align=center;verticalAlign=middle;resizable=0;points=[];autosize=1;strokeColor=none;fillColor=none;" vertex="1" parent="yh0qmV7Q8T8gITBxbPLc-93">
          <mxGeometry x="55" y="335" width="150" height="30" as="geometry" />
        </mxCell>
        <mxCell id="yh0qmV7Q8T8gITBxbPLc-104" value="" style="shape=cylinder3;whiteSpace=wrap;html=1;boundedLbl=1;backgroundOutline=1;size=15;fillColor=#d5e8d4;strokeColor=#82b366;" vertex="1" parent="yh0qmV7Q8T8gITBxbPLc-93">
          <mxGeometry x="10" y="385" width="40" height="50" as="geometry" />
        </mxCell>
        <mxCell id="yh0qmV7Q8T8gITBxbPLc-105" value="Container, Database" style="text;html=1;align=center;verticalAlign=middle;resizable=0;points=[];autosize=1;strokeColor=none;fillColor=none;" vertex="1" parent="yh0qmV7Q8T8gITBxbPLc-93">
          <mxGeometry x="60" y="395" width="130" height="30" as="geometry" />
        </mxCell>
        <mxCell id="yh0qmV7Q8T8gITBxbPLc-106" value="&lt;div&gt;&lt;br&gt;&lt;/div&gt;" style="html=1;whiteSpace=wrap;fillColor=#dae8fc;strokeColor=#6c8ebf;" vertex="1" parent="yh0qmV7Q8T8gITBxbPLc-93">
          <mxGeometry x="10" y="150" width="40" height="30" as="geometry" />
        </mxCell>
        <mxCell id="yh0qmV7Q8T8gITBxbPLc-107" value="&amp;nbsp; &amp;nbsp;Container, Backend app" style="text;html=1;align=center;verticalAlign=middle;resizable=0;points=[];autosize=1;strokeColor=none;fillColor=none;" vertex="1" parent="yh0qmV7Q8T8gITBxbPLc-93">
          <mxGeometry x="35" y="150" width="160" height="30" as="geometry" />
        </mxCell>
        <mxCell id="yh0qmV7Q8T8gITBxbPLc-108" value="&lt;div&gt;&lt;br&gt;&lt;/div&gt;" style="html=1;whiteSpace=wrap;fillColor=#cce5ff;strokeColor=#36393d;" vertex="1" parent="yh0qmV7Q8T8gITBxbPLc-93">
          <mxGeometry x="10" y="200" width="40" height="30" as="geometry" />
        </mxCell>
        <mxCell id="yh0qmV7Q8T8gITBxbPLc-109" value="&amp;nbsp; &amp;nbsp;Component" style="text;html=1;align=center;verticalAlign=middle;resizable=0;points=[];autosize=1;strokeColor=none;fillColor=none;" vertex="1" parent="yh0qmV7Q8T8gITBxbPLc-93">
          <mxGeometry x="65" y="200" width="100" height="30" as="geometry" />
        </mxCell>
        <mxCell id="yh0qmV7Q8T8gITBxbPLc-127" style="edgeStyle=orthogonalEdgeStyle;rounded=0;orthogonalLoop=1;jettySize=auto;html=1;exitX=1;exitY=0.75;exitDx=0;exitDy=0;entryX=0.75;entryY=0;entryDx=0;entryDy=0;curved=1;dashed=1;dashPattern=12 12;" edge="1" parent="1" source="yh0qmV7Q8T8gITBxbPLc-117" target="yh0qmV7Q8T8gITBxbPLc-84">
          <mxGeometry relative="1" as="geometry">
            <Array as="points">
              <mxPoint x="7758" y="1620" />
              <mxPoint x="8008" y="1620" />
            </Array>
          </mxGeometry>
        </mxCell>
        <mxCell id="yh0qmV7Q8T8gITBxbPLc-128" value="&lt;span style=&quot;font-size: 12px;&quot;&gt;Authorization,&lt;/span&gt;&lt;br style=&quot;font-size: 12px;&quot;&gt;&lt;span style=&quot;font-size: 12px;&quot;&gt;user management&lt;/span&gt;" style="edgeLabel;html=1;align=center;verticalAlign=middle;resizable=0;points=[];" connectable="0" vertex="1" parent="yh0qmV7Q8T8gITBxbPLc-127">
          <mxGeometry x="0.08" y="-66" relative="1" as="geometry">
            <mxPoint x="23" y="10" as="offset" />
          </mxGeometry>
        </mxCell>
        <mxCell id="yh0qmV7Q8T8gITBxbPLc-131" style="edgeStyle=orthogonalEdgeStyle;rounded=0;orthogonalLoop=1;jettySize=auto;html=1;exitX=1;exitY=0.5;exitDx=0;exitDy=0;entryX=0.25;entryY=0;entryDx=0;entryDy=0;curved=1;dashed=1;dashPattern=12 12;" edge="1" parent="1" source="yh0qmV7Q8T8gITBxbPLc-125" target="yh0qmV7Q8T8gITBxbPLc-84">
          <mxGeometry relative="1" as="geometry" />
        </mxCell>
        <mxCell id="yh0qmV7Q8T8gITBxbPLc-132" value="&lt;font style=&quot;font-size: 12px;&quot;&gt;Send&amp;nbsp;notification about&lt;br&gt;new questionnaires&lt;/font&gt;" style="edgeLabel;html=1;align=center;verticalAlign=middle;resizable=0;points=[];" connectable="0" vertex="1" parent="yh0qmV7Q8T8gITBxbPLc-131">
          <mxGeometry x="-0.3577" y="-19" relative="1" as="geometry">
            <mxPoint as="offset" />
          </mxGeometry>
        </mxCell>
        <mxCell id="yh0qmV7Q8T8gITBxbPLc-134" style="edgeStyle=orthogonalEdgeStyle;rounded=0;orthogonalLoop=1;jettySize=auto;html=1;exitX=1;exitY=0.5;exitDx=0;exitDy=0;curved=1;dashed=1;dashPattern=12 12;" edge="1" parent="1" source="yh0qmV7Q8T8gITBxbPLc-122" target="yh0qmV7Q8T8gITBxbPLc-84">
          <mxGeometry relative="1" as="geometry" />
        </mxCell>
        <mxCell id="yh0qmV7Q8T8gITBxbPLc-135" value="&lt;span style=&quot;font-size: 12px;&quot;&gt;Data decryption&lt;/span&gt;" style="edgeLabel;html=1;align=center;verticalAlign=middle;resizable=0;points=[];" connectable="0" vertex="1" parent="yh0qmV7Q8T8gITBxbPLc-134">
          <mxGeometry x="0.0256" y="3" relative="1" as="geometry">
            <mxPoint x="-78" y="47" as="offset" />
          </mxGeometry>
        </mxCell>
        <mxCell id="yh0qmV7Q8T8gITBxbPLc-115" value="&lt;font style=&quot;forced-color-adjust: none; font-family: Helvetica; font-style: normal; font-variant-ligatures: normal; font-variant-caps: normal; font-weight: 400; letter-spacing: normal; orphans: 2; text-indent: 0px; text-transform: none; widows: 2; word-spacing: 0px; -webkit-text-stroke-width: 0px; white-space: normal; background-color: rgb(251, 251, 251); text-decoration-thickness: initial; text-decoration-style: initial; text-decoration-color: initial; text-align: left; font-size: 18px; color: rgb(255, 229, 153);&quot;&gt;&lt;b style=&quot;forced-color-adjust: none;&quot;&gt;API Application&lt;/b&gt;&lt;/font&gt;&lt;div style=&quot;forced-color-adjust: none; font-family: Helvetica; font-size: 12px; font-style: normal; font-variant-ligatures: normal; font-variant-caps: normal; font-weight: 400; letter-spacing: normal; orphans: 2; text-indent: 0px; text-transform: none; widows: 2; word-spacing: 0px; -webkit-text-stroke-width: 0px; white-space: normal; background-color: rgb(251, 251, 251); text-decoration-thickness: initial; text-decoration-style: initial; text-decoration-color: initial; text-align: left;&quot;&gt;&lt;font style=&quot;forced-color-adjust: none; font-size: 18px; color: rgb(255, 229, 153);&quot;&gt;&lt;b style=&quot;forced-color-adjust: none;&quot;&gt;[Container]&lt;/b&gt;&lt;/font&gt;&lt;/div&gt;" style="text;whiteSpace=wrap;html=1;" vertex="1" parent="1">
          <mxGeometry x="6670" y="2020" width="150" height="56.65" as="geometry" />
        </mxCell>
        <mxCell id="yh0qmV7Q8T8gITBxbPLc-158" style="edgeStyle=orthogonalEdgeStyle;rounded=0;orthogonalLoop=1;jettySize=auto;html=1;exitX=1;exitY=0.5;exitDx=0;exitDy=0;curved=1;dashed=1;dashPattern=12 12;" edge="1" parent="1" source="yh0qmV7Q8T8gITBxbPLc-117" target="yh0qmV7Q8T8gITBxbPLc-80">
          <mxGeometry relative="1" as="geometry" />
        </mxCell>
        <mxCell id="yh0qmV7Q8T8gITBxbPLc-159" value="Reads from&lt;br&gt;and writes to" style="edgeLabel;html=1;align=center;verticalAlign=middle;resizable=0;points=[];" connectable="0" vertex="1" parent="yh0qmV7Q8T8gITBxbPLc-158">
          <mxGeometry x="-0.1135" relative="1" as="geometry">
            <mxPoint as="offset" />
          </mxGeometry>
        </mxCell>
        <mxCell id="yh0qmV7Q8T8gITBxbPLc-117" value="&lt;div&gt;&lt;b&gt;&lt;br&gt;&lt;/b&gt;&lt;/div&gt;&lt;b&gt;&lt;div&gt;&lt;b style=&quot;background-color: transparent; color: light-dark(rgb(0, 0, 0), rgb(255, 255, 255));&quot;&gt;User Session Controller&lt;/b&gt;&lt;/div&gt;&lt;/b&gt;&lt;div&gt;&lt;font style=&quot;font-size: 11px;&quot;&gt;[Container]&lt;/font&gt;&lt;/div&gt;&lt;div&gt;Handle user session and permissions&lt;/div&gt;" style="html=1;whiteSpace=wrap;fillColor=#cce5ff;strokeColor=#36393d;" vertex="1" parent="1">
          <mxGeometry x="7563.573830440893" y="1420.003846153846" width="193.88095238095238" height="133.1076923076923" as="geometry" />
        </mxCell>
        <mxCell id="yh0qmV7Q8T8gITBxbPLc-138" style="edgeStyle=orthogonalEdgeStyle;rounded=0;orthogonalLoop=1;jettySize=auto;html=1;exitX=0.75;exitY=0;exitDx=0;exitDy=0;entryX=0;entryY=0.5;entryDx=0;entryDy=0;dashed=1;dashPattern=12 12;curved=1;" edge="1" parent="1" source="yh0qmV7Q8T8gITBxbPLc-118" target="yh0qmV7Q8T8gITBxbPLc-117">
          <mxGeometry relative="1" as="geometry" />
        </mxCell>
        <mxCell id="yh0qmV7Q8T8gITBxbPLc-144" value="Uses" style="edgeLabel;html=1;align=center;verticalAlign=middle;resizable=0;points=[];" connectable="0" vertex="1" parent="yh0qmV7Q8T8gITBxbPLc-138">
          <mxGeometry x="-0.4283" y="-29" relative="1" as="geometry">
            <mxPoint x="-14" y="3" as="offset" />
          </mxGeometry>
        </mxCell>
        <mxCell id="yh0qmV7Q8T8gITBxbPLc-139" style="edgeStyle=orthogonalEdgeStyle;rounded=0;orthogonalLoop=1;jettySize=auto;html=1;exitX=1;exitY=0.75;exitDx=0;exitDy=0;entryX=0;entryY=0.25;entryDx=0;entryDy=0;dashed=1;dashPattern=12 12;curved=1;" edge="1" parent="1" source="yh0qmV7Q8T8gITBxbPLc-118" target="yh0qmV7Q8T8gITBxbPLc-125">
          <mxGeometry relative="1" as="geometry" />
        </mxCell>
        <mxCell id="yh0qmV7Q8T8gITBxbPLc-145" value="Uses" style="edgeLabel;html=1;align=center;verticalAlign=middle;resizable=0;points=[];" connectable="0" vertex="1" parent="yh0qmV7Q8T8gITBxbPLc-139">
          <mxGeometry x="-0.0788" relative="1" as="geometry">
            <mxPoint y="-1" as="offset" />
          </mxGeometry>
        </mxCell>
        <mxCell id="yh0qmV7Q8T8gITBxbPLc-140" style="edgeStyle=orthogonalEdgeStyle;rounded=0;orthogonalLoop=1;jettySize=auto;html=1;exitX=1;exitY=0.25;exitDx=0;exitDy=0;entryX=0;entryY=0.5;entryDx=0;entryDy=0;dashed=1;dashPattern=12 12;curved=1;" edge="1" parent="1" source="yh0qmV7Q8T8gITBxbPLc-118" target="yh0qmV7Q8T8gITBxbPLc-122">
          <mxGeometry relative="1" as="geometry" />
        </mxCell>
        <mxCell id="yh0qmV7Q8T8gITBxbPLc-146" value="Uses" style="edgeLabel;html=1;align=center;verticalAlign=middle;resizable=0;points=[];" connectable="0" vertex="1" parent="yh0qmV7Q8T8gITBxbPLc-140">
          <mxGeometry x="-0.387" y="5" relative="1" as="geometry">
            <mxPoint x="20" y="5" as="offset" />
          </mxGeometry>
        </mxCell>
        <mxCell id="yh0qmV7Q8T8gITBxbPLc-141" style="edgeStyle=orthogonalEdgeStyle;rounded=0;orthogonalLoop=1;jettySize=auto;html=1;exitX=0.5;exitY=1;exitDx=0;exitDy=0;entryX=0.5;entryY=0;entryDx=0;entryDy=0;dashed=1;dashPattern=12 12;curved=1;" edge="1" parent="1" source="yh0qmV7Q8T8gITBxbPLc-118" target="yh0qmV7Q8T8gITBxbPLc-124">
          <mxGeometry relative="1" as="geometry" />
        </mxCell>
        <mxCell id="yh0qmV7Q8T8gITBxbPLc-147" value="Uses" style="edgeLabel;html=1;align=center;verticalAlign=middle;resizable=0;points=[];" connectable="0" vertex="1" parent="yh0qmV7Q8T8gITBxbPLc-141">
          <mxGeometry x="-0.151" y="-2" relative="1" as="geometry">
            <mxPoint as="offset" />
          </mxGeometry>
        </mxCell>
        <mxCell id="yh0qmV7Q8T8gITBxbPLc-142" style="edgeStyle=orthogonalEdgeStyle;rounded=0;orthogonalLoop=1;jettySize=auto;html=1;exitX=0.25;exitY=0;exitDx=0;exitDy=0;entryX=1;entryY=0.5;entryDx=0;entryDy=0;dashed=1;dashPattern=12 12;curved=1;" edge="1" parent="1" source="yh0qmV7Q8T8gITBxbPLc-118" target="yh0qmV7Q8T8gITBxbPLc-119">
          <mxGeometry relative="1" as="geometry" />
        </mxCell>
        <mxCell id="yh0qmV7Q8T8gITBxbPLc-148" value="Uses" style="edgeLabel;html=1;align=center;verticalAlign=middle;resizable=0;points=[];" connectable="0" vertex="1" parent="yh0qmV7Q8T8gITBxbPLc-142">
          <mxGeometry x="-0.084" y="2" relative="1" as="geometry">
            <mxPoint x="-16" y="51" as="offset" />
          </mxGeometry>
        </mxCell>
        <mxCell id="yh0qmV7Q8T8gITBxbPLc-143" style="edgeStyle=orthogonalEdgeStyle;rounded=0;orthogonalLoop=1;jettySize=auto;html=1;exitX=0;exitY=0.5;exitDx=0;exitDy=0;entryX=1;entryY=0.5;entryDx=0;entryDy=0;dashed=1;dashPattern=12 12;curved=1;" edge="1" parent="1" source="yh0qmV7Q8T8gITBxbPLc-118" target="yh0qmV7Q8T8gITBxbPLc-123">
          <mxGeometry relative="1" as="geometry" />
        </mxCell>
        <mxCell id="yh0qmV7Q8T8gITBxbPLc-149" value="Uses" style="edgeLabel;html=1;align=center;verticalAlign=middle;resizable=0;points=[];" connectable="0" vertex="1" parent="yh0qmV7Q8T8gITBxbPLc-143">
          <mxGeometry x="-0.3402" y="10" relative="1" as="geometry">
            <mxPoint x="-9" y="-10" as="offset" />
          </mxGeometry>
        </mxCell>
        <mxCell id="yh0qmV7Q8T8gITBxbPLc-118" value="&lt;div&gt;&lt;b&gt;&lt;br&gt;&lt;/b&gt;&lt;/div&gt;&lt;b&gt;Questionnaire Management&lt;br&gt;Service&lt;/b&gt;&lt;br&gt;&lt;div&gt;&lt;font style=&quot;font-size: 11px;&quot;&gt;[Container]&lt;/font&gt;&lt;/div&gt;&lt;div&gt;Provides CRUD&lt;br&gt;&amp;nbsp;questionnaire functionality&lt;/div&gt;" style="html=1;whiteSpace=wrap;fillColor=#cce5ff;strokeColor=#36393d;" vertex="1" parent="1">
          <mxGeometry x="7249.998919501912" y="1643.4438461538462" width="193.88095238095238" height="133.1076923076923" as="geometry" />
        </mxCell>
        <mxCell id="yh0qmV7Q8T8gITBxbPLc-119" value="&lt;div&gt;&lt;b style=&quot;background-color: transparent; color: light-dark(rgb(0, 0, 0), rgb(255, 255, 255));&quot;&gt;Validation Serive&lt;/b&gt;&lt;/div&gt;&lt;div&gt;&lt;font style=&quot;font-size: 11px;&quot;&gt;[Container]&lt;/font&gt;&lt;/div&gt;&lt;div&gt;Provides validation rules for &lt;br&gt;fields and different states of &lt;br&gt;questionnaire lifecycle&lt;/div&gt;" style="html=1;whiteSpace=wrap;fillColor=#cce5ff;strokeColor=#36393d;" vertex="1" parent="1">
          <mxGeometry x="6952.082433571919" y="1453.4484615384615" width="193.88095238095238" height="133.1076923076923" as="geometry" />
        </mxCell>
        <mxCell id="yh0qmV7Q8T8gITBxbPLc-168" style="edgeStyle=orthogonalEdgeStyle;rounded=0;orthogonalLoop=1;jettySize=auto;html=1;exitX=0;exitY=0.5;exitDx=0;exitDy=0;curved=1;dashed=1;dashPattern=12 12;" edge="1" parent="1" source="yh0qmV7Q8T8gITBxbPLc-120" target="yh0qmV7Q8T8gITBxbPLc-79">
          <mxGeometry relative="1" as="geometry" />
        </mxCell>
        <mxCell id="yh0qmV7Q8T8gITBxbPLc-169" value="Writes to" style="edgeLabel;html=1;align=center;verticalAlign=middle;resizable=0;points=[];" connectable="0" vertex="1" parent="yh0qmV7Q8T8gITBxbPLc-168">
          <mxGeometry x="0.2391" y="20" relative="1" as="geometry">
            <mxPoint as="offset" />
          </mxGeometry>
        </mxCell>
        <mxCell id="yh0qmV7Q8T8gITBxbPLc-120" value="&lt;div&gt;&lt;b style=&quot;background-color: transparent; color: light-dark(rgb(0, 0, 0), rgb(255, 255, 255));&quot;&gt;Logger Service&lt;/b&gt;&lt;/div&gt;&lt;div&gt;&lt;font style=&quot;font-size: 11px;&quot;&gt;[Container]&lt;/font&gt;&lt;/div&gt;&lt;div&gt;Provides users actions logs&lt;/div&gt;" style="html=1;whiteSpace=wrap;fillColor=#cce5ff;strokeColor=#36393d;" vertex="1" parent="1">
          <mxGeometry x="6693.062816616009" y="1476.8946153846155" width="193.88095238095238" height="133.1076923076923" as="geometry" />
        </mxCell>
        <mxCell id="yh0qmV7Q8T8gITBxbPLc-160" style="edgeStyle=orthogonalEdgeStyle;rounded=0;orthogonalLoop=1;jettySize=auto;html=1;exitX=0;exitY=0.5;exitDx=0;exitDy=0;curved=1;dashed=1;dashPattern=12 12;entryX=1;entryY=0;entryDx=0;entryDy=97.5;entryPerimeter=0;" edge="1" parent="1" source="yh0qmV7Q8T8gITBxbPLc-121" target="yh0qmV7Q8T8gITBxbPLc-79">
          <mxGeometry relative="1" as="geometry" />
        </mxCell>
        <mxCell id="yh0qmV7Q8T8gITBxbPLc-161" value="Reads from" style="edgeLabel;html=1;align=center;verticalAlign=middle;resizable=0;points=[];" connectable="0" vertex="1" parent="yh0qmV7Q8T8gITBxbPLc-160">
          <mxGeometry x="-0.2143" y="-2" relative="1" as="geometry">
            <mxPoint x="-33" y="2" as="offset" />
          </mxGeometry>
        </mxCell>
        <mxCell id="yh0qmV7Q8T8gITBxbPLc-177" style="edgeStyle=orthogonalEdgeStyle;rounded=0;orthogonalLoop=1;jettySize=auto;html=1;exitX=0;exitY=0.75;exitDx=0;exitDy=0;curved=1;dashed=1;dashPattern=12 12;" edge="1" parent="1" source="yh0qmV7Q8T8gITBxbPLc-121" target="yh0qmV7Q8T8gITBxbPLc-85">
          <mxGeometry relative="1" as="geometry">
            <Array as="points">
              <mxPoint x="6610" y="1970" />
              <mxPoint x="6610" y="2040" />
              <mxPoint x="6370" y="2040" />
              <mxPoint x="6370" y="1464" />
            </Array>
          </mxGeometry>
        </mxCell>
        <mxCell id="yh0qmV7Q8T8gITBxbPLc-178" value="Reads from&lt;br&gt;and writes to" style="edgeLabel;html=1;align=center;verticalAlign=middle;resizable=0;points=[];" connectable="0" vertex="1" parent="yh0qmV7Q8T8gITBxbPLc-177">
          <mxGeometry x="-0.3886" y="-15" relative="1" as="geometry">
            <mxPoint x="-15" as="offset" />
          </mxGeometry>
        </mxCell>
        <mxCell id="yh0qmV7Q8T8gITBxbPLc-121" value="&lt;div&gt;&lt;b&gt;&lt;br&gt;&lt;/b&gt;&lt;/div&gt;&lt;b&gt;Questionnaire View Service&lt;/b&gt;&lt;br&gt;&lt;div&gt;&lt;font style=&quot;font-size: 11px;&quot;&gt;[Container]&lt;/font&gt;&lt;/div&gt;&lt;div&gt;Provides viewing &lt;br&gt;and searching of &lt;br&gt;questionnaire functionality&lt;/div&gt;" style="html=1;whiteSpace=wrap;fillColor=#cce5ff;strokeColor=#36393d;" vertex="1" parent="1">
          <mxGeometry x="6952.086961466811" y="1870.003846153846" width="193.88095238095238" height="133.1076923076923" as="geometry" />
        </mxCell>
        <mxCell id="yh0qmV7Q8T8gITBxbPLc-122" value="&lt;div&gt;&lt;b style=&quot;background-color: transparent; color: light-dark(rgb(0, 0, 0), rgb(255, 255, 255));&quot;&gt;Sign Service&lt;/b&gt;&lt;/div&gt;&lt;div&gt;&lt;font style=&quot;font-size: 11px;&quot;&gt;[Container]&lt;/font&gt;&lt;/div&gt;&lt;div&gt;Provides decrypt EDS&lt;/div&gt;" style="html=1;whiteSpace=wrap;fillColor=#cce5ff;strokeColor=#36393d;" vertex="1" parent="1">
          <mxGeometry x="7563.573587279799" y="1610.0046153846156" width="193.88095238095238" height="133.1076923076923" as="geometry" />
        </mxCell>
        <mxCell id="yh0qmV7Q8T8gITBxbPLc-123" value="&lt;div&gt;&lt;b style=&quot;background-color: transparent; color: light-dark(rgb(0, 0, 0), rgb(255, 255, 255));&quot;&gt;Barcode Generation &lt;br&gt;Service&lt;/b&gt;&lt;/div&gt;&lt;div&gt;&lt;font style=&quot;font-size: 11px;&quot;&gt;[Container]&lt;/font&gt;&lt;/div&gt;&lt;div&gt;Provides generation of &lt;br&gt;qr-code with link to register&lt;/div&gt;" style="html=1;whiteSpace=wrap;fillColor=#cce5ff;strokeColor=#36393d;" vertex="1" parent="1">
          <mxGeometry x="6952.084598163218" y="1643.4446153846154" width="193.88095238095238" height="133.1076923076923" as="geometry" />
        </mxCell>
        <mxCell id="yh0qmV7Q8T8gITBxbPLc-162" style="edgeStyle=orthogonalEdgeStyle;rounded=0;orthogonalLoop=1;jettySize=auto;html=1;exitX=0.5;exitY=1;exitDx=0;exitDy=0;entryX=0;entryY=0.25;entryDx=0;entryDy=0;curved=1;dashed=1;dashPattern=12 12;" edge="1" parent="1" source="yh0qmV7Q8T8gITBxbPLc-124" target="yh0qmV7Q8T8gITBxbPLc-84">
          <mxGeometry relative="1" as="geometry" />
        </mxCell>
        <mxCell id="yh0qmV7Q8T8gITBxbPLc-163" value="&lt;span style=&quot;font-size: 12px;&quot;&gt;Get user&lt;/span&gt;&lt;br style=&quot;font-size: 12px;&quot;&gt;&lt;span style=&quot;font-size: 12px;&quot;&gt;additional information&lt;/span&gt;" style="edgeLabel;html=1;align=center;verticalAlign=middle;resizable=0;points=[];" connectable="0" vertex="1" parent="yh0qmV7Q8T8gITBxbPLc-162">
          <mxGeometry x="0.0089" y="9" relative="1" as="geometry">
            <mxPoint x="18" y="9" as="offset" />
          </mxGeometry>
        </mxCell>
        <mxCell id="yh0qmV7Q8T8gITBxbPLc-124" value="&lt;div&gt;&lt;b&gt;&lt;br&gt;&lt;/b&gt;&lt;/div&gt;&lt;b&gt;&lt;div&gt;&lt;b style=&quot;background-color: transparent; color: light-dark(rgb(0, 0, 0), rgb(255, 255, 255));&quot;&gt;User Management Serice&lt;/b&gt;&lt;/div&gt;&lt;/b&gt;&lt;div&gt;&lt;font style=&quot;font-size: 11px;&quot;&gt;[Container]&lt;/font&gt;&lt;/div&gt;&lt;div&gt;Provides showing and searching users and adding additional information&lt;/div&gt;" style="html=1;whiteSpace=wrap;fillColor=#cce5ff;strokeColor=#36393d;" vertex="1" parent="1">
          <mxGeometry x="7249.997091871752" y="1870.003076923077" width="193.88095238095238" height="133.1076923076923" as="geometry" />
        </mxCell>
        <mxCell id="yh0qmV7Q8T8gITBxbPLc-125" value="&lt;div&gt;&lt;b style=&quot;background-color: transparent; color: light-dark(rgb(0, 0, 0), rgb(255, 255, 255));&quot;&gt;&lt;br&gt;&lt;/b&gt;&lt;/div&gt;&lt;div&gt;&lt;b style=&quot;background-color: transparent; color: light-dark(rgb(0, 0, 0), rgb(255, 255, 255));&quot;&gt;Notification Service&lt;/b&gt;&lt;/div&gt;&lt;div&gt;&lt;font style=&quot;font-size: 11px;&quot;&gt;[Container]&lt;/font&gt;&lt;/div&gt;&lt;div&gt;Sends notification about &lt;br&gt;adding new questionnaires&lt;/div&gt;" style="html=1;whiteSpace=wrap;fillColor=#cce5ff;strokeColor=#36393d;" vertex="1" parent="1">
          <mxGeometry x="7563.57852697977" y="1800.0023076923076" width="193.88095238095238" height="133.1076923076923" as="geometry" />
        </mxCell>
        <mxCell id="yh0qmV7Q8T8gITBxbPLc-126" value="&lt;div&gt;&lt;b&gt;&lt;br&gt;&lt;/b&gt;&lt;/div&gt;&lt;b&gt;Reporting &amp;amp; Analytics Service&lt;/b&gt;&lt;br&gt;&lt;div&gt;&lt;font style=&quot;font-size: 11px;&quot;&gt;&amp;nbsp;[Container]&lt;/font&gt;&lt;/div&gt;&lt;div&gt;Provides reporting by key params&lt;/div&gt;" style="html=1;whiteSpace=wrap;fillColor=#cce5ff;strokeColor=#36393d;" vertex="1" parent="1">
          <mxGeometry x="6693.064225577671" y="1643.4423076923078" width="193.88095238095238" height="133.1076923076923" as="geometry" />
        </mxCell>
        <mxCell id="yh0qmV7Q8T8gITBxbPLc-154" style="edgeStyle=orthogonalEdgeStyle;rounded=0;orthogonalLoop=1;jettySize=auto;html=1;exitX=0.5;exitY=1;exitDx=0;exitDy=0;entryX=0.341;entryY=0.001;entryDx=0;entryDy=0;entryPerimeter=0;curved=1;dashed=1;dashPattern=12 12;" edge="1" parent="1" source="yh0qmV7Q8T8gITBxbPLc-64" target="yh0qmV7Q8T8gITBxbPLc-58">
          <mxGeometry relative="1" as="geometry" />
        </mxCell>
        <mxCell id="yh0qmV7Q8T8gITBxbPLc-156" value="Makes API calls to&lt;br&gt;[JSON/HTTPS]" style="edgeLabel;html=1;align=center;verticalAlign=middle;resizable=0;points=[];" connectable="0" vertex="1" parent="yh0qmV7Q8T8gITBxbPLc-154">
          <mxGeometry x="-0.3721" y="1" relative="1" as="geometry">
            <mxPoint x="-1" y="7" as="offset" />
          </mxGeometry>
        </mxCell>
        <mxCell id="yh0qmV7Q8T8gITBxbPLc-155" style="edgeStyle=orthogonalEdgeStyle;rounded=0;orthogonalLoop=1;jettySize=auto;html=1;exitX=0.5;exitY=1;exitDx=0;exitDy=0;entryX=0.613;entryY=0.001;entryDx=0;entryDy=0;entryPerimeter=0;curved=1;dashed=1;dashPattern=12 12;" edge="1" parent="1" source="yh0qmV7Q8T8gITBxbPLc-61" target="yh0qmV7Q8T8gITBxbPLc-58">
          <mxGeometry relative="1" as="geometry" />
        </mxCell>
        <mxCell id="yh0qmV7Q8T8gITBxbPLc-157" value="Makes API calls to&lt;br&gt;[JSON &amp;amp; BLOB/HTTPS]" style="edgeLabel;html=1;align=center;verticalAlign=middle;resizable=0;points=[];" connectable="0" vertex="1" parent="yh0qmV7Q8T8gITBxbPLc-155">
          <mxGeometry x="-0.2292" y="3" relative="1" as="geometry">
            <mxPoint x="-3" y="1" as="offset" />
          </mxGeometry>
        </mxCell>
        <mxCell id="yh0qmV7Q8T8gITBxbPLc-164" style="edgeStyle=orthogonalEdgeStyle;rounded=0;orthogonalLoop=1;jettySize=auto;html=1;exitX=0.25;exitY=1;exitDx=0;exitDy=0;entryX=1;entryY=0.5;entryDx=0;entryDy=0;entryPerimeter=0;curved=1;dashed=1;dashPattern=12 12;" edge="1" parent="1" source="yh0qmV7Q8T8gITBxbPLc-118" target="yh0qmV7Q8T8gITBxbPLc-79">
          <mxGeometry relative="1" as="geometry">
            <Array as="points">
              <mxPoint x="7299" y="1850" />
              <mxPoint x="6830" y="1850" />
              <mxPoint x="6830" y="1910" />
            </Array>
          </mxGeometry>
        </mxCell>
        <mxCell id="yh0qmV7Q8T8gITBxbPLc-165" value="Reads from&lt;br&gt;and writes to" style="edgeLabel;html=1;align=center;verticalAlign=middle;resizable=0;points=[];" connectable="0" vertex="1" parent="yh0qmV7Q8T8gITBxbPLc-164">
          <mxGeometry x="0.2471" y="15" relative="1" as="geometry">
            <mxPoint as="offset" />
          </mxGeometry>
        </mxCell>
        <mxCell id="yh0qmV7Q8T8gITBxbPLc-166" style="edgeStyle=orthogonalEdgeStyle;rounded=0;orthogonalLoop=1;jettySize=auto;html=1;exitX=0.5;exitY=1;exitDx=0;exitDy=0;entryX=1;entryY=0;entryDx=0;entryDy=42.5;entryPerimeter=0;curved=1;dashed=1;dashPattern=12 12;" edge="1" parent="1" source="yh0qmV7Q8T8gITBxbPLc-126" target="yh0qmV7Q8T8gITBxbPLc-79">
          <mxGeometry relative="1" as="geometry" />
        </mxCell>
        <mxCell id="yh0qmV7Q8T8gITBxbPLc-167" value="Reads from" style="edgeLabel;html=1;align=center;verticalAlign=middle;resizable=0;points=[];" connectable="0" vertex="1" parent="yh0qmV7Q8T8gITBxbPLc-166">
          <mxGeometry x="0.0879" y="-23" relative="1" as="geometry">
            <mxPoint as="offset" />
          </mxGeometry>
        </mxCell>
        <mxCell id="yh0qmV7Q8T8gITBxbPLc-171" style="edgeStyle=orthogonalEdgeStyle;rounded=0;orthogonalLoop=1;jettySize=auto;html=1;exitX=0.5;exitY=0;exitDx=0;exitDy=0;entryX=1;entryY=0;entryDx=0;entryDy=42.5;entryPerimeter=0;curved=1;dashed=1;dashPattern=12 12;" edge="1" parent="1" source="yh0qmV7Q8T8gITBxbPLc-118" target="yh0qmV7Q8T8gITBxbPLc-85">
          <mxGeometry relative="1" as="geometry">
            <Array as="points">
              <mxPoint x="7347" y="1420" />
              <mxPoint x="6940" y="1420" />
              <mxPoint x="6940" y="1437" />
            </Array>
          </mxGeometry>
        </mxCell>
        <mxCell id="yh0qmV7Q8T8gITBxbPLc-172" value="Reads from&lt;br&gt;and writes to" style="edgeLabel;html=1;align=center;verticalAlign=middle;resizable=0;points=[];" connectable="0" vertex="1" parent="yh0qmV7Q8T8gITBxbPLc-171">
          <mxGeometry x="-0.0548" relative="1" as="geometry">
            <mxPoint x="-144" as="offset" />
          </mxGeometry>
        </mxCell>
        <mxCell id="yh0qmV7Q8T8gITBxbPLc-185" style="edgeStyle=orthogonalEdgeStyle;rounded=0;orthogonalLoop=1;jettySize=auto;html=1;exitX=1;exitY=0.5;exitDx=0;exitDy=0;entryX=0;entryY=0.5;entryDx=0;entryDy=0;" edge="1" parent="1" source="yh0qmV7Q8T8gITBxbPLc-181" target="yh0qmV7Q8T8gITBxbPLc-182">
          <mxGeometry relative="1" as="geometry" />
        </mxCell>
        <mxCell id="yh0qmV7Q8T8gITBxbPLc-181" value="&lt;font style=&quot;font-size: 16px;&quot;&gt;Draft&lt;/font&gt;" style="ellipse;whiteSpace=wrap;html=1;" vertex="1" parent="1">
          <mxGeometry x="6050" y="185" width="140" height="70" as="geometry" />
        </mxCell>
        <mxCell id="yh0qmV7Q8T8gITBxbPLc-187" style="rounded=0;orthogonalLoop=1;jettySize=auto;html=1;exitX=1;exitY=0.5;exitDx=0;exitDy=0;entryX=0;entryY=0.5;entryDx=0;entryDy=0;" edge="1" parent="1" source="yh0qmV7Q8T8gITBxbPLc-182" target="yh0qmV7Q8T8gITBxbPLc-183">
          <mxGeometry relative="1" as="geometry" />
        </mxCell>
        <mxCell id="yh0qmV7Q8T8gITBxbPLc-188" style="rounded=0;orthogonalLoop=1;jettySize=auto;html=1;exitX=1;exitY=0.5;exitDx=0;exitDy=0;entryX=0;entryY=0.5;entryDx=0;entryDy=0;" edge="1" parent="1" source="yh0qmV7Q8T8gITBxbPLc-182" target="yh0qmV7Q8T8gITBxbPLc-184">
          <mxGeometry relative="1" as="geometry" />
        </mxCell>
        <mxCell id="yh0qmV7Q8T8gITBxbPLc-182" value="&lt;font style=&quot;font-size: 16px;&quot;&gt;Active&lt;/font&gt;" style="ellipse;whiteSpace=wrap;html=1;" vertex="1" parent="1">
          <mxGeometry x="6240" y="185" width="140" height="70" as="geometry" />
        </mxCell>
        <mxCell id="yh0qmV7Q8T8gITBxbPLc-183" value="&lt;font style=&quot;font-size: 16px;&quot;&gt;Archived&lt;/font&gt;" style="ellipse;whiteSpace=wrap;html=1;" vertex="1" parent="1">
          <mxGeometry x="6430" y="120" width="140" height="70" as="geometry" />
        </mxCell>
        <mxCell id="yh0qmV7Q8T8gITBxbPLc-184" value="&lt;span id=&quot;docs-internal-guid-909af9d2-7fff-8852-f39b-5fc28e6ef412&quot;&gt;&lt;span style=&quot;font-size: 12pt; font-family: Arial, sans-serif; background-color: transparent; font-variant-numeric: normal; font-variant-east-asian: normal; font-variant-alternates: normal; font-variant-position: normal; font-variant-emoji: normal; vertical-align: baseline; white-space-collapse: preserve;&quot;&gt;Canceled&lt;/span&gt;&lt;/span&gt;" style="ellipse;whiteSpace=wrap;html=1;" vertex="1" parent="1">
          <mxGeometry x="6430" y="250" width="140" height="70" as="geometry" />
        </mxCell>
        <mxCell id="yh0qmV7Q8T8gITBxbPLc-191" value="&lt;span style=&quot;color: rgb(0, 0, 0); font-family: Helvetica; font-size: 48px; font-style: normal; font-variant-ligatures: normal; font-variant-caps: normal; font-weight: 400; letter-spacing: normal; orphans: 2; text-align: center; text-indent: 0px; text-transform: none; widows: 2; word-spacing: 0px; -webkit-text-stroke-width: 0px; white-space: nowrap; background-color: rgb(251, 251, 251); text-decoration-thickness: initial; text-decoration-style: initial; text-decoration-color: initial; float: none; display: inline !important;&quot;&gt;Questionnaire Lifecycle&lt;/span&gt;" style="text;whiteSpace=wrap;html=1;" vertex="1" parent="1">
          <mxGeometry x="6057.5" y="20" width="510" height="80" as="geometry" />
        </mxCell>
      </root>
    </mxGraphModel>
  </diagram>
</mxfile>
